SplineFontDB: 3.2
FontName: Agave-Bold
FullName: Agave Bold
FamilyName: Agave
Weight: Bold
Copyright: (c) 2013-2021 type agaric <agaric@protonmail.com>
Version: 38
ItalicAngle: 0
UnderlinePosition: -384
UnderlineWidth: 128
Ascent: 1536
Descent: 512
InvalidEm: 0
sfntRevision: 0x00260000
LayerCount: 2
Layer: 0 1 "Back" 1
Layer: 1 1 "Fore" 0
HasVMetrics: 1
XUID: [1021 841 -1229886061 10207314]
UniqueID: -1
UseUniqueID: 1
StyleMap: 0x0020
FSType: 0
OS2Version: 0
OS2_WeightWidthSlopeOnly: 0
OS2_UseTypoMetrics: 1
CreationTime: 1552578602
ModificationTime: 1609947981
PfmFamily: 49
TTFWeight: 700
TTFWidth: 5
LineGap: 0
VLineGap: 0
Panose: 2 11 8 9 4 4 4 2 2 3
OS2TypoAscent: 1536
OS2TypoAOffset: 0
OS2TypoDescent: -512
OS2TypoDOffset: 0
OS2TypoLinegap: 0
OS2WinAscent: 1536
OS2WinAOffset: 0
OS2WinDescent: 512
OS2WinDOffset: 0
HheadAscent: 1536
HheadAOffset: 0
HheadDescent: -512
HheadDOffset: 0
OS2SubXSize: 1403
OS2SubYSize: 1224
OS2SubXOff: 0
OS2SubYOff: 120
OS2SupXSize: 1403
OS2SupYSize: 1224
OS2SupXOff: 0
OS2SupYOff: 648
OS2StrikeYSize: 128
OS2StrikeYPos: 512
OS2CapHeight: 1280
OS2XHeight: 1024
OS2FamilyClass: 2057
OS2Vendor: 'agrc'
MarkAttachClasses: 1
DEI: 91125

StartChar: O
Encoding: 79 79 0
Width: 1024
VWidth: 0
Flags: MW
LayerCount: 2
Fore
SplineSet
80 640 m 128,-1,1
 80 821 80 821 109.5 949.5 c 128,-1,2
 139 1078 139 1078 196.5 1153 c 128,-1,3
 254 1228 254 1228 331 1262 c 128,-1,4
 408 1296 408 1296 512 1296 c 128,-1,5
 616 1296 616 1296 693 1262 c 128,-1,6
 770 1228 770 1228 827.5 1153 c 128,-1,7
 885 1078 885 1078 914.5 949.5 c 128,-1,8
 944 821 944 821 944 640 c 128,-1,9
 944 459 944 459 914.5 330.5 c 128,-1,10
 885 202 885 202 827.5 127 c 128,-1,11
 770 52 770 52 693 18 c 128,-1,12
 616 -16 616 -16 512 -16 c 128,-1,13
 408 -16 408 -16 331 18 c 128,-1,14
 254 52 254 52 196.5 127 c 128,-1,15
 139 202 139 202 109.5 330.5 c 128,-1,0
 80 459 80 459 80 640 c 128,-1,1
512 1110 m 128,-1,17
 460 1110 460 1110 426 1067 c 128,-1,18
 392 1024 392 1024 372 918 c 128,-1,19
 352 812 352 812 352 640 c 128,-1,20
 352 468 352 468 372 362 c 128,-1,21
 392 256 392 256 426 213 c 128,-1,22
 460 170 460 170 512 170 c 128,-1,23
 564 170 564 170 598 213 c 128,-1,24
 632 256 632 256 652 362 c 128,-1,25
 672 468 672 468 672 640 c 128,-1,26
 672 812 672 812 652 918 c 128,-1,27
 632 1024 632 1024 598 1067 c 128,-1,16
 564 1110 564 1110 512 1110 c 128,-1,17
EndSplineSet
EndChar

StartChar: slash
Encoding: 47 47 1
Width: 1024
VWidth: 0
Flags: MW
LayerCount: 2
Fore
SplineSet
896 1437 m 1,0,-1
 395 -256 l 1,1,-1
 128 -256 l 1,2,-1
 629 1437 l 1,3,-1
 896 1437 l 1,0,-1
EndSplineSet
EndChar

StartChar: asciicircum
Encoding: 94 94 2
Width: 1024
VWidth: 0
Flags: MW
LayerCount: 2
Fore
SplineSet
384 1280 m 1,0,-1
 640 1280 l 1,1,-1
 960 640 l 1,2,-1
 706 640 l 1,3,-1
 512 1036 l 1,4,-1
 318 640 l 1,5,-1
 64 640 l 1,6,-1
 384 1280 l 1,0,-1
EndSplineSet
EndChar

StartChar: underscore
Encoding: 95 95 3
Width: 1024
VWidth: 0
Flags: MW
LayerCount: 2
Fore
SplineSet
85 -52 m 1,0,-1
 939 -52 l 1,1,-1
 939 -256 l 1,2,-1
 85 -256 l 1,3,-1
 85 -52 l 1,0,-1
EndSplineSet
EndChar

StartChar: A
Encoding: 65 65 4
Width: 1024
VWidth: 0
Flags: MW
LayerCount: 2
Fore
SplineSet
384 1280 m 1,0,-1
 640 1280 l 1,1,-1
 992 0 l 1,2,-1
 757 0 l 1,3,-1
 686 256 l 1,4,-1
 338 256 l 1,5,-1
 267 0 l 1,6,-1
 32 0 l 1,7,-1
 384 1280 l 1,0,-1
512 964 m 1,8,-1
 479 768 l 1,9,-1
 389 442 l 1,10,-1
 635 442 l 1,11,-1
 545 768 l 1,12,-1
 512 964 l 1,8,-1
EndSplineSet
EndChar

StartChar: K
Encoding: 75 75 5
Width: 1024
VWidth: 0
Flags: MW
LayerCount: 2
Fore
SplineSet
664 1280 m 1,0,-1
 928 1280 l 1,1,-1
 567 672 l 1,2,-1
 960 0 l 1,3,-1
 697 0 l 1,4,-1
 323 640 l 1,5,-1
 323 0 l 1,6,-1
 96 0 l 1,7,-1
 96 1280 l 1,8,-1
 323 1280 l 1,9,-1
 323 704 l 1,10,-1
 664 1280 l 1,0,-1
EndSplineSet
EndChar

StartChar: H
Encoding: 72 72 6
Width: 1024
VWidth: 0
Flags: MW
LayerCount: 2
Fore
SplineSet
96 1280 m 1,0,-1
 352 1280 l 1,1,-1
 352 768 l 1,2,-1
 672 768 l 1,3,-1
 672 1280 l 1,4,-1
 928 1280 l 1,5,-1
 928 0 l 1,6,-1
 672 0 l 1,7,-1
 672 582 l 1,8,-1
 352 582 l 1,9,-1
 352 0 l 1,10,-1
 96 0 l 1,11,-1
 96 1280 l 1,0,-1
EndSplineSet
EndChar

StartChar: J
Encoding: 74 74 7
Width: 1024
VWidth: 0
Flags: MW
LayerCount: 2
Fore
SplineSet
196 1280 m 1,0,-1
 864 1280 l 1,1,-1
 864 526 l 2,2,3
 864 378 864 378 826.5 273.5 c 128,-1,4
 789 169 789 169 715 108 c 128,-1,5
 641 47 641 47 542.5 19.5 c 128,-1,6
 444 -8 444 -8 311 -8 c 0,7,8
 261 -8 261 -8 215 -4 c 128,-1,9
 169 -0 169 -0 148.5 4 c 2,10,-1
 128 8 l 1,11,-1
 128 186 l 1,12,-1
 311 186 l 2,13,14
 457 186 457 186 532.5 264.5 c 128,-1,15
 608 343 608 343 608 526 c 2,16,-1
 608 1094 l 1,17,-1
 196 1094 l 1,18,-1
 196 1280 l 1,0,-1
EndSplineSet
EndChar

StartChar: I
Encoding: 73 73 8
Width: 1024
VWidth: 0
Flags: MW
LayerCount: 2
Fore
SplineSet
160 1280 m 1,0,-1
 864 1280 l 1,1,-1
 864 1094 l 1,2,-1
 640 1094 l 1,3,-1
 640 186 l 1,4,-1
 864 186 l 1,5,-1
 864 0 l 1,6,-1
 160 0 l 1,7,-1
 160 186 l 1,8,-1
 384 186 l 1,9,-1
 384 1094 l 1,10,-1
 160 1094 l 1,11,-1
 160 1280 l 1,0,-1
EndSplineSet
EndChar

StartChar: L
Encoding: 76 76 9
Width: 1024
VWidth: 0
Flags: MW
LayerCount: 2
Fore
SplineSet
128 1280 m 1,0,-1
 384 1280 l 1,1,-1
 384 186 l 1,2,-1
 928 186 l 1,3,-1
 928 0 l 1,4,-1
 128 0 l 1,5,-1
 128 1280 l 1,0,-1
EndSplineSet
EndChar

StartChar: T
Encoding: 84 84 10
Width: 1024
VWidth: 0
Flags: MW
LayerCount: 2
Fore
SplineSet
64 1280 m 1,0,-1
 960 1280 l 1,1,-1
 960 1094 l 1,2,-1
 640 1094 l 1,3,-1
 640 0 l 1,4,-1
 384 0 l 1,5,-1
 384 1094 l 1,6,-1
 64 1094 l 1,7,-1
 64 1280 l 1,0,-1
EndSplineSet
EndChar

StartChar: F
Encoding: 70 70 11
Width: 1024
VWidth: 0
Flags: MW
LayerCount: 2
Fore
SplineSet
128 1280 m 1,0,-1
 928 1280 l 1,1,-1
 928 1094 l 1,2,-1
 384 1094 l 1,3,-1
 384 768 l 1,4,-1
 896 768 l 1,5,-1
 896 582 l 1,6,-1
 384 582 l 1,7,-1
 384 0 l 1,8,-1
 128 0 l 1,9,-1
 128 1280 l 1,0,-1
EndSplineSet
EndChar

StartChar: B
Encoding: 66 66 12
Width: 1024
VWidth: 0
Flags: MW
LayerCount: 2
Fore
SplineSet
96 1280 m 1,0,-1
 352 1280 l 2,1,2
 478 1280 478 1280 572.5 1262 c 128,-1,3
 667 1244 667 1244 737.5 1204 c 128,-1,4
 808 1164 808 1164 844 1095.5 c 128,-1,5
 880 1027 880 1027 880 931 c 0,6,7
 880 879 880 879 859 835.5 c 128,-1,8
 838 792 838 792 808.5 767.5 c 128,-1,9
 779 743 779 743 749.5 726 c 128,-1,10
 720 709 720 709 699 703 c 2,11,-1
 678 697 l 1,12,13
 684 696 684 696 693.5 693 c 128,-1,14
 703 690 703 690 730.5 678.5 c 128,-1,15
 758 667 758 667 783 652.5 c 128,-1,16
 808 638 808 638 839 612 c 128,-1,17
 870 586 870 586 892 555.5 c 128,-1,18
 914 525 914 525 929 480 c 128,-1,19
 944 435 944 435 944 384 c 0,20,21
 944 278 944 278 904 203 c 128,-1,22
 864 128 864 128 784.5 84 c 128,-1,23
 705 40 705 40 599.5 20 c 128,-1,24
 494 0 494 0 352 0 c 2,25,-1
 96 0 l 1,26,-1
 96 1280 l 1,0,-1
352 1094 m 1,27,-1
 352 768 l 1,28,29
 485 768 485 768 554.5 805.5 c 128,-1,30
 624 843 624 843 624 931 c 128,-1,31
 624 1019 624 1019 554.5 1056.5 c 128,-1,32
 485 1094 485 1094 352 1094 c 1,27,-1
352 582 m 1,33,-1
 352 186 l 1,34,35
 516 186 516 186 598 229 c 128,-1,36
 680 272 680 272 680 384 c 128,-1,37
 680 496 680 496 598 539 c 128,-1,38
 516 582 516 582 352 582 c 1,33,-1
EndSplineSet
EndChar

StartChar: D
Encoding: 68 68 13
Width: 1024
VWidth: 0
Flags: MW
LayerCount: 2
Fore
SplineSet
96 1280 m 1,0,-1
 352 1280 l 2,1,2
 494 1280 494 1280 599.5 1247 c 128,-1,3
 705 1214 705 1214 784.5 1140.5 c 128,-1,4
 864 1067 864 1067 904 942 c 128,-1,5
 944 817 944 817 944 640 c 128,-1,6
 944 463 944 463 904 338 c 128,-1,7
 864 213 864 213 784.5 139.5 c 128,-1,8
 705 66 705 66 599.5 33 c 128,-1,9
 494 0 494 0 352 0 c 2,10,-1
 96 0 l 1,11,-1
 96 1280 l 1,0,-1
352 1094 m 1,12,-1
 352 186 l 1,13,14
 509 186 509 186 590.5 290.5 c 128,-1,15
 672 395 672 395 672 640 c 128,-1,16
 672 885 672 885 590.5 989.5 c 128,-1,17
 509 1094 509 1094 352 1094 c 1,12,-1
EndSplineSet
EndChar

StartChar: backslash
Encoding: 92 92 14
Width: 1024
VWidth: 0
Flags: MW
LayerCount: 2
Fore
SplineSet
395 1437 m 1,0,-1
 896 -256 l 1,1,-1
 629 -256 l 1,2,-1
 128 1437 l 1,3,-1
 395 1437 l 1,0,-1
EndSplineSet
EndChar

StartChar: C
Encoding: 67 67 15
Width: 1024
VWidth: 0
Flags: MW
LayerCount: 2
Fore
SplineSet
700 1288 m 0,0,1
 754 1288 754 1288 803 1284 c 128,-1,2
 852 1280 852 1280 874 1276 c 2,3,-1
 896 1272 l 1,4,-1
 896 1094 l 1,5,-1
 700 1094 l 2,6,7
 554 1094 554 1094 469 972.5 c 128,-1,8
 384 851 384 851 384 640 c 0,9,10
 384 395 384 395 464.5 290.5 c 128,-1,11
 545 186 545 186 700 186 c 2,12,-1
 896 186 l 1,13,-1
 896 8 l 1,14,15
 821 -8 821 -8 700 -8 c 0,16,17
 559 -8 559 -8 454 25.5 c 128,-1,18
 349 59 349 59 270.5 133 c 128,-1,19
 192 207 192 207 152 334 c 128,-1,20
 112 461 112 461 112 640 c 0,21,22
 112 940 112 940 270 1114 c 128,-1,23
 428 1288 428 1288 700 1288 c 0,0,1
EndSplineSet
EndChar

StartChar: question
Encoding: 63 63 16
Width: 1024
VWidth: 0
Flags: MW
LayerCount: 2
Fore
SplineSet
160 1272 m 1,0,1
 249 1288 249 1288 392 1288 c 0,2,3
 629 1288 629 1288 754.5 1211.5 c 128,-1,4
 880 1135 880 1135 880 964 c 0,5,6
 880 831 880 831 804 754 c 128,-1,7
 728 677 728 677 597 677 c 1,8,-1
 597 512 l 1,9,-1
 341 512 l 1,10,-1
 341 834 l 1,11,12
 480 834 480 834 552 864 c 128,-1,13
 624 894 624 894 624 964 c 128,-1,14
 624 1034 624 1034 565 1064 c 128,-1,15
 506 1094 506 1094 392 1094 c 2,16,-1
 160 1094 l 1,17,-1
 160 1272 l 1,0,1
341 256 m 1,18,-1
 683 256 l 1,19,-1
 683 0 l 1,20,-1
 341 0 l 1,21,-1
 341 256 l 1,18,-1
EndSplineSet
EndChar

StartChar: E
Encoding: 69 69 17
Width: 1024
VWidth: 0
Flags: MW
LayerCount: 2
Fore
SplineSet
128 1280 m 1,0,-1
 928 1280 l 1,1,-1
 928 1094 l 1,2,-1
 384 1094 l 1,3,-1
 384 768 l 1,4,-1
 896 768 l 1,5,-1
 896 582 l 1,6,-1
 384 582 l 1,7,-1
 384 186 l 1,8,-1
 928 186 l 1,9,-1
 928 0 l 1,10,-1
 128 0 l 1,11,-1
 128 1280 l 1,0,-1
EndSplineSet
EndChar

StartChar: N
Encoding: 78 78 18
Width: 1024
VWidth: 0
Flags: MW
LayerCount: 2
Fore
SplineSet
96 1280 m 1,0,-1
 323 1280 l 1,1,-1
 625 640 l 1,2,-1
 720 396 l 1,3,-1
 701 640 l 1,4,-1
 701 1280 l 1,5,-1
 928 1280 l 1,6,-1
 928 0 l 1,7,-1
 701 0 l 1,8,-1
 399 640 l 1,9,-1
 304 884 l 1,10,-1
 323 640 l 1,11,-1
 323 0 l 1,12,-1
 96 0 l 1,13,-1
 96 1280 l 1,0,-1
EndSplineSet
EndChar

StartChar: R
Encoding: 82 82 19
Width: 1024
VWidth: 0
Flags: MW
LayerCount: 2
Fore
SplineSet
96 1280 m 1,0,-1
 567 1280 l 2,1,2
 752 1280 752 1280 848 1199.5 c 128,-1,3
 944 1119 944 1119 944 931 c 0,4,5
 944 693 944 693 740 619 c 1,6,-1
 960 0 l 1,7,-1
 704 0 l 1,8,-1
 512 582 l 1,9,-1
 323 582 l 1,10,-1
 323 0 l 1,11,-1
 96 0 l 1,12,-1
 96 1280 l 1,0,-1
323 1094 m 1,13,-1
 323 768 l 1,14,-1
 473 768 l 2,15,16
 593 768 593 768 655 805.5 c 128,-1,17
 717 843 717 843 717 931 c 128,-1,18
 717 1019 717 1019 679 1056.5 c 128,-1,19
 641 1094 641 1094 567 1094 c 2,20,-1
 323 1094 l 1,13,-1
EndSplineSet
EndChar

StartChar: U
Encoding: 85 85 20
Width: 1024
VWidth: 0
Flags: MW
LayerCount: 2
Fore
SplineSet
96 1280 m 1,0,-1
 352 1280 l 1,1,-1
 352 576 l 2,2,3
 352 347 352 347 387 258.5 c 128,-1,4
 422 170 422 170 512 170 c 128,-1,5
 602 170 602 170 637 258.5 c 128,-1,6
 672 347 672 347 672 576 c 2,7,-1
 672 1280 l 1,8,-1
 928 1280 l 1,9,-1
 928 576 l 2,10,11
 928 406 928 406 907 295.5 c 128,-1,12
 886 185 886 185 836.5 114 c 128,-1,13
 787 43 787 43 709 13.5 c 128,-1,14
 631 -16 631 -16 512 -16 c 128,-1,15
 393 -16 393 -16 315 13.5 c 128,-1,16
 237 43 237 43 187.5 114 c 128,-1,17
 138 185 138 185 117 295.5 c 128,-1,18
 96 406 96 406 96 576 c 2,19,-1
 96 1280 l 1,0,-1
EndSplineSet
EndChar

StartChar: X
Encoding: 88 88 21
Width: 1024
VWidth: 0
Flags: MW
LayerCount: 2
Fore
SplineSet
32 1280 m 1,0,-1
 291 1280 l 1,1,-1
 512 849 l 1,2,-1
 733 1280 l 1,3,-1
 992 1280 l 1,4,-1
 641 640 l 1,5,-1
 992 0 l 1,6,-1
 733 0 l 1,7,-1
 512 431 l 1,8,-1
 291 0 l 1,9,-1
 32 0 l 1,10,-1
 383 640 l 1,11,-1
 32 1280 l 1,0,-1
EndSplineSet
EndChar

StartChar: Z
Encoding: 90 90 22
Width: 1024
VWidth: 0
Flags: MW
LayerCount: 2
Fore
SplineSet
128 1280 m 1,0,-1
 896 1280 l 1,1,-1
 896 1094 l 1,2,-1
 360 186 l 1,3,-1
 928 186 l 1,4,-1
 928 0 l 1,5,-1
 96 0 l 1,6,-1
 96 186 l 1,7,-1
 632 1094 l 1,8,-1
 128 1094 l 1,9,-1
 128 1280 l 1,0,-1
EndSplineSet
EndChar

StartChar: V
Encoding: 86 86 23
Width: 1024
VWidth: 0
Flags: MW
LayerCount: 2
Fore
SplineSet
32 1280 m 1,0,-1
 267 1280 l 1,1,-1
 479 512 l 1,2,-1
 512 316 l 1,3,-1
 545 512 l 1,4,-1
 757 1280 l 1,5,-1
 992 1280 l 1,6,-1
 640 0 l 1,7,-1
 384 0 l 1,8,-1
 32 1280 l 1,0,-1
EndSplineSet
EndChar

StartChar: Y
Encoding: 89 89 24
Width: 1024
VWidth: 0
Flags: MW
LayerCount: 2
Fore
SplineSet
32 1280 m 1,0,-1
 282 1280 l 1,1,-1
 512 777 l 1,2,-1
 742 1280 l 1,3,-1
 992 1280 l 1,4,-1
 640 512 l 1,5,-1
 640 -0 l 1,6,-1
 384 -0 l 1,7,-1
 384 512 l 1,8,-1
 32 1280 l 1,0,-1
EndSplineSet
EndChar

StartChar: G
Encoding: 71 71 25
Width: 1024
VWidth: 0
Flags: MW
LayerCount: 2
Fore
SplineSet
688 1288 m 0,0,1
 745 1288 745 1288 797 1284 c 128,-1,2
 849 1280 849 1280 872.5 1276 c 2,3,-1
 896 1272 l 1,4,-1
 896 1094 l 1,5,-1
 688 1094 l 2,6,7
 532 1094 532 1094 442 972.5 c 128,-1,8
 352 851 352 851 352 640 c 0,9,10
 352 391 352 391 402.5 284.5 c 128,-1,11
 453 178 453 178 550 178 c 0,12,13
 610 178 610 178 641 203.5 c 128,-1,14
 672 229 672 229 672 288 c 2,15,-1
 672 582 l 1,16,-1
 512 582 l 1,17,-1
 512 768 l 1,18,-1
 928 768 l 1,19,-1
 928 288 l 2,20,21
 928 129 928 129 831.5 60.5 c 128,-1,22
 735 -8 735 -8 550 -8 c 0,23,24
 437 -8 437 -8 353.5 25.5 c 128,-1,25
 270 59 270 59 207 133 c 128,-1,26
 144 207 144 207 112 334 c 128,-1,27
 80 461 80 461 80 640 c 0,28,29
 80 940 80 940 243 1114 c 128,-1,30
 406 1288 406 1288 688 1288 c 0,0,1
EndSplineSet
EndChar

StartChar: P
Encoding: 80 80 26
Width: 1024
VWidth: 0
Flags: MW
LayerCount: 2
Fore
SplineSet
96 1280 m 1,0,-1
 555 1280 l 2,1,2
 735 1280 735 1280 839.5 1177 c 128,-1,3
 944 1074 944 1074 944 896 c 128,-1,4
 944 718 944 718 819 615 c 128,-1,5
 694 512 694 512 477 512 c 2,6,-1
 352 512 l 1,7,-1
 352 0 l 1,8,-1
 96 0 l 1,9,-1
 96 1280 l 1,0,-1
352 1094 m 1,10,-1
 352 698 l 1,11,-1
 477 698 l 2,12,13
 571 698 571 698 625.5 751.5 c 128,-1,14
 680 805 680 805 680 896 c 128,-1,15
 680 987 680 987 646.5 1040.5 c 128,-1,16
 613 1094 613 1094 555 1094 c 2,17,-1
 352 1094 l 1,10,-1
EndSplineSet
EndChar

StartChar: Q
Encoding: 81 81 27
Width: 1024
VWidth: 0
Flags: MW
LayerCount: 2
Fore
SplineSet
512 1296 m 128,-1,1
 645 1296 645 1296 731.5 1265.5 c 128,-1,2
 818 1235 818 1235 874 1161.5 c 128,-1,3
 930 1088 930 1088 953 973.5 c 128,-1,4
 976 859 976 859 976 683 c 0,5,6
 976 396 976 396 900.5 265 c 128,-1,7
 825 134 825 134 640 107 c 1,8,-1
 640 -157 l 1,9,-1
 384 -157 l 1,10,-1
 384 107 l 1,11,12
 199 134 199 134 123.5 265 c 128,-1,13
 48 396 48 396 48 683 c 0,14,15
 48 859 48 859 71 973.5 c 128,-1,16
 94 1088 94 1088 150 1161.5 c 128,-1,17
 206 1235 206 1235 292.5 1265.5 c 128,-1,0
 379 1296 379 1296 512 1296 c 128,-1,1
512 1110 m 128,-1,19
 395 1110 395 1110 349.5 1016.5 c 128,-1,20
 304 923 304 923 304 683 c 0,21,22
 304 491 304 491 332 395.5 c 128,-1,23
 360 300 360 300 427 271 c 1,24,-1
 427 683 l 1,25,-1
 597 683 l 1,26,-1
 597 271 l 1,27,28
 664 300 664 300 692 395.5 c 128,-1,29
 720 491 720 491 720 683 c 0,30,31
 720 923 720 923 674.5 1016.5 c 128,-1,18
 629 1110 629 1110 512 1110 c 128,-1,19
EndSplineSet
EndChar

StartChar: S
Encoding: 83 83 28
Width: 1024
VWidth: 0
Flags: MW
LayerCount: 2
Fore
SplineSet
694 1288 m 0,0,1
 750 1288 750 1288 800.5 1284 c 128,-1,2
 851 1280 851 1280 873.5 1276 c 2,3,-1
 896 1272 l 1,4,-1
 896 1094 l 1,5,-1
 694 1094 l 2,6,7
 535 1094 535 1094 451.5 1056 c 128,-1,8
 368 1018 368 1018 368 930 c 0,9,10
 368 872 368 872 400 831.5 c 128,-1,11
 432 791 432 791 482.5 768 c 128,-1,12
 533 745 533 745 594.5 725.5 c 128,-1,13
 656 706 656 706 717.5 679.5 c 128,-1,14
 779 653 779 653 829.5 616 c 128,-1,15
 880 579 880 579 912 511 c 128,-1,16
 944 443 944 443 944 350 c 0,17,18
 944 251 944 251 901.5 181 c 128,-1,19
 859 111 859 111 776 70 c 128,-1,20
 693 29 693 29 582 10.5 c 128,-1,21
 471 -8 471 -8 322 -8 c 0,22,23
 260 -8 260 -8 203.5 -4 c 128,-1,24
 147 -0 147 -0 121.5 4 c 2,25,-1
 96 8 l 1,26,-1
 96 186 l 1,27,-1
 322 186 l 2,28,29
 501 186 501 186 594.5 224 c 128,-1,30
 688 262 688 262 688 350 c 0,31,32
 688 408 688 408 656 448.5 c 128,-1,33
 624 489 624 489 573.5 512 c 128,-1,34
 523 535 523 535 461.5 554.5 c 128,-1,35
 400 574 400 574 338.5 600.5 c 128,-1,36
 277 627 277 627 226.5 664 c 128,-1,37
 176 701 176 701 144 769 c 128,-1,38
 112 837 112 837 112 930 c 0,39,40
 112 1123 112 1123 260.5 1205.5 c 128,-1,41
 409 1288 409 1288 694 1288 c 0,0,1
EndSplineSet
EndChar

StartChar: W
Encoding: 87 87 29
Width: 1024
VWidth: 0
Flags: MW
LayerCount: 2
Fore
SplineSet
32 1280 m 1,0,-1
 237 1280 l 1,1,-1
 290 563 l 1,2,-1
 294 348 l 1,3,-1
 448 768 l 1,4,-1
 576 768 l 1,5,-1
 730 348 l 1,6,-1
 734 563 l 1,7,-1
 787 1280 l 1,8,-1
 992 1280 l 1,9,-1
 896 0 l 1,10,-1
 692 0 l 1,11,-1
 512 436 l 1,12,-1
 332 0 l 1,13,-1
 128 0 l 1,14,-1
 32 1280 l 1,0,-1
EndSplineSet
EndChar

StartChar: M
Encoding: 77 77 30
Width: 1024
VWidth: 0
Flags: MW
LayerCount: 2
Fore
SplineSet
733 1280 m 1,0,-1
 960 1280 l 1,1,-1
 960 0 l 1,2,-1
 733 0 l 1,3,-1
 733 640 l 1,4,-1
 768 997 l 1,5,-1
 576 640 l 1,6,-1
 448 640 l 1,7,-1
 256 997 l 1,8,-1
 291 640 l 1,9,-1
 291 0 l 1,10,-1
 64 0 l 1,11,-1
 64 1280 l 1,12,-1
 291 1280 l 1,13,-1
 512 924 l 1,14,-1
 733 1280 l 1,0,-1
EndSplineSet
EndChar

StartChar: semicolon
Encoding: 59 59 31
Width: 1024
VWidth: 0
Flags: MW
LayerCount: 2
Fore
SplineSet
341 1184 m 1,0,-1
 683 1184 l 1,1,-1
 683 864 l 1,2,-1
 341 864 l 1,3,-1
 341 1184 l 1,0,-1
341 416 m 1,4,-1
 683 416 l 1,5,-1
 683 159.994140625 l 2,6,7
 682.986572538 155.2263696 682.986572538 155.2263696 681.9727952 146.322246395 c 128,-1,8
 680.959017862 137.418123191 680.959017862 137.418123191 671.7170798 108.00658173 c 128,-1,9
 662.475141738 78.5950402686 662.475141738 78.5950402686 646.406435825 47.1110745203 c 128,-1,10
 630.337729912 15.6271087719 630.337729912 15.6271087719 595.10954855 -32.2457620203 c 128,-1,11
 559.881367188 -80.1186328125 559.881367188 -80.1186328125 512 -128 c 2,12,-1
 384 -256 l 1,13,-1
 256 -140 l 1,14,-1
 384 -12 l 2,15,16
 441 45 441 45 473 88 c 128,-1,17
 505 131 505 131 508.5 145.5 c 2,18,-1
 512 160 l 1,19,-1
 341 160 l 1,20,-1
 341 416 l 1,4,-1
EndSplineSet
EndChar

StartChar: less
Encoding: 60 60 32
Width: 1024
VWidth: 0
Flags: MW
LayerCount: 2
Fore
SplineSet
928 1024 m 1,0,-1
 395 640 l 1,1,-1
 928 256 l 1,2,-1
 795 72 l 1,3,-1
 96 576 l 1,4,-1
 96 704 l 1,5,-1
 795 1208 l 1,6,-1
 928 1024 l 1,0,-1
EndSplineSet
EndChar

StartChar: equal
Encoding: 61 61 33
Width: 1024
VWidth: 0
Flags: MW
LayerCount: 2
Fore
SplineSet
96 946 m 1,0,-1
 928 946 l 1,1,-1
 928 742 l 1,2,-1
 96 742 l 1,3,-1
 96 946 l 1,0,-1
96 538 m 1,4,-1
 928 538 l 1,5,-1
 928 334 l 1,6,-1
 96 334 l 1,7,-1
 96 538 l 1,4,-1
EndSplineSet
EndChar

StartChar: bracketleft
Encoding: 91 91 34
Width: 1024
VWidth: 0
Flags: MW
LayerCount: 2
Fore
SplineSet
822 1251 m 1,0,-1
 512 1251 l 1,1,-1
 512 -70 l 1,2,-1
 822 -70 l 1,3,-1
 822 -256 l 1,4,-1
 256 -256 l 1,5,-1
 256 1437 l 1,6,-1
 822 1437 l 1,7,-1
 822 1251 l 1,0,-1
EndSplineSet
EndChar

StartChar: bracketright
Encoding: 93 93 35
Width: 1024
VWidth: 0
Flags: MW
LayerCount: 2
Fore
SplineSet
202 1251 m 1,0,-1
 202 1437 l 1,1,-1
 768 1437 l 1,2,-1
 768 -256 l 1,3,-1
 202 -256 l 1,4,-1
 202 -70 l 1,5,-1
 512 -70 l 1,6,-1
 512 1251 l 1,7,-1
 202 1251 l 1,0,-1
EndSplineSet
EndChar

StartChar: greater
Encoding: 62 62 36
Width: 1024
VWidth: 0
Flags: MW
LayerCount: 2
Fore
SplineSet
96 1024 m 1,0,-1
 229 1208 l 1,1,-1
 928 704 l 1,2,-1
 928 576 l 1,3,-1
 229 72 l 1,4,-1
 96 256 l 1,5,-1
 629 640 l 1,6,-1
 96 1024 l 1,0,-1
EndSplineSet
EndChar

StartChar: at
Encoding: 64 64 37
Width: 1024
VWidth: 0
Flags: MW
LayerCount: 2
Fore
SplineSet
563 1296 m 0,0,1
 757 1296 757 1296 858.5 1217 c 128,-1,2
 960 1138 960 1138 960 954 c 2,3,-1
 960 512 l 2,4,5
 960 407 960 407 915.5 366.5 c 128,-1,6
 871 326 871 326 756 326 c 2,7,-1
 659 326 l 2,8,9
 524 326 524 326 445.5 418 c 128,-1,10
 367 510 367 510 367 670 c 0,11,12
 367 802 367 802 445.5 878 c 128,-1,13
 524 954 524 954 659 954 c 2,14,-1
 756 954 l 1,15,16
 756 983 756 983 753 1005.5 c 128,-1,17
 750 1028 750 1028 742 1044 c 128,-1,18
 734 1060 734 1060 727 1071.5 c 128,-1,19
 720 1083 720 1083 704 1090.5 c 128,-1,20
 688 1098 688 1098 677 1102 c 128,-1,21
 666 1106 666 1106 643 1107.5 c 128,-1,22
 620 1109 620 1109 606 1109.5 c 128,-1,23
 592 1110 592 1110 563 1110 c 0,24,25
 489 1110 489 1110 433 1085.5 c 128,-1,26
 377 1061 377 1061 335.5 1007.5 c 128,-1,27
 294 954 294 954 273 862 c 128,-1,28
 252 770 252 770 252 640 c 0,29,30
 252 395 252 395 348.5 290.5 c 128,-1,31
 445 186 445 186 631 186 c 2,32,-1
 896 186 l 1,33,-1
 896 8 l 1,34,35
 795 -8 795 -8 631 -8 c 0,36,37
 520 -8 520 -8 432 12.5 c 128,-1,38
 344 33 344 33 271 80.5 c 128,-1,39
 198 128 198 128 149.5 202 c 128,-1,40
 101 276 101 276 74.5 386 c 128,-1,41
 48 496 48 496 48 640 c 0,42,43
 48 785 48 785 71.5 896.5 c 128,-1,44
 95 1008 95 1008 137.5 1083.5 c 128,-1,45
 180 1159 180 1159 244.5 1206.5 c 128,-1,46
 309 1254 309 1254 387 1275 c 128,-1,47
 465 1296 465 1296 563 1296 c 0,0,1
659 768 m 2,48,49
 618 768 618 768 594.5 742 c 128,-1,50
 571 716 571 716 571 670 c 0,51,52
 571 597 571 597 594.5 554.5 c 128,-1,53
 618 512 618 512 659 512 c 2,54,-1
 756 512 l 1,55,-1
 756 768 l 1,56,-1
 659 768 l 2,48,49
EndSplineSet
EndChar

StartChar: percent
Encoding: 37 37 38
Width: 1024
VWidth: 0
Flags: MW
LayerCount: 2
Fore
SplineSet
96 1280 m 1,0,-1
 384 1280 l 1,1,-1
 384 960 l 1,2,-1
 96 960 l 1,3,-1
 96 1280 l 1,0,-1
960 1280 m 1,4,-1
 318 0 l 1,5,-1
 64 0 l 1,6,-1
 706 1280 l 1,7,-1
 960 1280 l 1,4,-1
640 320 m 1,8,-1
 928 320 l 1,9,-1
 928 0 l 1,10,-1
 640 0 l 1,11,-1
 640 320 l 1,8,-1
EndSplineSet
EndChar

StartChar: ampersand
Encoding: 38 38 39
Width: 1024
VWidth: 0
Flags: MW
LayerCount: 2
Fore
SplineSet
525 1284 m 0,0,1
 554 1284 554 1284 580 1282 c 128,-1,2
 606 1280 606 1280 618 1278 c 2,3,-1
 630 1276 l 1,4,-1
 630 1094 l 1,5,-1
 525 1094 l 2,6,7
 442 1094 442 1094 398.5 1056.5 c 128,-1,8
 355 1019 355 1019 355 931 c 0,9,10
 355 855 355 855 377.5 811.5 c 128,-1,11
 400 768 400 768 438 768 c 2,12,-1
 573 768 l 1,13,-1
 573 969 l 1,14,-1
 800 969 l 1,15,-1
 800 768 l 1,16,-1
 960 768 l 1,17,-1
 960 582 l 1,18,-1
 800 582 l 1,19,-1
 800 332 l 2,20,21
 800 249 800 249 840.5 213.5 c 128,-1,22
 881 178 881 178 960 178 c 1,23,-1
 960 -8 l 1,24,25
 689 -8 689 -8 610 148 c 1,26,-1
 512 -8 l 1,27,28
 292 -8 292 -8 178 82.5 c 128,-1,29
 64 173 64 173 64 384 c 0,30,31
 64 455 64 455 79.5 516 c 128,-1,32
 95 577 95 577 117.5 613.5 c 128,-1,33
 140 650 140 650 162 676 c 128,-1,34
 184 702 184 702 199.5 712 c 2,35,-1
 215 722 l 1,36,37
 211 724 211 724 205.5 728.5 c 128,-1,38
 200 733 200 733 185 750.5 c 128,-1,39
 170 768 170 768 158.5 789.5 c 128,-1,40
 147 811 147 811 137.5 849 c 128,-1,41
 128 887 128 887 128 931 c 0,42,43
 128 1121 128 1121 229.5 1202.5 c 128,-1,44
 331 1284 331 1284 525 1284 c 0,0,1
399 582 m 2,45,46
 349 582 349 582 320 529 c 128,-1,47
 291 476 291 476 291 384 c 128,-1,48
 291 292 291 292 350 239 c 128,-1,49
 409 186 409 186 512 186 c 2,50,-1
 594 186 l 1,51,52
 573 247 573 247 573 332 c 2,53,-1
 573 582 l 1,54,-1
 399 582 l 2,45,46
EndSplineSet
EndChar

StartChar: parenright
Encoding: 41 41 40
Width: 1024
VWidth: 0
Flags: MW
LayerCount: 2
Fore
SplineSet
397 1437 m 1,0,1
 405 1432 405 1432 419 1421.5 c 128,-1,2
 433 1411 433 1411 473 1373.5 c 128,-1,3
 513 1336 513 1336 549.5 1292 c 128,-1,4
 586 1248 586 1248 631 1174.5 c 128,-1,5
 676 1101 676 1101 708 1020 c 128,-1,6
 740 939 740 939 762 826 c 128,-1,7
 784 713 784 713 784 591 c 128,-1,8
 784 469 784 469 762.5 356.5 c 128,-1,9
 741 244 741 244 707 161.5 c 128,-1,10
 673 79 673 79 631.5 7.5 c 128,-1,11
 590 -64 590 -64 549 -111 c 128,-1,12
 508 -158 508 -158 474 -192 c 128,-1,13
 440 -226 440 -226 418.5 -241 c 2,14,-1
 397 -256 l 1,15,-1
 170 -256 l 1,16,17
 177 -251 177 -251 190 -240.5 c 128,-1,18
 203 -230 203 -230 240.5 -192.5 c 128,-1,19
 278 -155 278 -155 311.5 -111 c 128,-1,20
 345 -67 345 -67 386.5 6.5 c 128,-1,21
 428 80 428 80 457.5 161.5 c 128,-1,22
 487 243 487 243 507.5 356 c 128,-1,23
 528 469 528 469 528 591 c 128,-1,24
 528 713 528 713 508.5 825.5 c 128,-1,25
 489 938 489 938 457 1020.5 c 128,-1,26
 425 1103 425 1103 387 1174.5 c 128,-1,27
 349 1246 349 1246 311 1293 c 128,-1,28
 273 1340 273 1340 241 1373.5 c 128,-1,29
 209 1407 209 1407 189.5 1422 c 2,30,-1
 170 1437 l 1,31,-1
 397 1437 l 1,0,1
EndSplineSet
EndChar

StartChar: four
Encoding: 52 52 41
Width: 1024
VWidth: 0
Flags: MW
LayerCount: 2
Fore
SplineSet
573 1280 m 1,0,-1
 800 1280 l 1,1,-1
 800 442 l 1,2,-1
 960 442 l 1,3,-1
 960 256 l 1,4,-1
 800 256 l 1,5,-1
 800 0 l 1,6,-1
 573 0 l 1,7,-1
 573 256 l 1,8,-1
 64 256 l 1,9,-1
 64 442 l 1,10,-1
 573 1280 l 1,0,-1
573 887 m 1,11,-1
 303 442 l 1,12,-1
 573 442 l 1,13,-1
 573 887 l 1,11,-1
EndSplineSet
EndChar

StartChar: comma
Encoding: 44 44 42
Width: 1024
VWidth: 0
Flags: MW
LayerCount: 2
Fore
SplineSet
341 416 m 1,0,-1
 683 416 l 1,1,-1
 683 160 l 2,2,3
 683 155 683 155 682 146 c 128,-1,4
 681 137 681 137 671.5 108 c 128,-1,5
 662 79 662 79 646 47.5 c 128,-1,6
 630 16 630 16 595 -32 c 128,-1,7
 560 -80 560 -80 512 -128 c 2,8,-1
 384 -256 l 1,9,-1
 256 -140 l 1,10,-1
 384 -12 l 2,11,12
 441 45 441 45 473 88 c 128,-1,13
 505 131 505 131 508.5 145.5 c 2,14,-1
 512 160 l 1,15,-1
 341 160 l 1,16,-1
 341 416 l 1,0,-1
EndSplineSet
EndChar

StartChar: one
Encoding: 49 49 43
Width: 1024
VWidth: 0
Flags: MW
LayerCount: 2
Fore
SplineSet
475 1280 m 1,0,-1
 731 1280 l 1,1,-1
 731 0 l 1,2,-1
 475 0 l 1,3,-1
 475 991 l 1,4,-1
 267 783 l 1,5,-1
 123 928 l 1,6,-1
 475 1280 l 1,0,-1
EndSplineSet
EndChar

StartChar: exclam
Encoding: 33 33 44
Width: 1024
VWidth: 0
Flags: MW
LayerCount: 2
Fore
SplineSet
384 1280 m 1,0,-1
 640 1280 l 1,1,-1
 640 896 l 1,2,-1
 614 512 l 1,3,-1
 410 512 l 1,4,-1
 384 896 l 1,5,-1
 384 1280 l 1,0,-1
341 256 m 1,6,-1
 683 256 l 1,7,-1
 683 0 l 1,8,-1
 341 0 l 1,9,-1
 341 256 l 1,6,-1
EndSplineSet
EndChar

StartChar: quotedbl
Encoding: 34 34 45
Width: 1024
VWidth: 0
Flags: MW
LayerCount: 2
Fore
SplineSet
163 1280 m 1,0,-1
 419 1280 l 1,1,-1
 384 768 l 1,2,-1
 198 768 l 1,3,-1
 163 1280 l 1,0,-1
605 1280 m 1,4,-1
 861 1280 l 1,5,-1
 826 768 l 1,6,-1
 640 768 l 1,7,-1
 605 1280 l 1,4,-1
EndSplineSet
EndChar

StartChar: numbersign
Encoding: 35 35 46
Width: 1024
VWidth: 0
Flags: MW
LayerCount: 2
Fore
SplineSet
206 1280 m 1,0,-1
 410 1280 l 1,1,-1
 410 977 l 1,2,-1
 614 977 l 1,3,-1
 614 1280 l 1,4,-1
 818 1280 l 1,5,-1
 818 977 l 1,6,-1
 960 977 l 1,7,-1
 960 791 l 1,8,-1
 818 791 l 1,9,-1
 818 489 l 1,10,-1
 960 489 l 1,11,-1
 960 303 l 1,12,-1
 818 303 l 1,13,-1
 818 0 l 1,14,-1
 614 0 l 1,15,-1
 614 303 l 1,16,-1
 410 303 l 1,17,-1
 410 0 l 1,18,-1
 206 0 l 1,19,-1
 206 303 l 1,20,-1
 64 303 l 1,21,-1
 64 489 l 1,22,-1
 206 489 l 1,23,-1
 206 791 l 1,24,-1
 64 791 l 1,25,-1
 64 977 l 1,26,-1
 206 977 l 1,27,-1
 206 1280 l 1,0,-1
614 791 m 1,28,-1
 410 791 l 1,29,-1
 410 489 l 1,30,-1
 614 489 l 1,31,-1
 614 791 l 1,28,-1
EndSplineSet
EndChar

StartChar: parenleft
Encoding: 40 40 47
Width: 1024
VWidth: 0
Flags: MW
LayerCount: 2
Fore
SplineSet
627 1437 m 1,0,-1
 854 1437 l 1,1,2
 847 1432 847 1432 834 1421.5 c 128,-1,3
 821 1411 821 1411 783.5 1373.5 c 128,-1,4
 746 1336 746 1336 712.5 1292 c 128,-1,5
 679 1248 679 1248 637.5 1174.5 c 128,-1,6
 596 1101 596 1101 566.5 1020 c 128,-1,7
 537 939 537 939 516.5 826 c 128,-1,8
 496 713 496 713 496 591 c 128,-1,9
 496 469 496 469 515.5 356.5 c 128,-1,10
 535 244 535 244 567 161.5 c 128,-1,11
 599 79 599 79 637 7.5 c 128,-1,12
 675 -64 675 -64 713 -111 c 128,-1,13
 751 -158 751 -158 783 -192 c 128,-1,14
 815 -226 815 -226 834.5 -241 c 2,15,-1
 854 -256 l 1,16,-1
 627 -256 l 1,17,18
 619 -251 619 -251 605 -240.5 c 128,-1,19
 591 -230 591 -230 551 -192.5 c 128,-1,20
 511 -155 511 -155 474.5 -111 c 128,-1,21
 438 -67 438 -67 393 6.5 c 128,-1,22
 348 80 348 80 316 161.5 c 128,-1,23
 284 243 284 243 262 356 c 128,-1,24
 240 469 240 469 240 591 c 128,-1,25
 240 713 240 713 261.5 825.5 c 128,-1,26
 283 938 283 938 317 1020.5 c 128,-1,27
 351 1103 351 1103 392.5 1174.5 c 128,-1,28
 434 1246 434 1246 475 1293 c 128,-1,29
 516 1340 516 1340 550 1373.5 c 128,-1,30
 584 1407 584 1407 605.5 1422 c 2,31,-1
 627 1437 l 1,0,-1
EndSplineSet
EndChar

StartChar: eight
Encoding: 56 56 48
Width: 1024
VWidth: 0
Flags: MW
LayerCount: 2
Fore
SplineSet
112 952 m 0,0,1
 112 1112 112 1112 219.5 1204 c 128,-1,2
 327 1296 327 1296 512 1296 c 128,-1,3
 697 1296 697 1296 804.5 1204 c 128,-1,4
 912 1112 912 1112 912 952 c 0,5,6
 912 908 912 908 891.5 865.5 c 128,-1,7
 871 823 871 823 841.5 793.5 c 128,-1,8
 812 764 812 764 782.5 741.5 c 128,-1,9
 753 719 753 719 732.5 708 c 2,10,-1
 712 697 l 1,11,12
 721 692 721 692 737 682.5 c 128,-1,13
 753 673 753 673 793 640.5 c 128,-1,14
 833 608 833 608 863.5 572.5 c 128,-1,15
 894 537 894 537 919 482 c 128,-1,16
 944 427 944 427 944 371 c 0,17,18
 944 192 944 192 828 88 c 128,-1,19
 712 -16 712 -16 512 -16 c 128,-1,20
 312 -16 312 -16 196 88 c 128,-1,21
 80 192 80 192 80 371 c 0,22,23
 80 427 80 427 104 481.5 c 128,-1,24
 128 536 128 536 162 573 c 128,-1,25
 196 610 196 610 230 639.5 c 128,-1,26
 264 669 264 669 288 683 c 2,27,-1
 312 697 l 1,28,29
 304 701 304 701 290.5 708.5 c 128,-1,30
 277 716 277 716 242.5 741 c 128,-1,31
 208 766 208 766 181.5 794 c 128,-1,32
 155 822 155 822 133.5 865 c 128,-1,33
 112 908 112 908 112 952 c 0,0,1
339 952 m 0,34,35
 339 920 339 920 357 889.5 c 128,-1,36
 375 859 375 859 400 838 c 128,-1,37
 425 817 425 817 450.5 800.5 c 128,-1,38
 476 784 476 784 494 776 c 2,39,-1
 512 768 l 1,40,41
 519 771 519 771 530.5 776.5 c 128,-1,42
 542 782 542 782 572 800 c 128,-1,43
 602 818 602 818 625 838 c 128,-1,44
 648 858 648 858 666.5 889 c 128,-1,45
 685 920 685 920 685 952 c 0,46,47
 685 1025 685 1025 638.5 1067.5 c 128,-1,48
 592 1110 592 1110 512 1110 c 128,-1,49
 432 1110 432 1110 385.5 1067.5 c 128,-1,50
 339 1025 339 1025 339 952 c 0,34,35
512 582 m 1,51,52
 505 579 505 579 493 572.5 c 128,-1,53
 481 566 481 566 450.5 545 c 128,-1,54
 420 524 420 524 397 501 c 128,-1,55
 374 478 374 478 355 442.5 c 128,-1,56
 336 407 336 407 336 371 c 0,57,58
 336 278 336 278 383 224 c 128,-1,59
 430 170 430 170 512 170 c 128,-1,60
 594 170 594 170 641 224 c 128,-1,61
 688 278 688 278 688 371 c 0,62,63
 688 407 688 407 670 442.5 c 128,-1,64
 652 478 652 478 626 502 c 128,-1,65
 600 526 600 526 574 545 c 128,-1,66
 548 564 548 564 530 573 c 2,67,-1
 512 582 l 1,51,52
EndSplineSet
EndChar

StartChar: six
Encoding: 54 54 49
Width: 1024
VWidth: 0
Flags: MW
LayerCount: 2
Fore
SplineSet
512 -16 m 128,-1,1
 327 -16 327 -16 219.5 91.5 c 128,-1,2
 112 199 112 199 112 384 c 0,3,4
 112 545.1859375 112 545.1859375 153.79296875 631.34375 c 2,5,-1
 468 1280 l 1,6,-1
 752 1280 l 1,7,-1
 512 784 l 1,8,9
 696 784 696 784 804 675 c 128,-1,10
 912 566 912 566 912 384 c 0,11,12
 912 199 912 199 804.5 91.5 c 128,-1,0
 697 -16 697 -16 512 -16 c 128,-1,1
512 170 m 128,-1,14
 592 170 592 170 638.5 227.5 c 128,-1,15
 685 285 685 285 685 384 c 128,-1,16
 685 483 685 483 638.5 540.5 c 128,-1,17
 592 598 592 598 512 598 c 0,18,19
 414 598 414 598 376.5 551.5 c 128,-1,20
 339 505 339 505 339 384 c 0,21,22
 339 285 339 285 385.5 227.5 c 128,-1,13
 432 170 432 170 512 170 c 128,-1,14
EndSplineSet
EndChar

StartChar: three
Encoding: 51 51 50
Width: 1024
VWidth: 0
Flags: MW
LayerCount: 2
Fore
SplineSet
337 1288 m 0,0,1
 467 1288 467 1288 564 1270.5 c 128,-1,2
 661 1253 661 1253 733.5 1214 c 128,-1,3
 806 1175 806 1175 843 1108 c 128,-1,4
 880 1041 880 1041 880 946 c 0,5,6
 880 890 880 890 863.5 844 c 128,-1,7
 847 798 847 798 824 772 c 128,-1,8
 801 746 801 746 778 728 c 128,-1,9
 755 710 755 710 738.5 703.5 c 2,10,-1
 722 697 l 1,11,12
 730 694 730 694 742.5 688.5 c 128,-1,13
 755 683 755 683 788 658.5 c 128,-1,14
 821 634 821 634 846 602.5 c 128,-1,15
 871 571 871 571 891.5 512.5 c 128,-1,16
 912 454 912 454 912 384 c 0,17,18
 912 173 912 173 763.5 82.5 c 128,-1,19
 615 -8 615 -8 330 -8 c 0,20,21
 274 -8 274 -8 223.5 -4 c 128,-1,22
 173 -0 173 -0 150.5 4 c 2,23,-1
 128 8 l 1,24,-1
 128 186 l 1,25,-1
 330 186 l 2,26,27
 490 186 490 186 573 231.5 c 128,-1,28
 656 277 656 277 656 384 c 0,29,30
 656 476 656 476 590 529 c 128,-1,31
 524 582 524 582 409 582 c 2,32,-1
 256 582 l 1,33,-1
 256 768 l 1,34,-1
 397 768 l 2,35,36
 502 768 502 768 563 816 c 128,-1,37
 624 864 624 864 624 946 c 0,38,39
 624 1026 624 1026 550.5 1060 c 128,-1,40
 477 1094 477 1094 337 1094 c 2,41,-1
 160 1094 l 1,42,-1
 160 1272 l 1,43,44
 228 1288 228 1288 337 1288 c 0,0,1
EndSplineSet
EndChar

StartChar: five
Encoding: 53 53 51
Width: 1024
VWidth: 0
Flags: MW
LayerCount: 2
Fore
SplineSet
416 1094 m 1,0,-1
 416 826 l 1,1,-1
 512 826 l 2,2,3
 697 826 697 826 804.5 729.5 c 128,-1,4
 912 633 912 633 912 467 c 0,5,6
 912 336 912 336 872.5 243 c 128,-1,7
 833 150 833 150 755.5 95.5 c 128,-1,8
 678 41 678 41 574 16.5 c 128,-1,9
 470 -8 470 -8 330 -8 c 0,10,11
 266 -8 266 -8 215.5 -4 c 128,-1,12
 165 -0 165 -0 146.5 4 c 2,13,-1
 128 8 l 1,14,-1
 128 186 l 1,15,-1
 330 186 l 2,16,17
 490 186 490 186 573 251 c 128,-1,18
 656 316 656 316 656 467 c 0,19,20
 656 547 656 547 617.5 593.5 c 128,-1,21
 579 640 579 640 512 640 c 2,22,-1
 160 640 l 1,23,-1
 160 1280 l 1,24,-1
 864 1280 l 1,25,-1
 864 1094 l 1,26,-1
 416 1094 l 1,0,-1
EndSplineSet
EndChar

StartChar: colon
Encoding: 58 58 52
Width: 1024
VWidth: 0
Flags: MW
LayerCount: 2
Fore
SplineSet
341 1184 m 1,0,-1
 683 1184 l 1,1,-1
 683 864 l 1,2,-1
 341 864 l 1,3,-1
 341 1184 l 1,0,-1
341 416 m 1,4,-1
 683 416 l 1,5,-1
 683 96 l 1,6,-1
 341 96 l 1,7,-1
 341 416 l 1,4,-1
EndSplineSet
EndChar

StartChar: period
Encoding: 46 46 53
Width: 1024
VWidth: 0
Flags: MW
LayerCount: 2
Fore
SplineSet
683 0 m 1,0,-1
 341 0 l 1,1,-1
 341 320 l 1,2,-1
 683 320 l 1,3,-1
 683 0 l 1,0,-1
EndSplineSet
EndChar

StartChar: plus
Encoding: 43 43 54
Width: 1024
VWidth: 0
Flags: MW
LayerCount: 2
Fore
SplineSet
398 1088 m 1,0,-1
 626 1088 l 1,1,-1
 626 742 l 1,2,-1
 960 742 l 1,3,-1
 960 538 l 1,4,-1
 626 538 l 1,5,-1
 626 192 l 1,6,-1
 398 192 l 1,7,-1
 398 538 l 1,8,-1
 64 538 l 1,9,-1
 64 742 l 1,10,-1
 398 742 l 1,11,-1
 398 1088 l 1,0,-1
EndSplineSet
EndChar

StartChar: asterisk
Encoding: 42 42 55
Width: 1024
VWidth: 0
Flags: MW
LayerCount: 2
Fore
SplineSet
384 1280 m 1,0,-1
 640 1280 l 1,1,-1
 581 929 l 1,2,-1
 898 1093 l 1,3,-1
 977 850 l 1,4,-1
 625 797 l 1,5,-1
 879 547 l 1,6,-1
 673 397 l 1,7,-1
 512 717 l 1,8,-1
 351 397 l 1,9,-1
 145 547 l 1,10,-1
 399 797 l 1,11,-1
 47 850 l 1,12,-1
 126 1093 l 1,13,-1
 443 929 l 1,14,-1
 384 1280 l 1,0,-1
EndSplineSet
EndChar

StartChar: nine
Encoding: 57 57 56
Width: 1024
VWidth: 0
Flags: MW
LayerCount: 2
Fore
SplineSet
512 1296 m 128,-1,1
 697 1296 697 1296 804.5 1188.5 c 128,-1,2
 912 1081 912 1081 912 896 c 0,3,4
 912 734.8140625 912 734.8140625 870.20703125 648.65625 c 2,5,-1
 556 0 l 1,6,-1
 272 0 l 1,7,-1
 512 496 l 1,8,9
 328 496 328 496 220 605 c 128,-1,10
 112 714 112 714 112 896 c 0,11,12
 112 1081 112 1081 219.5 1188.5 c 128,-1,0
 327 1296 327 1296 512 1296 c 128,-1,1
512 1110 m 128,-1,14
 432 1110 432 1110 385.5 1052.5 c 128,-1,15
 339 995 339 995 339 896 c 128,-1,16
 339 797 339 797 385.5 739.5 c 128,-1,17
 432 682 432 682 512 682 c 0,18,19
 610 682 610 682 647.5 728.5 c 128,-1,20
 685 775 685 775 685 896 c 0,21,22
 685 995 685 995 638.5 1052.5 c 128,-1,13
 592 1110 592 1110 512 1110 c 128,-1,14
EndSplineSet
EndChar

StartChar: dollar
Encoding: 36 36 57
Width: 1024
VWidth: 0
Flags: MW
LayerCount: 2
Fore
SplineSet
384 1437 m 1,0,-1
 640 1437 l 1,1,-1
 640 1218 l 1,2,-1
 683 1218 l 2,3,4
 742 1218 742 1218 795 1214 c 128,-1,5
 848 1210 848 1210 872 1206 c 2,6,-1
 896 1202 l 1,7,-1
 896 1024 l 1,8,-1
 640 1024 l 1,9,-1
 640 701 l 1,10,11
 693 686 693 686 731 671.5 c 128,-1,12
 769 657 769 657 812 631 c 128,-1,13
 855 605 855 605 881.5 574 c 128,-1,14
 908 543 908 543 926 494.5 c 128,-1,15
 944 446 944 446 944 385 c 0,16,17
 944 263 944 263 866.5 191 c 128,-1,18
 789 119 789 119 640 88 c 1,19,-1
 640 -157 l 1,20,-1
 384 -157 l 1,21,-1
 384 62 l 1,22,-1
 333 62 l 2,23,24
 268 62 268 62 209 66 c 128,-1,25
 150 70 150 70 123 74 c 2,26,-1
 96 78 l 1,27,-1
 96 256 l 1,28,-1
 384 256 l 1,29,-1
 384 588 l 1,30,31
 324 607 324 607 281 628 c 128,-1,32
 238 649 238 649 196.5 684 c 128,-1,33
 155 719 155 719 133.5 772 c 128,-1,34
 112 825 112 825 112 895 c 0,35,36
 112 1124 112 1124 384 1189 c 1,37,-1
 384 1437 l 1,0,-1
470 1007 m 1,38,39
 339 978 339 978 339 895 c 0,40,41
 339 841 339 841 373 807.5 c 128,-1,42
 407 774 407 774 470 751 c 1,43,-1
 470 1007 l 1,38,39
554 540 m 1,44,-1
 554 270 l 1,45,46
 717 298 717 298 717 385 c 0,47,48
 717 445 717 445 675 480 c 128,-1,49
 633 515 633 515 554 540 c 1,44,-1
EndSplineSet
EndChar

StartChar: quotesingle
Encoding: 39 39 58
Width: 1024
VWidth: 0
Flags: MW
LayerCount: 2
Fore
SplineSet
384 1280 m 1,0,-1
 640 1280 l 1,1,-1
 605 768 l 1,2,-1
 419 768 l 1,3,-1
 384 1280 l 1,0,-1
EndSplineSet
EndChar

StartChar: zero
Encoding: 48 48 59
Width: 1024
VWidth: 0
Flags: MW
LayerCount: 2
Fore
SplineSet
512 1296 m 128,-1,1
 712 1296 712 1296 828 1120 c 128,-1,2
 944 944 944 944 944 640 c 128,-1,3
 944 336 944 336 828 160 c 128,-1,4
 712 -16 712 -16 512 -16 c 128,-1,5
 312 -16 312 -16 196 160 c 128,-1,6
 80 336 80 336 80 640 c 128,-1,7
 80 944 80 944 196 1120 c 128,-1,0
 312 1296 312 1296 512 1296 c 128,-1,1
512 1110 m 128,-1,9
 430 1110 430 1110 383 984 c 128,-1,10
 336 858 336 858 336 640 c 128,-1,11
 336 422 336 422 383 296 c 128,-1,12
 430 170 430 170 512 170 c 128,-1,13
 594 170 594 170 641 296 c 128,-1,14
 688 422 688 422 688 640 c 128,-1,15
 688 858 688 858 641 984 c 128,-1,8
 594 1110 594 1110 512 1110 c 128,-1,9
419 768 m 1,16,-1
 605 768 l 1,17,-1
 605 512 l 1,18,-1
 419 512 l 1,19,-1
 419 768 l 1,16,-1
EndSplineSet
EndChar

StartChar: two
Encoding: 50 50 60
Width: 1024
VWidth: 0
Flags: MW
LayerCount: 2
Fore
SplineSet
512 1296 m 0,0,1
 682 1296 682 1296 781 1197.5 c 128,-1,2
 880 1099 880 1099 880 930 c 0,3,4
 880 894.401964403 880 894.401964403 874.11834785 861.463559156 c 128,-1,5
 868.236695701 828.52515391 868.236695701 828.52515391 852.114358855 792.085309659 c 128,-1,6
 835.99202201 755.645465408 835.99202201 755.645465408 821.818479867 728.359546208 c 128,-1,7
 807.644937724 701.073627008 807.644937724 701.073627008 776.196679457 656.711467066 c 128,-1,8
 744.748421191 612.349307124 744.748421191 612.349307124 724.070369696 584.973306697 c 128,-1,9
 703.392318202 557.59730627 703.392318202 557.59730627 659.396484375 500.908203125 c 2,10,-1
 415 186 l 1,11,-1
 896 186 l 1,12,-1
 896 0 l 1,13,-1
 128 0 l 1,14,-1
 128 186 l 1,15,-1
 480 640 l 2,16,17
 536 712 536 712 560 746.5 c 128,-1,18
 584 781 584 781 604 830.5 c 128,-1,19
 624 880 624 880 624 930 c 0,20,21
 624 1013 624 1013 594 1061.5 c 128,-1,22
 564 1110 564 1110 512 1110 c 0,23,24
 453 1110 453 1110 418.5 1061.5 c 128,-1,25
 384 1013 384 1013 384 930 c 1,26,-1
 128 930 l 1,27,28
 128 1099 128 1099 231 1197.5 c 128,-1,29
 334 1296 334 1296 512 1296 c 0,0,1
EndSplineSet
EndChar

StartChar: hyphen
Encoding: 45 45 61
Width: 1024
VWidth: 0
Flags: MW
LayerCount: 2
Fore
SplineSet
192 742 m 1,0,-1
 832 742 l 1,1,-1
 832 538 l 1,2,-1
 192 538 l 1,3,-1
 192 742 l 1,0,-1
EndSplineSet
EndChar

StartChar: seven
Encoding: 55 55 62
Width: 1024
VWidth: 0
Flags: MW
LayerCount: 2
Fore
SplineSet
928 1280 m 1,0,-1
 928 1094 l 1,1,-1
 512 0 l 1,2,-1
 238 0 l 1,3,-1
 654 1094 l 1,4,-1
 96 1094 l 1,5,-1
 96 1280 l 1,6,-1
 928 1280 l 1,0,-1
EndSplineSet
EndChar

StartChar: grave
Encoding: 96 96 64
Width: 1024
VWidth: 0
Flags: W
LayerCount: 2
Fore
SplineSet
253 1102 m 1,0,-1
 434 1283 l 1,1,-1
 771 896 l 1,2,-1
 640 765 l 1,3,-1
 253 1102 l 1,0,-1
EndSplineSet
EndChar

StartChar: a
Encoding: 97 97 65
Width: 1024
VWidth: 0
Flags: W
LayerCount: 2
Fore
SplineSet
375 1032 m 0,0,1
 646 1032 646 1032 787 954 c 128,-1,2
 928 876 928 876 928 694 c 2,3,-1
 928 256 l 2,4,5
 928 118 928 118 862.5 59 c 128,-1,6
 797 0 797 0 672 0 c 2,7,-1
 464 0 l 2,8,9
 285 0 285 0 182.5 86 c 128,-1,10
 80 172 80 172 80 324 c 0,11,12
 80 452 80 452 183.5 528.5 c 128,-1,13
 287 605 287 605 464 605 c 2,14,-1
 672 605 l 1,15,-1
 672 694 l 2,16,17
 672 772 672 772 596.5 805 c 128,-1,18
 521 838 521 838 375 838 c 2,19,-1
 192 838 l 1,20,-1
 192 1016 l 1,21,22
 262 1032 262 1032 375 1032 c 0,0,1
464 419 m 2,23,24
 406 419 406 419 371 392.5 c 128,-1,25
 336 366 336 366 336 324 c 0,26,27
 336 258 336 258 370 222 c 128,-1,28
 404 186 404 186 464 186 c 2,29,-1
 593 186 l 2,30,31
 672 186 672 186 672 256 c 2,32,-1
 672 419 l 1,33,-1
 464 419 l 2,23,24
EndSplineSet
EndChar

StartChar: b
Encoding: 98 98 66
Width: 1024
VWidth: 0
Flags: W
LayerCount: 2
Fore
SplineSet
96 1280 m 1,0,-1
 352 1280 l 1,1,-1
 352 1009 l 1,2,3
 429 1024 429 1024 512 1024 c 0,4,5
 701 1024 701 1024 822.5 891 c 128,-1,6
 944 758 944 758 944 536 c 0,7,8
 944 290 944 290 816 145 c 128,-1,9
 688 0 688 0 480 0 c 2,10,-1
 352 0 l 2,11,12
 227 0 227 0 161.5 59 c 128,-1,13
 96 118 96 118 96 256 c 2,14,-1
 96 1280 l 1,0,-1
512 838 m 0,15,16
 432 838 432 838 352 817 c 1,17,-1
 352 256 l 2,18,19
 352 186 352 186 480 186 c 0,20,21
 579 186 579 186 633.5 275 c 128,-1,22
 688 364 688 364 688 536 c 0,23,24
 688 687 688 687 642 762.5 c 128,-1,25
 596 838 596 838 512 838 c 0,15,16
EndSplineSet
EndChar

StartChar: c
Encoding: 99 99 67
Width: 1024
VWidth: 0
Flags: W
LayerCount: 2
Fore
SplineSet
675 1032 m 0,0,1
 727 1032 727 1032 774 1028 c 128,-1,2
 821 1024 821 1024 842.5 1020 c 2,3,-1
 864 1016 l 1,4,-1
 864 838 l 1,5,-1
 675 838 l 2,6,7
 533 838 533 838 450.5 750.5 c 128,-1,8
 368 663 368 663 368 512 c 0,9,10
 368 336 368 336 446 261 c 128,-1,11
 524 186 524 186 675 186 c 2,12,-1
 864 186 l 1,13,-1
 864 8 l 1,14,15
 792 -8 792 -8 675 -8 c 0,16,17
 540 -8 540 -8 439.5 19 c 128,-1,18
 339 46 339 46 264 105.5 c 128,-1,19
 189 165 189 165 150.5 266.5 c 128,-1,20
 112 368 112 368 112 512 c 0,21,22
 112 753 112 753 263 892.5 c 128,-1,23
 414 1032 414 1032 675 1032 c 0,0,1
EndSplineSet
EndChar

StartChar: d
Encoding: 100 100 68
Width: 1024
VWidth: 0
Flags: W
LayerCount: 2
Fore
SplineSet
928 1280 m 1,0,-1
 928 256 l 2,1,2
 928 118 928 118 862.5 59 c 128,-1,3
 797 0 797 0 672 0 c 2,4,-1
 544 0 l 2,5,6
 336 0 336 0 208 132 c 128,-1,7
 80 264 80 264 80 488 c 0,8,9
 80 732 80 732 201.5 878 c 128,-1,10
 323 1024 323 1024 512 1024 c 0,11,12
 595 1024 595 1024 672 1009 c 1,13,-1
 672 1280 l 1,14,-1
 928 1280 l 1,0,-1
512 838 m 0,15,16
 430 838 430 838 383 744 c 128,-1,17
 336 650 336 650 336 488 c 0,18,19
 336 348 336 348 391.5 267 c 128,-1,20
 447 186 447 186 544 186 c 0,21,22
 672 186 672 186 672 256 c 2,23,-1
 672 817 l 1,24,25
 592 838 592 838 512 838 c 0,15,16
EndSplineSet
EndChar

StartChar: e
Encoding: 101 101 69
Width: 1024
VWidth: 0
Flags: W
LayerCount: 2
Fore
SplineSet
512 1040 m 128,-1,1
 700 1040 700 1040 822 936.5 c 128,-1,2
 944 833 944 833 944 660 c 2,3,-1
 944 591 l 2,4,5
 944 502 944 502 907 467.5 c 128,-1,6
 870 433 870 433 774 433 c 2,7,-1
 342 433 l 1,8,9
 360 317 360 317 427.5 251.5 c 128,-1,10
 495 186 495 186 600 186 c 2,11,-1
 864 186 l 1,12,-1
 864 8 l 1,13,14
 753 -8 753 -8 600 -8 c 0,15,16
 359 -8 359 -8 219.5 131.5 c 128,-1,17
 80 271 80 271 80 512 c 0,18,19
 80 752 80 752 202 896 c 128,-1,0
 324 1040 324 1040 512 1040 c 128,-1,1
512 854 m 0,20,21
 441 854 441 854 395.5 784.5 c 128,-1,22
 350 715 350 715 339 591 c 1,23,-1
 688 591 l 1,24,-1
 688 660 l 2,25,26
 688 752 688 752 641 803 c 128,-1,27
 594 854 594 854 512 854 c 0,20,21
EndSplineSet
EndChar

StartChar: f
Encoding: 102 102 70
Width: 1024
VWidth: 0
Flags: W
LayerCount: 2
Fore
SplineSet
928 1272 m 1,0,-1
 928 1094 l 1,1,-1
 739 1094 l 2,2,3
 627 1094 627 1094 588 1057.5 c 128,-1,4
 549 1021 549 1021 549 922 c 1,5,-1
 928 922 l 1,6,-1
 928 736 l 1,7,-1
 549 736 l 1,8,-1
 549 0 l 1,9,-1
 293 0 l 1,10,-1
 293 736 l 1,11,-1
 96 736 l 1,12,-1
 96 922 l 1,13,-1
 293 922 l 1,14,15
 293 1029 293 1029 312 1096 c 128,-1,16
 331 1163 331 1163 382.5 1207.5 c 128,-1,17
 434 1252 434 1252 518.5 1270 c 128,-1,18
 603 1288 603 1288 739 1288 c 0,19,20
 791 1288 791 1288 838.5 1284 c 128,-1,21
 886 1280 886 1280 907 1276 c 2,22,-1
 928 1272 l 1,0,-1
EndSplineSet
EndChar

StartChar: g
Encoding: 103 103 71
Width: 1024
VWidth: 0
Flags: W
LayerCount: 2
Fore
SplineSet
544 1024 m 2,0,-1
 672 1024 l 2,1,2
 797 1024 797 1024 862.5 965 c 128,-1,3
 928 906 928 906 928 768 c 2,4,-1
 928 120 l 2,5,6
 928 -83 928 -83 781.5 -173.5 c 128,-1,7
 635 -264 635 -264 356 -264 c 0,8,9
 302 -264 302 -264 253 -260 c 128,-1,10
 204 -256 204 -256 182 -252 c 2,11,-1
 160 -248 l 1,12,-1
 160 -70 l 1,13,-1
 356 -70 l 2,14,15
 511 -70 511 -70 591.5 -26.5 c 128,-1,16
 672 17 672 17 672 120 c 2,17,-1
 672 256 l 1,18,-1
 512 256 l 2,19,20
 312 256 312 256 196 357.5 c 128,-1,21
 80 459 80 459 80 634 c 0,22,23
 80 815 80 815 204.5 919.5 c 128,-1,24
 329 1024 329 1024 544 1024 c 2,0,-1
544 838 m 0,25,26
 447 838 447 838 391.5 783.5 c 128,-1,27
 336 729 336 729 336 634 c 0,28,29
 336 545 336 545 383 493.5 c 128,-1,30
 430 442 430 442 512 442 c 2,31,-1
 672 442 l 1,32,-1
 672 768 l 2,33,34
 672 838 672 838 544 838 c 0,25,26
EndSplineSet
EndChar

StartChar: h
Encoding: 104 104 72
Width: 1024
VWidth: 0
Flags: W
LayerCount: 2
Fore
SplineSet
96 1280 m 1,0,-1
 352 1280 l 1,1,-1
 352 1009 l 1,2,3
 429 1024 429 1024 512 1024 c 0,4,5
 716 1024 716 1024 822 939.5 c 128,-1,6
 928 855 928 855 928 658 c 2,7,-1
 928 0 l 1,8,-1
 672 0 l 1,9,-1
 672 658 l 2,10,11
 672 755 672 755 631 796.5 c 128,-1,12
 590 838 590 838 512 838 c 0,13,14
 432 838 432 838 352 817 c 1,15,-1
 352 0 l 1,16,-1
 96 0 l 1,17,-1
 96 1280 l 1,0,-1
EndSplineSet
EndChar

StartChar: i
Encoding: 105 105 73
Width: 1024
VWidth: 0
Flags: W
LayerCount: 2
Fore
SplineSet
341 1394 m 1,0,-1
 683 1394 l 1,1,-1
 683 1166 l 1,2,-1
 341 1166 l 1,3,-1
 341 1394 l 1,0,-1
160 922 m 1,4,-1
 640 922 l 1,5,-1
 640 186 l 1,6,-1
 896 186 l 1,7,-1
 896 0 l 1,8,-1
 128 0 l 1,9,-1
 128 186 l 1,10,-1
 384 186 l 1,11,-1
 384 736 l 1,12,-1
 160 736 l 1,13,-1
 160 922 l 1,4,-1
EndSplineSet
EndChar

StartChar: j
Encoding: 106 106 74
Width: 1024
VWidth: 0
Flags: W
LayerCount: 2
Fore
SplineSet
501 1394 m 1,0,-1
 843 1394 l 1,1,-1
 843 1166 l 1,2,-1
 501 1166 l 1,3,-1
 501 1394 l 1,0,-1
192 922 m 1,4,-1
 800 922 l 1,5,-1
 800 120 l 2,6,7
 800 -87 800 -87 669 -175.5 c 128,-1,8
 538 -264 538 -264 287 -264 c 0,9,10
 243 -264 243 -264 203.5 -260 c 128,-1,11
 164 -256 164 -256 146 -252 c 2,12,-1
 128 -248 l 1,13,-1
 128 -70 l 1,14,-1
 287 -70 l 2,15,16
 415 -70 415 -70 479.5 -28.5 c 128,-1,17
 544 13 544 13 544 120 c 2,18,-1
 544 736 l 1,19,-1
 192 736 l 1,20,-1
 192 922 l 1,4,-1
EndSplineSet
EndChar

StartChar: k
Encoding: 107 107 75
Width: 1024
VWidth: 0
Flags: W
LayerCount: 2
Fore
SplineSet
605 1024 m 1,0,-1
 896 1024 l 1,1,-1
 577 627 l 1,2,-1
 960 0 l 1,3,-1
 694 0 l 1,4,-1
 323 608 l 1,5,-1
 323 0 l 1,6,-1
 96 0 l 1,7,-1
 96 1280 l 1,8,-1
 323 1280 l 1,9,-1
 323 672 l 1,10,-1
 605 1024 l 1,0,-1
EndSplineSet
EndChar

StartChar: l
Encoding: 108 108 76
Width: 1024
VWidth: 0
Flags: W
LayerCount: 2
Fore
SplineSet
160 1280 m 1,0,-1
 640 1280 l 1,1,-1
 640 186 l 1,2,-1
 896 186 l 1,3,-1
 896 -0 l 1,4,-1
 128 -0 l 1,5,-1
 128 186 l 1,6,-1
 384 186 l 1,7,-1
 384 1094 l 1,8,-1
 160 1094 l 1,9,-1
 160 1280 l 1,0,-1
EndSplineSet
EndChar

StartChar: m
Encoding: 109 109 77
Width: 1024
VWidth: 0
Flags: W
LayerCount: 2
Fore
SplineSet
327 1032 m 0,0,1
 391 1032 391 1032 439.5 1019 c 128,-1,2
 488 1006 488 1006 504 993 c 2,3,-1
 520 980 l 1,4,5
 528 986 528 986 542 994.5 c 128,-1,6
 556 1003 556 1003 602.5 1017.5 c 128,-1,7
 649 1032 649 1032 697 1032 c 0,8,9
 820 1032 820 1032 890 962.5 c 128,-1,10
 960 893 960 893 960 768 c 2,11,-1
 960 0 l 1,12,-1
 756 0 l 1,13,-1
 756 768 l 2,14,15
 756 804 756 804 737 825 c 128,-1,16
 718 846 718 846 685 846 c 0,17,18
 665 846 665 846 647.5 839.5 c 128,-1,19
 630 833 630 833 622 826.5 c 2,20,-1
 614 820 l 1,21,-1
 614 0 l 1,22,-1
 410 0 l 1,23,-1
 410 768 l 2,24,25
 410 846 410 846 339 846 c 0,26,27
 317 846 317 846 299.5 839.5 c 128,-1,28
 282 833 282 833 275 826.5 c 2,29,-1
 268 820 l 1,30,-1
 268 0 l 1,31,-1
 64 0 l 1,32,-1
 64 936 l 1,33,34
 68 940 68 940 75.5 946.5 c 128,-1,35
 83 953 83 953 109.5 969.5 c 128,-1,36
 136 986 136 986 164.5 998.5 c 128,-1,37
 193 1011 193 1011 237 1021.5 c 128,-1,38
 281 1032 281 1032 327 1032 c 0,0,1
EndSplineSet
EndChar

StartChar: n
Encoding: 110 110 78
Width: 1024
VWidth: 0
Flags: W
LayerCount: 2
Fore
SplineSet
928 0 m 1,0,-1
 672 0 l 1,1,-1
 672 658 l 2,2,3
 672 764 672 764 631 809 c 128,-1,4
 590 854 590 854 512 854 c 0,5,6
 468 854 468 854 428 846 c 128,-1,7
 388 838 388 838 370 830.5 c 2,8,-1
 352 823 l 1,9,-1
 352 0 l 1,10,-1
 96 0 l 1,11,-1
 96 936 l 1,12,13
 102 940 102 940 114.5 947 c 128,-1,14
 127 954 127 954 168.5 972 c 128,-1,15
 210 990 210 990 255 1004 c 128,-1,16
 300 1018 300 1018 370 1029 c 128,-1,17
 440 1040 440 1040 512 1040 c 0,18,19
 716 1040 716 1040 822 952 c 128,-1,20
 928 864 928 864 928 658 c 2,21,-1
 928 0 l 1,0,-1
EndSplineSet
EndChar

StartChar: o
Encoding: 111 111 79
Width: 1024
VWidth: 0
Flags: W
LayerCount: 2
Fore
SplineSet
80 512 m 128,-1,1
 80 658 80 658 109.5 761 c 128,-1,2
 139 864 139 864 196.5 924.5 c 128,-1,3
 254 985 254 985 331 1012.5 c 128,-1,4
 408 1040 408 1040 512 1040 c 128,-1,5
 616 1040 616 1040 693 1012.5 c 128,-1,6
 770 985 770 985 827.5 924.5 c 128,-1,7
 885 864 885 864 914.5 761 c 128,-1,8
 944 658 944 658 944 512 c 128,-1,9
 944 366 944 366 914.5 263 c 128,-1,10
 885 160 885 160 827.5 99.5 c 128,-1,11
 770 39 770 39 693 11.5 c 128,-1,12
 616 -16 616 -16 512 -16 c 128,-1,13
 408 -16 408 -16 331 11.5 c 128,-1,14
 254 39 254 39 196.5 99.5 c 128,-1,15
 139 160 139 160 109.5 263 c 128,-1,0
 80 366 80 366 80 512 c 128,-1,1
512 854 m 128,-1,17
 426 854 426 854 381 775 c 128,-1,18
 336 696 336 696 336 512 c 128,-1,19
 336 328 336 328 381 249 c 128,-1,20
 426 170 426 170 512 170 c 128,-1,21
 598 170 598 170 643 249 c 128,-1,22
 688 328 688 328 688 512 c 128,-1,23
 688 696 688 696 643 775 c 128,-1,16
 598 854 598 854 512 854 c 128,-1,17
EndSplineSet
EndChar

StartChar: p
Encoding: 112 112 80
Width: 1024
VWidth: 0
Flags: W
LayerCount: 2
Fore
SplineSet
352 1024 m 2,0,-1
 512 1024 l 2,1,2
 712 1024 712 1024 828 922.5 c 128,-1,3
 944 821 944 821 944 646 c 0,4,5
 944 465 944 465 819.5 360.5 c 128,-1,6
 695 256 695 256 480 256 c 2,7,-1
 352 256 l 1,8,-1
 352 -256 l 1,9,-1
 96 -256 l 1,10,-1
 96 768 l 2,11,12
 96 906 96 906 161.5 965 c 128,-1,13
 227 1024 227 1024 352 1024 c 2,0,-1
512 838 m 0,14,15
 352 838 352 838 352 768 c 2,16,-1
 352 442 l 1,17,-1
 480 442 l 2,18,19
 577 442 577 442 632.5 496.5 c 128,-1,20
 688 551 688 551 688 646 c 0,21,22
 688 735 688 735 641 786.5 c 128,-1,23
 594 838 594 838 512 838 c 0,14,15
EndSplineSet
EndChar

StartChar: q
Encoding: 113 113 81
Width: 1024
VWidth: 0
Flags: W
LayerCount: 2
Fore
SplineSet
544 1024 m 2,0,-1
 672 1024 l 2,1,2
 797 1024 797 1024 862.5 965 c 128,-1,3
 928 906 928 906 928 768 c 2,4,-1
 928 -256 l 1,5,-1
 672 -256 l 1,6,-1
 672 256 l 1,7,-1
 512 256 l 2,8,9
 312 256 312 256 196 357.5 c 128,-1,10
 80 459 80 459 80 634 c 0,11,12
 80 815 80 815 204.5 919.5 c 128,-1,13
 329 1024 329 1024 544 1024 c 2,0,-1
544 838 m 0,14,15
 447 838 447 838 391.5 783.5 c 128,-1,16
 336 729 336 729 336 634 c 0,17,18
 336 545 336 545 383 493.5 c 128,-1,19
 430 442 430 442 512 442 c 2,20,-1
 672 442 l 1,21,-1
 672 768 l 2,22,23
 672 838 672 838 544 838 c 0,14,15
EndSplineSet
EndChar

StartChar: r
Encoding: 114 114 82
Width: 1024
VWidth: 0
Flags: W
LayerCount: 2
Fore
SplineSet
928 658 m 1,0,-1
 672 658 l 1,1,2
 672 764 672 764 631 809 c 128,-1,3
 590 854 590 854 512 854 c 0,4,5
 468 854 468 854 428 846 c 128,-1,6
 388 838 388 838 370 830.5 c 2,7,-1
 352 823 l 1,8,-1
 352 0 l 1,9,-1
 96 0 l 1,10,-1
 96 936 l 1,11,12
 102 940 102 940 114.5 947 c 128,-1,13
 127 954 127 954 168.5 972 c 128,-1,14
 210 990 210 990 255 1004 c 128,-1,15
 300 1018 300 1018 370 1029 c 128,-1,16
 440 1040 440 1040 512 1040 c 0,17,18
 716 1040 716 1040 822 952 c 128,-1,19
 928 864 928 864 928 658 c 1,0,-1
EndSplineSet
EndChar

StartChar: s
Encoding: 115 115 83
Width: 1024
VWidth: 0
Flags: W
LayerCount: 2
Fore
SplineSet
667 1032 m 0,0,1
 712 1032 712 1032 753.5 1028 c 128,-1,2
 795 1024 795 1024 813.5 1020 c 2,3,-1
 832 1016 l 1,4,-1
 832 838 l 1,5,-1
 667 838 l 2,6,7
 536 838 536 838 468 813 c 128,-1,8
 400 788 400 788 400 731 c 0,9,10
 400 687 400 687 426.5 656.5 c 128,-1,11
 453 626 453 626 495.5 608.5 c 128,-1,12
 538 591 538 591 589 576 c 128,-1,13
 640 561 640 561 691 541.5 c 128,-1,14
 742 522 742 522 784.5 493.5 c 128,-1,15
 827 465 827 465 853.5 414 c 128,-1,16
 880 363 880 363 880 292 c 0,17,18
 880 209 880 209 843 150 c 128,-1,19
 806 91 806 91 733.5 57 c 128,-1,20
 661 23 661 23 564 7.5 c 128,-1,21
 467 -8 467 -8 337 -8 c 0,22,23
 289 -8 289 -8 244.5 -4 c 128,-1,24
 200 -0 200 -0 180 4 c 2,25,-1
 160 8 l 1,26,-1
 160 186 l 1,27,-1
 337 186 l 2,28,29
 478 186 478 186 551 210.5 c 128,-1,30
 624 235 624 235 624 292 c 0,31,32
 624 336 624 336 597.5 367 c 128,-1,33
 571 398 571 398 528.5 415 c 128,-1,34
 486 432 486 432 435 447 c 128,-1,35
 384 462 384 462 333 482 c 128,-1,36
 282 502 282 502 239.5 530 c 128,-1,37
 197 558 197 558 170.5 609.5 c 128,-1,38
 144 661 144 661 144 731 c 0,39,40
 144 893 144 893 277.5 962.5 c 128,-1,41
 411 1032 411 1032 667 1032 c 0,0,1
EndSplineSet
EndChar

StartChar: t
Encoding: 116 116 84
Width: 1024
VWidth: 0
Flags: W
LayerCount: 2
Fore
SplineSet
864 8 m 1,0,1
 804 -8 804 -8 707 -8 c 0,2,3
 504 -8 504 -8 398.5 79.5 c 128,-1,4
 293 167 293 167 293 372 c 2,5,-1
 293 736 l 1,6,-1
 64 736 l 1,7,-1
 64 922 l 1,8,-1
 293 922 l 1,9,-1
 293 1280 l 1,10,-1
 549 1280 l 1,11,-1
 549 922 l 1,12,-1
 928 922 l 1,13,-1
 928 736 l 1,14,-1
 549 736 l 1,15,-1
 549 372 l 2,16,17
 549 271 549 271 589 228.5 c 128,-1,18
 629 186 629 186 707 186 c 2,19,-1
 864 186 l 1,20,-1
 864 8 l 1,0,1
EndSplineSet
EndChar

StartChar: u
Encoding: 117 117 85
Width: 1024
VWidth: 0
Flags: W
LayerCount: 2
Fore
SplineSet
96 1024 m 1,0,-1
 352 1024 l 1,1,-1
 352 366 l 2,2,3
 352 260 352 260 393 215 c 128,-1,4
 434 170 434 170 512 170 c 0,5,6
 556 170 556 170 596 178 c 128,-1,7
 636 186 636 186 654 193.5 c 2,8,-1
 672 201 l 1,9,-1
 672 1024 l 1,10,-1
 928 1024 l 1,11,-1
 928 88 l 1,12,13
 922 84 922 84 909.5 77 c 128,-1,14
 897 70 897 70 855.5 52 c 128,-1,15
 814 34 814 34 769 20 c 128,-1,16
 724 6 724 6 654 -5 c 128,-1,17
 584 -16 584 -16 512 -16 c 0,18,19
 308 -16 308 -16 202 72 c 128,-1,20
 96 160 96 160 96 366 c 2,21,-1
 96 1024 l 1,0,-1
EndSplineSet
EndChar

StartChar: v
Encoding: 118 118 86
Width: 1024
VWidth: 0
Flags: W
LayerCount: 2
Fore
SplineSet
693 1024 m 1,0,-1
 960 1024 l 1,1,-1
 658 0 l 1,2,-1
 366 0 l 1,3,-1
 64 1024 l 1,4,-1
 331 1024 l 1,5,-1
 443 645 l 1,6,-1
 512 322 l 1,7,-1
 581 645 l 1,8,-1
 693 1024 l 1,0,-1
EndSplineSet
EndChar

StartChar: w
Encoding: 119 119 87
Width: 1024
VWidth: 0
Flags: W
LayerCount: 2
Fore
SplineSet
32 1024 m 1,0,-1
 261 1024 l 1,1,-1
 306 645 l 1,2,-1
 326 322 l 1,3,-1
 384 645 l 1,4,-1
 427 768 l 1,5,-1
 597 768 l 1,6,-1
 640 645 l 1,7,-1
 698 322 l 1,8,-1
 718 645 l 1,9,-1
 763 1024 l 1,10,-1
 992 1024 l 1,11,-1
 870 0 l 1,12,-1
 666 0 l 1,13,-1
 512 445 l 1,14,-1
 358 0 l 1,15,-1
 154 0 l 1,16,-1
 32 1024 l 1,0,-1
EndSplineSet
EndChar

StartChar: x
Encoding: 120 120 88
Width: 1024
VWidth: 0
Flags: W
LayerCount: 2
Fore
SplineSet
64 1024 m 1,0,-1
 361 1024 l 1,1,-1
 512 704 l 1,2,-1
 663 1024 l 1,3,-1
 960 1024 l 1,4,-1
 660 512 l 1,5,-1
 960 0 l 1,6,-1
 663 0 l 1,7,-1
 512 320 l 1,8,-1
 361 0 l 1,9,-1
 64 0 l 1,10,-1
 364 512 l 1,11,-1
 64 1024 l 1,0,-1
EndSplineSet
EndChar

StartChar: y
Encoding: 121 121 89
Width: 1024
VWidth: 0
Flags: W
LayerCount: 2
Fore
SplineSet
96 1024 m 1,0,-1
 352 1024 l 1,1,-1
 352 566 l 2,2,3
 352 498 352 498 392.5 470 c 128,-1,4
 433 442 433 442 512 442 c 2,5,-1
 672 442 l 1,6,-1
 672 1024 l 1,7,-1
 928 1024 l 1,8,-1
 928 120 l 2,9,10
 928 14 928 14 889 -61 c 128,-1,11
 850 -136 850 -136 774 -180 c 128,-1,12
 698 -224 698 -224 595.5 -244 c 128,-1,13
 493 -264 493 -264 356 -264 c 0,14,15
 302 -264 302 -264 253 -260 c 128,-1,16
 204 -256 204 -256 182 -252 c 2,17,-1
 160 -248 l 1,18,-1
 160 -70 l 1,19,-1
 356 -70 l 2,20,21
 511 -70 511 -70 591.5 -26.5 c 128,-1,22
 672 17 672 17 672 120 c 2,23,-1
 672 256 l 1,24,-1
 512 256 l 2,25,26
 319 256 319 256 207.5 339 c 128,-1,27
 96 422 96 422 96 566 c 2,28,-1
 96 1024 l 1,0,-1
EndSplineSet
EndChar

StartChar: z
Encoding: 122 122 90
Width: 1024
VWidth: 0
Flags: W
LayerCount: 2
Fore
SplineSet
160 1024 m 1,0,-1
 864 1024 l 1,1,-1
 864 838 l 1,2,-1
 435 186 l 1,3,-1
 896 186 l 1,4,-1
 896 0 l 1,5,-1
 128 0 l 1,6,-1
 128 186 l 1,7,-1
 557 838 l 1,8,-1
 160 838 l 1,9,-1
 160 1024 l 1,0,-1
EndSplineSet
EndChar

StartChar: braceleft
Encoding: 123 123 91
Width: 1024
VWidth: 0
Flags: W
LayerCount: 2
Fore
SplineSet
696 1437 m 2,0,-1
 822 1437 l 1,1,-1
 822 1251 l 1,2,-1
 696 1251 l 2,3,4
 673 1251 673 1251 654.5 1247.5 c 128,-1,5
 636 1244 636 1244 623 1235 c 128,-1,6
 610 1226 610 1226 600.5 1218 c 128,-1,7
 591 1210 591 1210 585.5 1192 c 128,-1,8
 580 1174 580 1174 576.5 1162 c 128,-1,9
 573 1150 573 1150 572 1124 c 128,-1,10
 571 1098 571 1098 570.5 1082.5 c 128,-1,11
 570 1067 570 1067 570 1034 c 2,12,-1
 570 693 l 1,13,-1
 384 661 l 1,14,-1
 384 520 l 1,15,-1
 570 488 l 1,16,-1
 570 147 l 2,17,18
 570 114 570 114 570.5 98.5 c 128,-1,19
 571 83 571 83 572 57 c 128,-1,20
 573 31 573 31 576.5 19 c 128,-1,21
 580 7 580 7 585.5 -11 c 128,-1,22
 591 -29 591 -29 600.5 -37 c 128,-1,23
 610 -45 610 -45 623 -54 c 128,-1,24
 636 -63 636 -63 654.5 -66.5 c 128,-1,25
 673 -70 673 -70 696 -70 c 2,26,-1
 822 -70 l 1,27,-1
 822 -256 l 1,28,-1
 696 -256 l 2,29,30
 486 -256 486 -256 383 -147.5 c 128,-1,31
 280 -39 280 -39 317 147 c 2,32,-1
 384 488 l 1,33,-1
 64 488 l 1,34,-1
 64 693 l 1,35,-1
 384 693 l 1,36,-1
 317 1034 l 2,37,38
 280 1220 280 1220 383 1328.5 c 128,-1,39
 486 1437 486 1437 696 1437 c 2,0,-1
EndSplineSet
EndChar

StartChar: bar
Encoding: 124 124 92
Width: 1024
VWidth: 0
Flags: W
LayerCount: 2
Fore
SplineSet
384 1437 m 1,0,-1
 640 1437 l 1,1,-1
 640 -256 l 1,2,-1
 384 -256 l 1,3,-1
 384 1437 l 1,0,-1
EndSplineSet
EndChar

StartChar: braceright
Encoding: 125 125 93
Width: 1024
VWidth: 0
Flags: W
LayerCount: 2
Fore
SplineSet
328 1437 m 2,0,1
 538 1437 538 1437 641 1328.5 c 128,-1,2
 744 1220 744 1220 707 1034 c 2,3,-1
 640 693 l 1,4,-1
 960 693 l 1,5,-1
 960 488 l 1,6,-1
 640 488 l 1,7,-1
 707 147 l 2,8,9
 744 -39 744 -39 641 -147.5 c 128,-1,10
 538 -256 538 -256 328 -256 c 2,11,-1
 202 -256 l 1,12,-1
 202 -70 l 1,13,-1
 328 -70 l 2,14,15
 351 -70 351 -70 369.5 -66.5 c 128,-1,16
 388 -63 388 -63 401 -54 c 128,-1,17
 414 -45 414 -45 423.5 -37 c 128,-1,18
 433 -29 433 -29 438.5 -11 c 128,-1,19
 444 7 444 7 447.5 19 c 128,-1,20
 451 31 451 31 452 57 c 128,-1,21
 453 83 453 83 453.5 98.5 c 128,-1,22
 454 114 454 114 454 147 c 2,23,-1
 454 488 l 1,24,-1
 640 520 l 1,25,-1
 640 661 l 1,26,-1
 454 693 l 1,27,-1
 454 1034 l 2,28,29
 454 1067 454 1067 453.5 1082.5 c 128,-1,30
 453 1098 453 1098 452 1124 c 128,-1,31
 451 1150 451 1150 447.5 1162 c 128,-1,32
 444 1174 444 1174 438.5 1192 c 128,-1,33
 433 1210 433 1210 423.5 1218 c 128,-1,34
 414 1226 414 1226 401 1235 c 128,-1,35
 388 1244 388 1244 369.5 1247.5 c 128,-1,36
 351 1251 351 1251 328 1251 c 2,37,-1
 202 1251 l 1,38,-1
 202 1437 l 1,39,-1
 328 1437 l 2,0,1
EndSplineSet
EndChar

StartChar: asciitilde
Encoding: 126 126 94
Width: 1024
VWidth: 0
Flags: W
LayerCount: 2
Fore
SplineSet
64 379 m 1,0,1
 64 584 64 584 89 699 c 128,-1,2
 114 814 114 814 170.5 865.5 c 128,-1,3
 227 917 227 917 328 917 c 0,4,5
 398 917 398 917 448.5 901 c 128,-1,6
 499 885 499 885 524.5 859.5 c 128,-1,7
 550 834 550 834 566 801 c 128,-1,8
 582 768 582 768 585.5 733.5 c 128,-1,9
 589 699 589 699 593 666 c 128,-1,10
 597 633 597 633 601 607.5 c 128,-1,11
 605 582 605 582 620 566 c 128,-1,12
 635 550 635 550 661 550 c 0,13,14
 714 550 714 550 735 627 c 128,-1,15
 756 704 756 704 756 901 c 1,16,-1
 960 901 l 1,17,18
 960 599 960 599 902.5 481.5 c 128,-1,19
 845 364 845 364 696 364 c 0,20,21
 626 364 626 364 575.5 380 c 128,-1,22
 525 396 525 396 499.5 421.5 c 128,-1,23
 474 447 474 447 458 480 c 128,-1,24
 442 513 442 513 438.5 547.5 c 128,-1,25
 435 582 435 582 431 615 c 128,-1,26
 427 648 427 648 423 673.5 c 128,-1,27
 419 699 419 699 404 715 c 128,-1,28
 389 731 389 731 363 731 c 0,29,30
 310 731 310 731 289 653.5 c 128,-1,31
 268 576 268 576 268 379 c 1,32,-1
 64 379 l 1,0,1
EndSplineSet
EndChar

StartChar: .notdef
Encoding: 65536 -1 96
Width: 1024
VWidth: 0
Flags: W
LayerCount: 2
Fore
SplineSet
320 1280 m 2,0,-1
 433 1280 l 1,1,-1
 433 1152 l 1,2,-1
 320 1152 l 2,3,4
 267 1152 267 1152 229.5 1114.5 c 128,-1,5
 192 1077 192 1077 192 1024 c 2,6,-1
 192 768 l 1,7,-1
 64 768 l 1,8,-1
 64 1024 l 2,9,10
 64 1130 64 1130 139 1205 c 128,-1,11
 214 1280 214 1280 320 1280 c 2,0,-1
591 1280 m 1,12,-1
 704 1280 l 2,13,14
 810 1280 810 1280 885 1205 c 128,-1,15
 960 1130 960 1130 960 1024 c 2,16,-1
 960 768 l 1,17,-1
 832 768 l 1,18,-1
 832 1024 l 2,19,20
 832 1077 832 1077 794.5 1114.5 c 128,-1,21
 757 1152 757 1152 704 1152 c 2,22,-1
 591 1152 l 1,23,-1
 591 1280 l 1,12,-1
64 512 m 1,24,-1
 192 512 l 1,25,-1
 192 256 l 2,26,27
 192 203 192 203 229.5 165.5 c 128,-1,28
 267 128 267 128 320 128 c 2,29,-1
 433 128 l 1,30,-1
 433 0 l 1,31,-1
 320 0 l 2,32,33
 214 0 214 0 139 75 c 128,-1,34
 64 150 64 150 64 256 c 2,35,-1
 64 512 l 1,24,-1
832 512 m 1,36,-1
 960 512 l 1,37,-1
 960 256 l 2,38,39
 960 150 960 150 885 75 c 128,-1,40
 810 0 810 0 704 0 c 2,41,-1
 591 0 l 1,42,-1
 591 128 l 1,43,-1
 704 128 l 2,44,45
 757 128 757 128 794.5 165.5 c 128,-1,46
 832 203 832 203 832 256 c 2,47,-1
 832 512 l 1,36,-1
EndSplineSet
EndChar

StartChar: agave.Aduck
Encoding: 65537 -1 97
Width: 1024
VWidth: 0
Flags: W
LayerCount: 2
Fore
SplineSet
398 1152 m 1,0,-1
 626 1152 l 1,1,-1
 960 0 l 1,2,-1
 724 0 l 1,3,-1
 658 227 l 1,4,-1
 366 227 l 1,5,-1
 300 0 l 1,6,-1
 64 0 l 1,7,-1
 398 1152 l 1,0,-1
512 843 m 1,8,-1
 388 413 l 1,9,-1
 636 413 l 1,10,-1
 512 843 l 1,8,-1
EndSplineSet
EndChar

StartChar: agave.Bduck
Encoding: 65538 -1 98
Width: 1024
VWidth: 0
Flags: W
LayerCount: 2
Fore
SplineSet
96 1152 m 1,0,-1
 323 1152 l 2,1,2
 596 1152 596 1152 738 1077 c 128,-1,3
 880 1002 880 1002 880 828 c 0,4,5
 880 781 880 781 860 742.5 c 128,-1,6
 840 704 840 704 812 682 c 128,-1,7
 784 660 784 660 756 645 c 128,-1,8
 728 630 728 630 708 624.5 c 2,9,-1
 688 619 l 1,10,11
 698 616 698 616 715.5 610.5 c 128,-1,12
 733 605 733 605 777 582 c 128,-1,13
 821 559 821 559 855 530.5 c 128,-1,14
 889 502 889 502 916.5 452.5 c 128,-1,15
 944 403 944 403 944 345 c 0,16,17
 944 250 944 250 902 182.5 c 128,-1,18
 860 115 860 115 777 75.5 c 128,-1,19
 694 36 694 36 583 18 c 128,-1,20
 472 0 472 0 323 0 c 2,21,-1
 96 0 l 1,22,-1
 96 1152 l 1,0,-1
323 966 m 1,23,-1
 323 690 l 1,24,25
 471 690 471 690 547.5 721.5 c 128,-1,26
 624 753 624 753 624 828 c 128,-1,27
 624 903 624 903 547.5 934.5 c 128,-1,28
 471 966 471 966 323 966 c 1,23,-1
323 504 m 1,29,-1
 323 186 l 1,30,31
 502 186 502 186 595 222.5 c 128,-1,32
 688 259 688 259 688 345 c 128,-1,33
 688 431 688 431 595 467.5 c 128,-1,34
 502 504 502 504 323 504 c 1,29,-1
EndSplineSet
EndChar

StartChar: agave.Cduck
Encoding: 65539 -1 99
Width: 1024
VWidth: 0
Flags: W
LayerCount: 2
Fore
SplineSet
694 1160 m 0,0,1
 750 1160 750 1160 800.5 1156 c 128,-1,2
 851 1152 851 1152 873.5 1148 c 2,3,-1
 896 1144 l 1,4,-1
 896 966 l 1,5,-1
 694 966 l 2,6,7
 543 966 543 966 455.5 861.5 c 128,-1,8
 368 757 368 757 368 576 c 0,9,10
 368 366 368 366 451 276 c 128,-1,11
 534 186 534 186 694 186 c 2,12,-1
 896 186 l 1,13,-1
 896 8 l 1,14,15
 819 -8 819 -8 694 -8 c 0,16,17
 554 -8 554 -8 450 22 c 128,-1,18
 346 52 346 52 268.5 119 c 128,-1,19
 191 186 191 186 151.5 300.5 c 128,-1,20
 112 415 112 415 112 576 c 0,21,22
 112 847 112 847 268 1003.5 c 128,-1,23
 424 1160 424 1160 694 1160 c 0,0,1
EndSplineSet
EndChar

StartChar: agave.Dduck
Encoding: 65540 -1 100
Width: 1024
VWidth: 0
Flags: W
LayerCount: 2
Fore
SplineSet
96 1152 m 1,0,-1
 352 1152 l 2,1,2
 494 1152 494 1152 599.5 1122.5 c 128,-1,3
 705 1093 705 1093 784.5 1026.5 c 128,-1,4
 864 960 864 960 904 847.5 c 128,-1,5
 944 735 944 735 944 576 c 128,-1,6
 944 417 944 417 904 304.5 c 128,-1,7
 864 192 864 192 784.5 125.5 c 128,-1,8
 705 59 705 59 599.5 29.5 c 128,-1,9
 494 0 494 0 352 0 c 2,10,-1
 96 -0 l 1,11,-1
 96 1152 l 1,0,-1
352 966 m 1,12,-1
 352 186 l 1,13,14
 509 186 509 186 590.5 276 c 128,-1,15
 672 366 672 366 672 576 c 128,-1,16
 672 786 672 786 590.5 876 c 128,-1,17
 509 966 509 966 352 966 c 1,12,-1
EndSplineSet
EndChar

StartChar: agave.Educk
Encoding: 65541 -1 101
Width: 1024
VWidth: 0
Flags: W
LayerCount: 2
Fore
SplineSet
128 1152 m 1,0,-1
 928 1152 l 1,1,-1
 928 966 l 1,2,-1
 384 966 l 1,3,-1
 384 698 l 1,4,-1
 896 698 l 1,5,-1
 896 512 l 1,6,-1
 384 512 l 1,7,-1
 384 186 l 1,8,-1
 928 186 l 1,9,-1
 928 0 l 1,10,-1
 128 0 l 1,11,-1
 128 1152 l 1,0,-1
EndSplineSet
EndChar

StartChar: agave.Fduck
Encoding: 65542 -1 102
Width: 1024
VWidth: 0
Flags: W
LayerCount: 2
Fore
SplineSet
128 1152 m 1,0,-1
 928 1152 l 1,1,-1
 928 966 l 1,2,-1
 384 966 l 1,3,-1
 384 698 l 1,4,-1
 896 698 l 1,5,-1
 896 512 l 1,6,-1
 384 512 l 1,7,-1
 384 -0 l 1,8,-1
 128 -0 l 1,9,-1
 128 1152 l 1,0,-1
EndSplineSet
EndChar

StartChar: agave.Gduck
Encoding: 65543 -1 103
Width: 1024
VWidth: 0
Flags: W
LayerCount: 2
Fore
SplineSet
682 1160 m 0,0,1
 741 1160 741 1160 794.5 1156 c 128,-1,2
 848 1152 848 1152 872 1148 c 2,3,-1
 896 1144 l 1,4,-1
 896 966 l 1,5,-1
 682 966 l 2,6,7
 519 966 519 966 427.5 866.5 c 128,-1,8
 336 767 336 767 336 576 c 0,9,10
 336 362 336 362 389 270 c 128,-1,11
 442 178 442 178 544 178 c 0,12,13
 672 178 672 178 672 256 c 2,14,-1
 672 505 l 1,15,-1
 512 505 l 1,16,-1
 512 691 l 1,17,-1
 928 691 l 1,18,-1
 928 256 l 2,19,20
 928 114 928 114 830 53 c 128,-1,21
 732 -8 732 -8 544 -8 c 0,22,23
 433 -8 433 -8 350 22 c 128,-1,24
 267 52 267 52 205 119 c 128,-1,25
 143 186 143 186 111.5 300.5 c 128,-1,26
 80 415 80 415 80 576 c 0,27,28
 80 847 80 847 241.5 1003.5 c 128,-1,29
 403 1160 403 1160 682 1160 c 0,0,1
EndSplineSet
EndChar

StartChar: agave.Hduck
Encoding: 65544 -1 104
Width: 1024
VWidth: 0
Flags: W
LayerCount: 2
Fore
SplineSet
96 1152 m 1,0,-1
 352 1152 l 1,1,-1
 352 698 l 1,2,-1
 672 698 l 1,3,-1
 672 1152 l 1,4,-1
 928 1152 l 1,5,-1
 928 0 l 1,6,-1
 672 0 l 1,7,-1
 672 512 l 1,8,-1
 352 512 l 1,9,-1
 352 0 l 1,10,-1
 96 0 l 1,11,-1
 96 1152 l 1,0,-1
EndSplineSet
EndChar

StartChar: agave.Iduck
Encoding: 65545 -1 105
Width: 1024
VWidth: 0
Flags: W
LayerCount: 2
Fore
SplineSet
160 1152 m 1,0,-1
 864 1152 l 1,1,-1
 864 966 l 1,2,-1
 640 966 l 1,3,-1
 640 186 l 1,4,-1
 864 186 l 1,5,-1
 864 0 l 1,6,-1
 160 0 l 1,7,-1
 160 186 l 1,8,-1
 384 186 l 1,9,-1
 384 966 l 1,10,-1
 160 966 l 1,11,-1
 160 1152 l 1,0,-1
EndSplineSet
EndChar

StartChar: agave.Jduck
Encoding: 65546 -1 106
Width: 1024
VWidth: 0
Flags: W
LayerCount: 2
Fore
SplineSet
196 1152 m 1,0,-1
 864 1152 l 1,1,-1
 864 526 l 2,2,3
 864 378 864 378 826.5 273.5 c 128,-1,4
 789 169 789 169 715 108 c 128,-1,5
 641 47 641 47 542.5 19.5 c 128,-1,6
 444 -8 444 -8 311 -8 c 0,7,8
 261 -8 261 -8 215 -4 c 128,-1,9
 169 -0 169 -0 148.5 4 c 2,10,-1
 128 8 l 1,11,-1
 128 186 l 1,12,-1
 311 186 l 2,13,14
 457 186 457 186 532.5 264.5 c 128,-1,15
 608 343 608 343 608 526 c 2,16,-1
 608 966 l 1,17,-1
 196 966 l 1,18,-1
 196 1152 l 1,0,-1
EndSplineSet
EndChar

StartChar: agave.Kduck
Encoding: 65547 -1 107
Width: 1024
VWidth: 0
Flags: W
LayerCount: 2
Fore
SplineSet
661 1152 m 1,0,-1
 928 1152 l 1,1,-1
 572 579 l 1,2,-1
 960 0 l 1,3,-1
 687 0 l 1,4,-1
 323 544 l 1,5,-1
 323 0 l 1,6,-1
 96 0 l 1,7,-1
 96 1152 l 1,8,-1
 323 1152 l 1,9,-1
 323 608 l 1,10,-1
 661 1152 l 1,0,-1
EndSplineSet
EndChar

StartChar: agave.Lduck
Encoding: 65548 -1 108
Width: 1024
VWidth: 0
Flags: W
LayerCount: 2
Fore
SplineSet
128 1152 m 1,0,-1
 384 1152 l 1,1,-1
 384 186 l 1,2,-1
 928 186 l 1,3,-1
 928 0 l 1,4,-1
 128 0 l 1,5,-1
 128 1152 l 1,0,-1
EndSplineSet
EndChar

StartChar: agave.lduck
Encoding: 65549 -1 109
Width: 1024
VWidth: 0
Flags: W
LayerCount: 2
Fore
SplineSet
160 1152 m 1,0,-1
 640 1152 l 1,1,-1
 640 186 l 1,2,-1
 896 186 l 1,3,-1
 896 -0 l 1,4,-1
 128 -0 l 1,5,-1
 128 186 l 1,6,-1
 384 186 l 1,7,-1
 384 966 l 1,8,-1
 160 966 l 1,9,-1
 160 1152 l 1,0,-1
EndSplineSet
EndChar

StartChar: agave.Mduck
Encoding: 65550 -1 110
Width: 1024
VWidth: 0
Flags: W
LayerCount: 2
Fore
SplineSet
733 1152 m 1,0,-1
 960 1152 l 1,1,-1
 960 0 l 1,2,-1
 733 0 l 1,3,-1
 733 512 l 1,4,-1
 768 869 l 1,5,-1
 576 512 l 1,6,-1
 448 512 l 1,7,-1
 256 869 l 1,8,-1
 291 512 l 1,9,-1
 291 0 l 1,10,-1
 64 0 l 1,11,-1
 64 1152 l 1,12,-1
 291 1152 l 1,13,-1
 512 749 l 1,14,-1
 733 1152 l 1,0,-1
EndSplineSet
EndChar

StartChar: agave.Nduck
Encoding: 65551 -1 111
Width: 1024
VWidth: 0
Flags: W
LayerCount: 2
Fore
SplineSet
96 1152 m 1,0,-1
 323 1152 l 1,1,-1
 701 437 l 1,2,-1
 701 1152 l 1,3,-1
 928 1152 l 1,4,-1
 928 0 l 1,5,-1
 701 0 l 1,6,-1
 323 715 l 1,7,-1
 323 0 l 1,8,-1
 96 0 l 1,9,-1
 96 1152 l 1,0,-1
EndSplineSet
EndChar

StartChar: agave.Oduck
Encoding: 65552 -1 112
Width: 1024
VWidth: 0
Flags: W
LayerCount: 2
Fore
SplineSet
48 576 m 128,-1,1
 48 739 48 739 79.5 855 c 128,-1,2
 111 971 111 971 173 1039 c 128,-1,3
 235 1107 235 1107 318 1137.5 c 128,-1,4
 401 1168 401 1168 512 1168 c 128,-1,5
 623 1168 623 1168 706 1137.5 c 128,-1,6
 789 1107 789 1107 851 1039 c 128,-1,7
 913 971 913 971 944.5 855 c 128,-1,8
 976 739 976 739 976 576 c 128,-1,9
 976 413 976 413 944.5 297 c 128,-1,10
 913 181 913 181 851 113 c 128,-1,11
 789 45 789 45 706 14.5 c 128,-1,12
 623 -16 623 -16 512 -16 c 128,-1,13
 401 -16 401 -16 318 14.5 c 128,-1,14
 235 45 235 45 173 113 c 128,-1,15
 111 181 111 181 79.5 297 c 128,-1,0
 48 413 48 413 48 576 c 128,-1,1
512 982 m 128,-1,17
 410 982 410 982 357 888.5 c 128,-1,18
 304 795 304 795 304 576 c 128,-1,19
 304 357 304 357 357 263.5 c 128,-1,20
 410 170 410 170 512 170 c 128,-1,21
 614 170 614 170 667 263.5 c 128,-1,22
 720 357 720 357 720 576 c 128,-1,23
 720 795 720 795 667 888.5 c 128,-1,16
 614 982 614 982 512 982 c 128,-1,17
EndSplineSet
EndChar

StartChar: agave.Pduck
Encoding: 65553 -1 113
Width: 1024
VWidth: 0
Flags: W
LayerCount: 2
Fore
SplineSet
96 1152 m 1,0,-1
 560 1152 l 2,1,2
 738 1152 738 1152 841 1058.5 c 128,-1,3
 944 965 944 965 944 803 c 128,-1,4
 944 641 944 641 819.5 547.5 c 128,-1,5
 695 454 695 454 480 454 c 2,6,-1
 352 454 l 1,7,-1
 352 0 l 1,8,-1
 96 0 l 1,9,-1
 96 1152 l 1,0,-1
352 966 m 1,10,-1
 352 640 l 1,11,-1
 480 640 l 2,12,13
 577 640 577 640 632.5 683.5 c 128,-1,14
 688 727 688 727 688 803 c 128,-1,15
 688 879 688 879 653.5 922.5 c 128,-1,16
 619 966 619 966 560 966 c 2,17,-1
 352 966 l 1,10,-1
EndSplineSet
EndChar

StartChar: agave.Rduck
Encoding: 65554 -1 114
Width: 1024
VWidth: 0
Flags: W
LayerCount: 2
Fore
SplineSet
96 1152 m 1,0,-1
 567 1152 l 2,1,2
 752 1152 752 1152 848 1078 c 128,-1,3
 944 1004 944 1004 944 832 c 0,4,5
 944 616 944 616 742 547 c 1,6,-1
 960 0 l 1,7,-1
 716 0 l 1,8,-1
 512 512 l 1,9,-1
 323 512 l 1,10,-1
 323 0 l 1,11,-1
 96 0 l 1,12,-1
 96 1152 l 1,0,-1
323 966 m 1,13,-1
 323 698 l 1,14,-1
 473 698 l 2,15,16
 593 698 593 698 655 729 c 128,-1,17
 717 760 717 760 717 832 c 0,18,19
 717 905 717 905 679 935.5 c 128,-1,20
 641 966 641 966 567 966 c 2,21,-1
 323 966 l 1,13,-1
EndSplineSet
EndChar

StartChar: agave.Sduck
Encoding: 65555 -1 115
Width: 1024
VWidth: 0
Flags: W
LayerCount: 2
Fore
SplineSet
694 1160 m 0,0,1
 750 1160 750 1160 800.5 1156 c 128,-1,2
 851 1152 851 1152 873.5 1148 c 2,3,-1
 896 1144 l 1,4,-1
 896 966 l 1,5,-1
 694 966 l 2,6,7
 589 966 589 966 519 954.5 c 128,-1,8
 449 943 449 943 408.5 913.5 c 128,-1,9
 368 884 368 884 368 837 c 0,10,11
 368 784 368 784 400 747.5 c 128,-1,12
 432 711 432 711 482.5 689.5 c 128,-1,13
 533 668 533 668 594.5 649.5 c 128,-1,14
 656 631 656 631 717.5 606.5 c 128,-1,15
 779 582 779 582 829.5 549 c 128,-1,16
 880 516 880 516 912 456.5 c 128,-1,17
 944 397 944 397 944 315 c 0,18,19
 944 226 944 226 901.5 163 c 128,-1,20
 859 100 859 100 776 62.5 c 128,-1,21
 693 25 693 25 582 8.5 c 128,-1,22
 471 -8 471 -8 322 -8 c 0,23,24
 260 -8 260 -8 203.5 -4 c 128,-1,25
 147 -0 147 -0 121.5 4 c 2,26,-1
 96 8 l 1,27,-1
 96 186 l 1,28,-1
 322 186 l 2,29,30
 501 186 501 186 594.5 215.5 c 128,-1,31
 688 245 688 245 688 315 c 0,32,33
 688 368 688 368 656 404.5 c 128,-1,34
 624 441 624 441 573.5 462.5 c 128,-1,35
 523 484 523 484 461.5 502.5 c 128,-1,36
 400 521 400 521 338.5 545.5 c 128,-1,37
 277 570 277 570 226.5 603 c 128,-1,38
 176 636 176 636 144 695.5 c 128,-1,39
 112 755 112 755 112 837 c 0,40,41
 112 926 112 926 151.5 989 c 128,-1,42
 191 1052 191 1052 268.5 1089.5 c 128,-1,43
 346 1127 346 1127 450 1143.5 c 128,-1,44
 554 1160 554 1160 694 1160 c 0,0,1
EndSplineSet
EndChar

StartChar: agave.Tduck
Encoding: 65556 -1 116
Width: 1024
VWidth: 0
Flags: W
LayerCount: 2
Fore
SplineSet
64 1152 m 1,0,-1
 960 1152 l 1,1,-1
 960 966 l 1,2,-1
 640 966 l 1,3,-1
 640 0 l 1,4,-1
 384 0 l 1,5,-1
 384 966 l 1,6,-1
 64 966 l 1,7,-1
 64 1152 l 1,0,-1
EndSplineSet
EndChar

StartChar: agave.Uduck
Encoding: 65557 -1 117
Width: 1024
VWidth: 0
Flags: W
LayerCount: 2
Fore
SplineSet
96 1152 m 1,0,-1
 352 1152 l 1,1,-1
 352 545 l 2,2,3
 352 334 352 334 387 252 c 128,-1,4
 422 170 422 170 512 170 c 128,-1,5
 602 170 602 170 637 252 c 128,-1,6
 672 334 672 334 672 545 c 2,7,-1
 672 1152 l 1,8,-1
 928 1152 l 1,9,-1
 928 545 l 2,10,11
 928 331 928 331 888.5 211 c 128,-1,12
 849 91 849 91 760 37.5 c 128,-1,13
 671 -16 671 -16 512 -16 c 128,-1,14
 353 -16 353 -16 264 37.5 c 128,-1,15
 175 91 175 91 135.5 211 c 128,-1,16
 96 331 96 331 96 545 c 2,17,-1
 96 1152 l 1,0,-1
EndSplineSet
EndChar

StartChar: agave.Vduck
Encoding: 65558 -1 118
Width: 1024
VWidth: 0
Flags: W
LayerCount: 2
Fore
SplineSet
64 1152 m 1,0,-1
 300 1152 l 1,1,-1
 467 576 l 1,2,-1
 512 356 l 1,3,-1
 557 576 l 1,4,-1
 724 1152 l 1,5,-1
 960 1152 l 1,6,-1
 626 0 l 1,7,-1
 398 0 l 1,8,-1
 64 1152 l 1,0,-1
EndSplineSet
EndChar

StartChar: agave.Wduck
Encoding: 65559 -1 119
Width: 1024
VWidth: 0
Flags: W
LayerCount: 2
Fore
SplineSet
32 1152 m 1,0,-1
 237 1152 l 1,1,-1
 286 563 l 1,2,-1
 290 348 l 1,3,-1
 448 768 l 1,4,-1
 576 768 l 1,5,-1
 734 348 l 1,6,-1
 738 563 l 1,7,-1
 787 1152 l 1,8,-1
 992 1152 l 1,9,-1
 896 0 l 1,10,-1
 692 0 l 1,11,-1
 512 436 l 1,12,-1
 332 0 l 1,13,-1
 128 0 l 1,14,-1
 32 1152 l 1,0,-1
EndSplineSet
EndChar

StartChar: agave.Xduck
Encoding: 65560 -1 120
Width: 1024
VWidth: 0
Flags: W
LayerCount: 2
Fore
SplineSet
32 1152 m 1,0,-1
 297 1152 l 1,1,-1
 512 768 l 1,2,-1
 727 1152 l 1,3,-1
 992 1152 l 1,4,-1
 640 576 l 1,5,-1
 992 -0 l 1,6,-1
 727 -0 l 1,7,-1
 512 384 l 1,8,-1
 297 -0 l 1,9,-1
 32 -0 l 1,10,-1
 384 576 l 1,11,-1
 32 1152 l 1,0,-1
EndSplineSet
EndChar

StartChar: agave.Yduck
Encoding: 65561 -1 121
Width: 1024
VWidth: 0
Flags: W
LayerCount: 2
Fore
SplineSet
32 1152 m 1,0,-1
 294 1152 l 1,1,-1
 512 774 l 1,2,-1
 730 1152 l 1,3,-1
 992 1152 l 1,4,-1
 640 542 l 1,5,-1
 640 0 l 1,6,-1
 384 0 l 1,7,-1
 384 542 l 1,8,-1
 32 1152 l 1,0,-1
EndSplineSet
EndChar

StartChar: agave.Zduck
Encoding: 65562 -1 122
Width: 1024
VWidth: 0
Flags: W
LayerCount: 2
Fore
SplineSet
128 1152 m 1,0,-1
 896 1152 l 1,1,-1
 896 966 l 1,2,-1
 370 186 l 1,3,-1
 928 186 l 1,4,-1
 928 0 l 1,5,-1
 96 0 l 1,6,-1
 96 186 l 1,7,-1
 622 966 l 1,8,-1
 128 966 l 1,9,-1
 128 1152 l 1,0,-1
EndSplineSet
EndChar

StartChar: agave.AEduck
Encoding: 65563 -1 123
Width: 1024
VWidth: 0
Flags: W
LayerCount: 2
Fore
SplineSet
396.999023438 1152 m 1,0,-1
 992 1152 l 1,1,-1
 992 995 l 1,2,-1
 682 995 l 1,3,-1
 682 669 l 1,4,-1
 960 669 l 1,5,-1
 960 512 l 1,6,-1
 682 512 l 1,7,-1
 682 157 l 1,8,-1
 992 157 l 1,9,-1
 992 0 l 1,10,-1
 512 0 l 1,11,-1
 512 256 l 1,12,-1
 278 256 l 1,13,-1
 197 0 l 1,14,-1
 32 0 l 1,15,-1
 396.999023438 1152 l 1,0,-1
512 995 m 1,16,-1
 328 413 l 1,17,-1
 512 413 l 1,18,-1
 512 995 l 1,16,-1
EndSplineSet
EndChar

StartChar: agave.Oslashduck
Encoding: 65564 -1 124
Width: 1024
VWidth: 0
Flags: W
LayerCount: 2
Fore
SplineSet
815 1280 m 1,0,-1
 960 1280 l 1,1,-1
 839 1053 l 1,2,3
 976 911 976 911 976 576 c 0,4,5
 976 413 976 413 944.5 297 c 128,-1,6
 913 181 913 181 851 113 c 128,-1,7
 789 45 789 45 706 14.5 c 128,-1,8
 623 -16 623 -16 512 -16 c 0,9,10
 381 -16 381 -16 291 25 c 1,11,-1
 209 -128 l 1,12,-1
 64 -128 l 1,13,-1
 185 99 l 1,14,15
 48 241 48 241 48 576 c 0,16,17
 48 739 48 739 79.5 855 c 128,-1,18
 111 971 111 971 173 1039 c 128,-1,19
 235 1107 235 1107 318 1137.5 c 128,-1,20
 401 1168 401 1168 512 1168 c 0,21,22
 643 1168 643 1168 733 1127 c 1,23,-1
 815 1280 l 1,0,-1
512 1011 m 0,24,25
 417 1011 417 1011 354 971 c 128,-1,26
 291 931 291 931 254.5 833 c 128,-1,27
 218 735 218 735 218 576 c 0,28,29
 218 375 218 375 276 269 c 1,30,-1
 655 979 l 1,31,32
 596 1011 596 1011 512 1011 c 0,24,25
748 883 m 1,33,-1
 369 173 l 1,34,35
 428 141 428 141 512 141 c 0,36,37
 607 141 607 141 670 181 c 128,-1,38
 733 221 733 221 769.5 319 c 128,-1,39
 806 417 806 417 806 576 c 0,40,41
 806 777 806 777 748 883 c 1,33,-1
EndSplineSet
EndChar

StartChar: agave.Ezhduck
Encoding: 65565 -1 125
Width: 1024
VWidth: 0
Flags: W
LayerCount: 2
Fore
SplineSet
896 1152 m 1,0,-1
 896 995 l 1,1,-1
 520 669 l 1,2,3
 723 668 723 668 833.5 595.5 c 128,-1,4
 944 523 944 523 944 376 c 0,5,6
 944 270 944 270 904 195 c 128,-1,7
 864 120 864 120 785.5 76 c 128,-1,8
 707 32 707 32 601.5 12 c 128,-1,9
 496 -8 496 -8 355 -8 c 0,10,11
 284 -8 284 -8 219 -4 c 128,-1,12
 154 -0 154 -0 125 4 c 2,13,-1
 96 8 l 1,14,-1
 96 157 l 1,15,-1
 355 157 l 2,16,17
 560 157 560 157 667 207.5 c 128,-1,18
 774 258 774 258 774 376 c 0,19,20
 774 439 774 439 692.5 475.5 c 128,-1,21
 611 512 611 512 469 512 c 2,22,-1
 280 512 l 1,23,-1
 280 669 l 1,24,-1
 656 995 l 1,25,-1
 128 995 l 1,26,-1
 128 1152 l 1,27,-1
 896 1152 l 1,0,-1
EndSplineSet
EndChar

StartChar: agave.Gammaduck
Encoding: 65566 -1 126
Width: 1024
VWidth: 0
Flags: W
LayerCount: 2
Fore
SplineSet
160 0 m 1,0,-1
 160 1152 l 1,1,-1
 896 1152 l 1,2,-1
 896 995 l 1,3,-1
 330 995 l 1,4,-1
 330 0 l 1,5,-1
 160 0 l 1,0,-1
EndSplineSet
EndChar

StartChar: agave.Ucyrduck
Encoding: 65567 -1 127
Width: 1024
VWidth: 0
Flags: W
LayerCount: 2
Fore
SplineSet
805 1152 m 1,0,-1
 992 1152 l 1,1,-1
 571 233 l 2,2,3
 549 185 549 185 538 162.5 c 128,-1,4
 527 140 527 140 508.5 105.5 c 128,-1,5
 490 71 490 71 477 55.5 c 128,-1,6
 464 40 464 40 445 22.5 c 128,-1,7
 426 5 426 5 405.5 -1.5 c 128,-1,8
 385 -8 385 -8 360 -8 c 0,9,10
 323 -8 323 -8 289 -4 c 128,-1,11
 255 -0 255 -0 239.5 4 c 2,12,-1
 224 8 l 1,13,-1
 224 157 l 1,14,15
 262 157 262 157 277.5 157 c 128,-1,16
 293 157 293 157 314.5 163.5 c 128,-1,17
 336 170 336 170 342.5 175 c 128,-1,18
 349 180 349 180 365 202.5 c 128,-1,19
 381 225 381 225 389.5 243.5 c 128,-1,20
 398 262 398 262 419 308 c 1,21,-1
 32 1152 l 1,22,-1
 219 1152 l 1,23,-1
 512 512 l 1,24,-1
 805 1152 l 1,0,-1
EndSplineSet
EndChar

StartChar: agave.Izhitsaduck
Encoding: 65568 -1 128
Width: 1024
VWidth: 0
Flags: W
LayerCount: 2
Fore
SplineSet
32 1152 m 1,0,-1
 211 1152 l 1,1,-1
 473 354 l 1,2,-1
 512 177 l 1,3,-1
 551 354 l 1,4,-1
 747 951 l 2,5,6
 764 1002 764 1002 772.5 1025 c 128,-1,7
 781 1048 781 1048 796.5 1080.5 c 128,-1,8
 812 1113 812 1113 826.5 1126 c 128,-1,9
 841 1139 841 1139 864.5 1149.5 c 128,-1,10
 888 1160 888 1160 918 1160 c 0,11,12
 947 1160 947 1160 973.5 1156 c 128,-1,13
 1000 1152 1000 1152 1012 1148 c 2,14,-1
 1024 1144 l 1,15,-1
 1024 995 l 1,16,17
 962 995 962 995 947.5 983 c 128,-1,18
 933 971 933 971 909 898 c 2,19,-1
 614 0 l 1,20,-1
 410 0 l 1,21,-1
 32 1152 l 1,0,-1
EndSplineSet
EndChar

StartChar: agave.Schwaduck
Encoding: 65569 -1 129
Width: 1024
VWidth: 0
Flags: W
LayerCount: 2
Fore
SplineSet
406 1160 m 0,0,1
 649 1160 649 1160 792.5 997 c 128,-1,2
 936 834 936 834 936 572 c 128,-1,3
 936 310 936 310 821 147 c 128,-1,4
 706 -16 706 -16 512 -16 c 0,5,6
 319 -16 319 -16 207.5 102 c 128,-1,7
 96 220 96 220 96 424 c 2,8,-1
 96 512 l 2,9,10
 96 601 96 601 133 635 c 128,-1,11
 170 669 170 669 266 669 c 2,12,-1
 758 669 l 1,13,14
 758 676 758 676 757 687.5 c 128,-1,15
 756 699 756 699 749.5 733 c 128,-1,16
 743 767 743 767 730.5 798 c 128,-1,17
 718 829 718 829 692 866.5 c 128,-1,18
 666 904 666 904 630 931 c 128,-1,19
 594 958 594 958 536 976.5 c 128,-1,20
 478 995 478 995 406 995 c 2,21,-1
 184 995 l 1,22,-1
 184 1144 l 1,23,24
 269 1160 269 1160 406 1160 c 0,0,1
266 512 m 1,25,-1
 266 424 l 2,26,27
 266 293 266 293 332 217 c 128,-1,28
 398 141 398 141 512 141 c 0,29,30
 562 141 562 141 603 161.5 c 128,-1,31
 644 182 644 182 668.5 214.5 c 128,-1,32
 693 247 693 247 711.5 286.5 c 128,-1,33
 730 326 730 326 738.5 366 c 128,-1,34
 747 406 747 406 752 438.5 c 128,-1,35
 757 471 757 471 757.5 491.5 c 2,36,-1
 758 512 l 1,37,-1
 266 512 l 1,25,-1
EndSplineSet
EndChar

StartChar: agave.Zeduck
Encoding: 65570 -1 130
Width: 1024
VWidth: 0
Flags: W
LayerCount: 2
Fore
SplineSet
160 1144 m 1,0,1
 265 1160 265 1160 435 1160 c 0,2,3
 653 1160 653 1160 766.5 1084.5 c 128,-1,4
 880 1009 880 1009 880 832 c 0,5,6
 880 782 880 782 862.5 741 c 128,-1,7
 845 700 845 700 820 676.5 c 128,-1,8
 795 653 795 653 770 636.5 c 128,-1,9
 745 620 745 620 727.5 614.5 c 2,10,-1
 710 609 l 1,11,12
 718 607 718 607 731.5 602 c 128,-1,13
 745 597 745 597 780 575.5 c 128,-1,14
 815 554 815 554 841.5 526 c 128,-1,15
 868 498 868 498 890 447 c 128,-1,16
 912 396 912 396 912 334 c 0,17,18
 912 150 912 150 790.5 71 c 128,-1,19
 669 -8 669 -8 435 -8 c 0,20,21
 351 -8 351 -8 274 -4 c 128,-1,22
 197 -0 197 -0 162.5 4 c 2,23,-1
 128 8 l 1,24,-1
 128 157 l 1,25,-1
 435 157 l 2,26,27
 586 157 586 157 664 197.5 c 128,-1,28
 742 238 742 238 742 334 c 128,-1,29
 742 430 742 430 655.5 471 c 128,-1,30
 569 512 569 512 402 512 c 2,31,-1
 224 512 l 1,32,-1
 224 669 l 1,33,-1
 390 669 l 2,34,35
 547 669 547 669 628.5 706.5 c 128,-1,36
 710 744 710 744 710 832 c 128,-1,37
 710 920 710 920 640 957.5 c 128,-1,38
 570 995 570 995 435 995 c 2,39,-1
 160 995 l 1,40,-1
 160 1144 l 1,0,1
EndSplineSet
EndChar

StartChar: agave.Otildeduck
Encoding: 65571 -1 131
Width: 1024
VWidth: 0
Flags: W
LayerCount: 2
Fore
SplineSet
512 1168 m 128,-1,1
 623 1168 623 1168 706 1137.5 c 128,-1,2
 789 1107 789 1107 851 1039 c 128,-1,3
 913 971 913 971 944.5 855 c 128,-1,4
 976 739 976 739 976 576 c 128,-1,5
 976 413 976 413 944.5 297 c 128,-1,6
 913 181 913 181 851 113 c 128,-1,7
 789 45 789 45 706 14.5 c 128,-1,8
 623 -16 623 -16 512 -16 c 128,-1,9
 401 -16 401 -16 318 14.5 c 128,-1,10
 235 45 235 45 173 113 c 128,-1,11
 111 181 111 181 79.5 297 c 128,-1,12
 48 413 48 413 48 576 c 128,-1,13
 48 739 48 739 79.5 855 c 128,-1,14
 111 971 111 971 173 1039 c 128,-1,15
 235 1107 235 1107 318 1137.5 c 128,-1,0
 401 1168 401 1168 512 1168 c 128,-1,1
512 1011 m 128,-1,17
 383 1011 383 1011 309 931.5 c 128,-1,18
 235 852 235 852 221 669 c 1,19,-1
 803 669 l 1,20,21
 789 852 789 852 715 931.5 c 128,-1,16
 641 1011 641 1011 512 1011 c 128,-1,17
220 512 m 1,22,23
 230 313 230 313 304 227 c 128,-1,24
 378 141 378 141 512 141 c 128,-1,25
 646 141 646 141 720 227 c 128,-1,26
 794 313 794 313 804 512 c 1,27,-1
 220 512 l 1,22,23
EndSplineSet
EndChar

StartChar: agave.Ecyrduck
Encoding: 65572 -1 132
Width: 1024
VWidth: 0
Flags: W
LayerCount: 2
Fore
SplineSet
359 1160 m 0,0,1
 492 1160 492 1160 590.5 1130 c 128,-1,2
 689 1100 689 1100 763 1033 c 128,-1,3
 837 966 837 966 874.5 851.5 c 128,-1,4
 912 737 912 737 912 576 c 0,5,6
 912 305 912 305 763.5 148.5 c 128,-1,7
 615 -8 615 -8 359 -8 c 0,8,9
 295 -8 295 -8 237.5 -4 c 128,-1,10
 180 -0 180 -0 154 4 c 2,11,-1
 128 8 l 1,12,-1
 128 157 l 1,13,-1
 359 157 l 2,14,15
 518 157 518 157 616.5 251 c 128,-1,16
 715 345 715 345 731 512 c 1,17,-1
 192 512 l 1,18,-1
 192 669 l 1,19,-1
 729 669 l 1,20,21
 710 843 710 843 616.5 919 c 128,-1,22
 523 995 523 995 359 995 c 2,23,-1
 128 995 l 1,24,-1
 128 1144 l 1,25,26
 216 1160 216 1160 359 1160 c 0,0,1
EndSplineSet
EndChar

StartChar: agave.Cheduck
Encoding: 65573 -1 133
Width: 1024
VWidth: 0
Flags: W
LayerCount: 2
Fore
SplineSet
896 0 m 1,0,-1
 726 0 l 1,1,-1
 726 520 l 1,2,3
 644 504 644 504 512 504 c 0,4,5
 324 504 324 504 226 595.5 c 128,-1,6
 128 687 128 687 128 902 c 2,7,-1
 128 1152 l 1,8,-1
 298 1152 l 1,9,-1
 298 902 l 2,10,11
 298 776 298 776 352.5 722.5 c 128,-1,12
 407 669 407 669 512 669 c 2,13,-1
 726 669 l 1,14,-1
 726 1152 l 1,15,-1
 896 1152 l 1,16,-1
 896 0 l 1,0,-1
EndSplineSet
EndChar

StartChar: agave.Yeruduck
Encoding: 65574 -1 134
Width: 1024
VWidth: 0
Flags: W
LayerCount: 2
Fore
SplineSet
64 1152 m 1,0,-1
 234 1152 l 1,1,-1
 234 768 l 1,2,-1
 340 768 l 2,3,4
 507 768 507 768 594.5 678.5 c 128,-1,5
 682 589 682 589 682 380 c 0,6,7
 682 172 682 172 595.5 86 c 128,-1,8
 509 0 509 0 340 0 c 2,9,-1
 64 0 l 1,10,-1
 64 1152 l 1,0,-1
790 1152 m 1,11,-1
 960 1152 l 1,12,-1
 960 0 l 1,13,-1
 790 0 l 1,14,-1
 790 1152 l 1,11,-1
234 611 m 1,15,-1
 234 157 l 1,16,-1
 340 157 l 2,17,18
 425 157 425 157 468.5 207 c 128,-1,19
 512 257 512 257 512 380 c 0,20,21
 512 504 512 504 468 557.5 c 128,-1,22
 424 611 424 611 340 611 c 2,23,-1
 234 611 l 1,15,-1
EndSplineSet
EndChar

StartChar: agave.Ohornduck
Encoding: 65575 -1 135
Width: 1024
VWidth: 0
Flags: W
LayerCount: 2
Fore
SplineSet
854 1280 m 1,0,-1
 1024 1280 l 1,1,2
 1024 1051 1024 1051 908 953 c 1,3,4
 976 815 976 815 976 576 c 0,5,6
 976 413 976 413 944.5 297 c 128,-1,7
 913 181 913 181 851 113 c 128,-1,8
 789 45 789 45 706 14.5 c 128,-1,9
 623 -16 623 -16 512 -16 c 128,-1,10
 401 -16 401 -16 318 14.5 c 128,-1,11
 235 45 235 45 173 113 c 128,-1,12
 111 181 111 181 79.5 297 c 128,-1,13
 48 413 48 413 48 576 c 128,-1,14
 48 739 48 739 79.5 855 c 128,-1,15
 111 971 111 971 173 1039 c 128,-1,16
 235 1107 235 1107 318 1137.5 c 128,-1,17
 401 1168 401 1168 512 1168 c 0,18,19
 708 1168 708 1168 817 1073 c 1,20,21
 854 1138 854 1138 854 1280 c 1,0,-1
512 1011 m 128,-1,23
 417 1011 417 1011 354 971 c 128,-1,24
 291 931 291 931 254.5 833 c 128,-1,25
 218 735 218 735 218 576 c 128,-1,26
 218 417 218 417 254.5 319 c 128,-1,27
 291 221 291 221 354 181 c 128,-1,28
 417 141 417 141 512 141 c 128,-1,29
 607 141 607 141 670 181 c 128,-1,30
 733 221 733 221 769.5 319 c 128,-1,31
 806 417 806 417 806 576 c 128,-1,32
 806 735 806 735 769.5 833 c 128,-1,33
 733 931 733 931 670 971 c 128,-1,22
 607 1011 607 1011 512 1011 c 128,-1,23
EndSplineSet
EndChar

StartChar: agave.Uhornduck
Encoding: 65576 -1 136
Width: 1024
VWidth: 0
Flags: W
LayerCount: 2
Fore
SplineSet
854 1280 m 1,0,-1
 1024 1280 l 1,1,2
 1024 1199 1024 1199 1008.5 1133.5 c 128,-1,3
 993 1068 993 1068 970 1029 c 128,-1,4
 947 990 947 990 916 962 c 128,-1,5
 885 934 885 934 860.5 922 c 128,-1,6
 836 910 836 910 810 903 c 1,7,-1
 810 576 l 2,8,9
 810 413 810 413 782.5 297 c 128,-1,10
 755 181 755 181 701 113 c 128,-1,11
 647 45 647 45 574.5 14.5 c 128,-1,12
 502 -16 502 -16 405 -16 c 128,-1,13
 308 -16 308 -16 235.5 14.5 c 128,-1,14
 163 45 163 45 109 113 c 128,-1,15
 55 181 55 181 27.5 297 c 128,-1,16
 0 413 0 413 0 576 c 2,17,-1
 0 1152 l 1,18,-1
 170 1152 l 1,19,-1
 170 576 l 1,20,21
 150 141 150 141 405 141 c 0,22,23
 520 141 520 141 580 241.5 c 128,-1,24
 640 342 640 342 640 576 c 2,25,-1
 640 1152 l 1,26,-1
 810 1152 l 1,27,-1
 810 1062 l 1,28,29
 854 1123 854 1123 854 1280 c 1,0,-1
EndSplineSet
EndChar

StartChar: agave.Omegaduck
Encoding: 65577 -1 137
Width: 1024
VWidth: 0
Flags: W
LayerCount: 2
Fore
SplineSet
512 1168 m 132,-1,1
 623 1168 623 1168 706 1140.5 c 132,-1,2
 789 1113 789 1113 851 1051.5 c 132,-1,3
 913 990 913 990 944.5 885.5 c 132,-1,4
 976 781 976 781 976 634 c 4,5,6
 976 576 976 576 961.5 518.5 c 132,-1,7
 947 461 947 461 924 415.5 c 132,-1,8
 901 370 901 370 873.5 328 c 132,-1,9
 846 286 846 286 818.5 255.5 c 132,-1,10
 791 225 791 225 768 202.5 c 132,-1,11
 745 180 745 180 730.5 168.5 c 6,12,-1
 716 157 l 5,13,-1
 992 157 l 5,14,-1
 992 0 l 5,15,-1
 614 0 l 5,16,-1
 614 256 l 5,17,18
 622 260 622 260 635 268 c 132,-1,19
 648 276 648 276 681 307.5 c 132,-1,20
 714 339 714 339 739 378.5 c 132,-1,21
 764 418 764 418 785 486.5 c 132,-1,22
 806 555 806 555 806 634 c 4,23,24
 806 837 806 837 731 924 c 132,-1,25
 656 1011 656 1011 512 1011 c 132,-1,26
 368 1011 368 1011 293 924 c 132,-1,27
 218 837 218 837 218 634 c 4,28,29
 218 555 218 555 238 487 c 132,-1,30
 258 419 258 419 286 378 c 132,-1,31
 314 337 314 337 342 308 c 132,-1,32
 370 279 370 279 390 267.5 c 6,33,-1
 410 256 l 5,34,-1
 410 0 l 5,35,-1
 32 0 l 5,36,-1
 32 157 l 5,37,-1
 308 157 l 5,38,39
 297 165 297 165 279.5 179.5 c 132,-1,40
 262 194 262 194 217.5 243 c 132,-1,41
 173 292 173 292 138.5 344 c 132,-1,42
 104 396 104 396 76 475.5 c 132,-1,43
 48 555 48 555 48 634 c 4,44,45
 48 781 48 781 79.5 885.5 c 132,-1,46
 111 990 111 990 173 1051.5 c 132,-1,47
 235 1113 235 1113 318 1140.5 c 132,-1,0
 401 1168 401 1168 512 1168 c 132,-1,1
EndSplineSet
EndChar

StartChar: agave.diaresisduck
Encoding: 65578 -1 138
Width: 1024
VWidth: 0
Flags: W
LayerCount: 2
Fore
SplineSet
112 1392 m 128,-1,1
 158 1392 158 1392 191 1359 c 128,-1,2
 224 1326 224 1326 224 1280 c 128,-1,3
 224 1234 224 1234 191 1201 c 128,-1,4
 158 1168 158 1168 112 1168 c 128,-1,5
 66 1168 66 1168 33 1201 c 128,-1,6
 0 1234 0 1234 0 1280 c 128,-1,7
 0 1326 0 1326 33 1359 c 128,-1,0
 66 1392 66 1392 112 1392 c 128,-1,1
912 1392 m 128,-1,9
 958 1392 958 1392 991 1359 c 128,-1,10
 1024 1326 1024 1326 1024 1280 c 128,-1,11
 1024 1234 1024 1234 991 1201 c 128,-1,12
 958 1168 958 1168 912 1168 c 128,-1,13
 866 1168 866 1168 833 1201 c 128,-1,14
 800 1234 800 1234 800 1280 c 128,-1,15
 800 1326 800 1326 833 1359 c 128,-1,8
 866 1392 866 1392 912 1392 c 128,-1,9
EndSplineSet
EndChar

StartChar: cent
Encoding: 162 162 140
Width: 1024
VWidth: 0
Flags: W
LayerCount: 2
Fore
SplineSet
512 1280 m 1,0,-1
 682 1280 l 1,1,-1
 682 1031 l 1,2,3
 732 1031 732 1031 777.5 1027.5 c 128,-1,4
 823 1024 823 1024 843.5 1020 c 2,5,-1
 864 1016 l 1,6,-1
 864 867 l 1,7,-1
 661 867 l 1,8,-1
 661 413 l 1,9,-1
 864 413 l 1,10,-1
 864 264 l 1,11,12
 794 248 794 248 682 248 c 1,13,-1
 682 0 l 1,14,-1
 512 0 l 1,15,-1
 512 254 l 1,16,17
 320 275 320 275 216 367 c 128,-1,18
 112 459 112 459 112 640 c 0,19,20
 112 793 112 793 219.5 894.5 c 128,-1,21
 327 996 327 996 512 1023 c 1,22,-1
 512 1280 l 1,0,-1
533 859 m 1,23,24
 415 841 415 841 348.5 783.5 c 128,-1,25
 282 726 282 726 282 640 c 0,26,27
 282 539 282 539 346 486 c 128,-1,28
 410 433 410 433 533 419 c 1,29,-1
 533 859 l 1,23,24
EndSplineSet
EndChar

StartChar: sterling
Encoding: 163 163 141
Width: 1024
VWidth: 0
Flags: W
LayerCount: 2
Fore
SplineSet
618 1288 m 0,0,1
 672 1288 672 1288 723.5 1272.5 c 128,-1,2
 775 1257 775 1257 810.5 1234.5 c 128,-1,3
 846 1212 846 1212 873.5 1189.5 c 128,-1,4
 901 1167 901 1167 914.5 1151.5 c 2,5,-1
 928 1136 l 1,6,-1
 832 1024 l 1,7,8
 829 1028 829 1028 822.5 1035.5 c 128,-1,9
 816 1043 816 1043 794.5 1061.5 c 128,-1,10
 773 1080 773 1080 750 1094 c 128,-1,11
 727 1108 727 1108 691 1119.5 c 128,-1,12
 655 1131 655 1131 618 1131 c 0,13,14
 519 1131 519 1131 461.5 1073.5 c 128,-1,15
 404 1016 404 1016 404 917 c 2,16,-1
 404 719 l 1,17,-1
 832 719 l 1,18,-1
 832 561 l 1,19,-1
 404 561 l 1,20,-1
 404 157 l 1,21,-1
 928 157 l 1,22,-1
 928 0 l 1,23,-1
 64 0 l 1,24,-1
 64 157 l 1,25,-1
 234 157 l 1,26,-1
 234 561 l 1,27,-1
 64 561 l 1,28,-1
 64 719 l 1,29,-1
 234 719 l 1,30,-1
 234 917 l 2,31,32
 234 1089 234 1089 337 1188.5 c 128,-1,33
 440 1288 440 1288 618 1288 c 0,0,1
EndSplineSet
EndChar

StartChar: currency
Encoding: 164 164 142
Width: 1024
VWidth: 0
Flags: W
LayerCount: 2
Fore
SplineSet
196 1248 m 1,0,-1
 349 999 l 1,1,2
 419 1032 419 1032 512 1032 c 0,3,4
 604 1032 604 1032 675 999 c 1,5,-1
 828 1248 l 1,6,-1
 960 1164 l 1,7,-1
 791 908 l 1,8,9
 872 804 872 804 872 640 c 128,-1,10
 872 476 872 476 791 372 c 1,11,-1
 960 116 l 1,12,-1
 828 32 l 1,13,-1
 675 281 l 1,14,15
 604 248 604 248 512 248 c 128,-1,16
 420 248 420 248 349 281 c 1,17,-1
 196 32 l 1,18,-1
 64 116 l 1,19,-1
 233 372 l 1,20,21
 152 476 152 476 152 640 c 128,-1,22
 152 804 152 804 233 908 c 1,23,-1
 64 1164 l 1,24,-1
 196 1248 l 1,0,-1
512 886 m 128,-1,26
 418 886 418 886 363.5 820 c 128,-1,27
 309 754 309 754 309 640 c 128,-1,28
 309 526 309 526 363.5 460 c 128,-1,29
 418 394 418 394 512 394 c 128,-1,30
 606 394 606 394 660.5 460 c 128,-1,31
 715 526 715 526 715 640 c 128,-1,32
 715 754 715 754 660.5 820 c 128,-1,25
 606 886 606 886 512 886 c 128,-1,26
EndSplineSet
EndChar

StartChar: yen
Encoding: 165 165 143
Width: 1024
VWidth: 0
Flags: W
LayerCount: 2
Fore
SplineSet
32 1280 m 1,0,-1
 223 1280 l 1,1,-1
 512 700 l 1,2,-1
 801 1280 l 1,3,-1
 992 1280 l 1,4,-1
 678 669 l 1,5,-1
 960 669 l 1,6,-1
 960 512 l 1,7,-1
 597 512 l 1,8,-1
 597 355 l 1,9,-1
 960 355 l 1,10,-1
 960 198 l 1,11,-1
 597 198 l 1,12,-1
 597 0 l 1,13,-1
 427 0 l 1,14,-1
 427 198 l 1,15,-1
 64 198 l 1,16,-1
 64 355 l 1,17,-1
 427 355 l 1,18,-1
 427 512 l 1,19,-1
 64 512 l 1,20,-1
 64 669 l 1,21,-1
 346 669 l 1,22,-1
 32 1280 l 1,0,-1
EndSplineSet
EndChar

StartChar: brokenbar
Encoding: 166 166 144
Width: 1024
VWidth: 0
Flags: W
LayerCount: 2
Fore
SplineSet
427 1437 m 1,0,-1
 597 1437 l 1,1,-1
 597 733 l 1,2,-1
 427 733 l 1,3,-1
 427 1437 l 1,0,-1
427 448 m 1,4,-1
 597 448 l 1,5,-1
 597 -256 l 1,6,-1
 427 -256 l 1,7,-1
 427 448 l 1,4,-1
EndSplineSet
EndChar

StartChar: section
Encoding: 167 167 145
Width: 1024
VWidth: 0
Flags: W
LayerCount: 2
Fore
SplineSet
661 1288 m 0,0,1
 717 1288 717 1288 767.5 1284 c 128,-1,2
 818 1280 818 1280 841 1276 c 2,3,-1
 864 1272 l 1,4,-1
 864 1142 l 1,5,-1
 661 1142 l 2,6,7
 500 1142 500 1142 416.5 1100 c 128,-1,8
 333 1058 333 1058 333 960 c 0,9,10
 333 922 333 922 365 895.5 c 128,-1,11
 397 869 397 869 448 853 c 128,-1,12
 499 837 499 837 560.5 821.5 c 128,-1,13
 622 806 622 806 684 782 c 128,-1,14
 746 758 746 758 797 723 c 128,-1,15
 848 688 848 688 880 625 c 128,-1,16
 912 562 912 562 912 477 c 0,17,18
 912 306 912 306 803 208 c 1,19,20
 808 202 808 202 815.5 190.5 c 128,-1,21
 823 179 823 179 835.5 141.5 c 128,-1,22
 848 104 848 104 848 64 c 0,23,24
 848 -27 848 -27 815 -91 c 128,-1,25
 782 -155 782 -155 717.5 -192.5 c 128,-1,26
 653 -230 653 -230 566 -247 c 128,-1,27
 479 -264 479 -264 363 -264 c 0,28,29
 307 -264 307 -264 256.5 -260 c 128,-1,30
 206 -256 206 -256 183 -252 c 2,31,-1
 160 -248 l 1,32,-1
 160 -118 l 1,33,-1
 363 -118 l 2,34,35
 524 -118 524 -118 607.5 -76 c 128,-1,36
 691 -34 691 -34 691 64 c 0,37,38
 691 102 691 102 659 128.5 c 128,-1,39
 627 155 627 155 576 171 c 128,-1,40
 525 187 525 187 463.5 202.5 c 128,-1,41
 402 218 402 218 340 242 c 128,-1,42
 278 266 278 266 227 301 c 128,-1,43
 176 336 176 336 144 399 c 128,-1,44
 112 462 112 462 112 547 c 0,45,46
 112 718 112 718 221 816 c 1,47,48
 216 822 216 822 208.5 833.5 c 128,-1,49
 201 845 201 845 188.5 882.5 c 128,-1,50
 176 920 176 920 176 960 c 0,51,52
 176 1051 176 1051 209 1115 c 128,-1,53
 242 1179 242 1179 306.5 1216.5 c 128,-1,54
 371 1254 371 1254 458 1271 c 128,-1,55
 545 1288 545 1288 661 1288 c 0,0,1
356 726 m 1,56,57
 269 667 269 667 269 547 c 0,58,59
 269 503 269 503 287.5 469.5 c 128,-1,60
 306 436 306 436 334 416 c 128,-1,61
 362 396 362 396 405.5 378.5 c 128,-1,62
 449 361 449 361 488.5 351 c 128,-1,63
 528 341 528 341 580.5 326 c 128,-1,64
 633 311 633 311 668 298 c 1,65,66
 755 357 755 357 755 477 c 0,67,68
 755 521 755 521 736.5 554.5 c 128,-1,69
 718 588 718 588 690 608 c 128,-1,70
 662 628 662 628 618.5 645.5 c 128,-1,71
 575 663 575 663 535.5 673 c 128,-1,72
 496 683 496 683 443.5 698 c 128,-1,73
 391 713 391 713 356 726 c 1,56,57
EndSplineSet
EndChar

StartChar: copyright
Encoding: 169 169 147
Width: 1024
VWidth: 0
Flags: W
LayerCount: 2
Fore
SplineSet
512 1296 m 128,-1,1
 735 1296 735 1296 863.5 1139.5 c 128,-1,2
 992 983 992 983 992 712 c 128,-1,3
 992 441 992 441 863.5 284.5 c 128,-1,4
 735 128 735 128 512 128 c 128,-1,5
 289 128 289 128 160.5 284.5 c 128,-1,6
 32 441 32 441 32 712 c 128,-1,7
 32 983 32 983 160.5 1139.5 c 128,-1,0
 289 1296 289 1296 512 1296 c 128,-1,1
512 1168 m 128,-1,9
 352 1168 352 1168 260 1046 c 128,-1,10
 168 924 168 924 168 712 c 128,-1,11
 168 500 168 500 260 378 c 128,-1,12
 352 256 352 256 512 256 c 128,-1,13
 672 256 672 256 764 378 c 128,-1,14
 856 500 856 500 856 712 c 128,-1,15
 856 924 856 924 764 1046 c 128,-1,8
 672 1168 672 1168 512 1168 c 128,-1,9
572 976 m 0,16,17
 608 976 608 976 641 968 c 128,-1,18
 674 960 674 960 689 952 c 2,19,-1
 704 944 l 1,20,-1
 704 840 l 1,21,-1
 572 840 l 2,22,23
 511 843 511 843 475.5 807.5 c 128,-1,24
 440 772 440 772 440 712 c 0,25,26
 440 653 440 653 475.5 618.5 c 128,-1,27
 511 584 511 584 572 584 c 2,28,-1
 704 584 l 1,29,-1
 704 480 l 1,30,31
 654 448 654 448 572 448 c 0,32,33
 448 448 448 448 376 519 c 128,-1,34
 304 590 304 590 304 712 c 128,-1,35
 304 834 304 834 376 905 c 128,-1,36
 448 976 448 976 572 976 c 0,16,17
EndSplineSet
EndChar

StartChar: ordfeminine
Encoding: 170 170 148
Width: 1024
VWidth: 0
Flags: W
LayerCount: 2
Fore
SplineSet
408 1284 m 0,0,1
 629 1284 629 1284 714.5 1229.5 c 128,-1,2
 800 1175 800 1175 800 1034 c 2,3,-1
 800 648 l 2,4,5
 800 585 800 585 761 548.5 c 128,-1,6
 722 512 722 512 654 512 c 2,7,-1
 469 512 l 2,8,9
 352 512 352 512 284 578 c 128,-1,10
 216 644 216 644 216 759 c 0,11,12
 216 854 216 854 284 909 c 128,-1,13
 352 964 352 964 469 964 c 2,14,-1
 654 964 l 1,15,-1
 654 1034 l 2,16,17
 654 1098 654 1098 600.5 1123 c 128,-1,18
 547 1148 547 1148 408 1148 c 2,19,-1
 256 1148 l 1,20,-1
 256 1276 l 1,21,22
 314 1284 314 1284 408 1284 c 0,0,1
469 828 m 2,23,24
 419 828 419 828 390.5 809.5 c 128,-1,25
 362 791 362 791 362 759 c 0,26,27
 362 707 362 707 390.5 677.5 c 128,-1,28
 419 648 419 648 469 648 c 2,29,-1
 654 648 l 1,30,-1
 654 828 l 1,31,-1
 469 828 l 2,23,24
224 392 m 1,32,-1
 800 392 l 1,33,-1
 800 256 l 1,34,-1
 224 256 l 1,35,-1
 224 392 l 1,32,-1
EndSplineSet
EndChar

StartChar: guillemotleft
Encoding: 171 171 149
Width: 1024
VWidth: 0
Flags: W
LayerCount: 2
Fore
SplineSet
390 1102 m 1,0,-1
 513 1024 l 1,1,-1
 269 640 l 1,2,-1
 513 256 l 1,3,-1
 390 178 l 1,4,-1
 96 640 l 1,5,-1
 390 1102 l 1,0,-1
805 1102 m 1,6,-1
 928 1024 l 1,7,-1
 684 640 l 1,8,-1
 928 256 l 1,9,-1
 805 178 l 1,10,-1
 511 640 l 1,11,-1
 805 1102 l 1,6,-1
EndSplineSet
EndChar

StartChar: logicalnot
Encoding: 172 172 150
Width: 1024
VWidth: 0
Flags: W
LayerCount: 2
Fore
SplineSet
128 719 m 1,0,-1
 896 719 l 1,1,-1
 896 256 l 1,2,-1
 739 256 l 1,3,-1
 739 561 l 1,4,-1
 128 561 l 1,5,-1
 128 719 l 1,0,-1
EndSplineSet
EndChar

StartChar: registered
Encoding: 174 174 152
Width: 1024
VWidth: 0
Flags: W
LayerCount: 2
Fore
SplineSet
512 1296 m 128,-1,1
 735 1296 735 1296 863.5 1139.5 c 128,-1,2
 992 983 992 983 992 712 c 128,-1,3
 992 441 992 441 863.5 284.5 c 128,-1,4
 735 128 735 128 512 128 c 128,-1,5
 289 128 289 128 160.5 284.5 c 128,-1,6
 32 441 32 441 32 712 c 128,-1,7
 32 983 32 983 160.5 1139.5 c 128,-1,0
 289 1296 289 1296 512 1296 c 128,-1,1
512 1168 m 128,-1,9
 352 1168 352 1168 260 1046 c 128,-1,10
 168 924 168 924 168 712 c 128,-1,11
 168 500 168 500 260 378 c 128,-1,12
 352 256 352 256 512 256 c 128,-1,13
 672 256 672 256 764 378 c 128,-1,14
 856 500 856 500 856 712 c 128,-1,15
 856 924 856 924 764 1046 c 128,-1,8
 672 1168 672 1168 512 1168 c 128,-1,9
288 1025 m 1,16,-1
 543 1025 l 2,17,18
 640 1025 640 1025 696 970 c 128,-1,19
 752 915 752 915 752 821 c 0,20,21
 752 720 752 720 646 675 c 1,22,-1
 752 399 l 1,23,-1
 616 399 l 1,24,-1
 519 649 l 1,25,-1
 424 649 l 1,26,-1
 424 399 l 1,27,-1
 288 399 l 1,28,-1
 288 1025 l 1,16,-1
424 905 m 1,29,-1
 424 769 l 1,30,-1
 497 769 l 2,31,32
 552 769 552 769 584 783 c 128,-1,33
 616 797 616 797 616 821 c 0,34,35
 616 860 616 860 596.5 882.5 c 128,-1,36
 577 905 577 905 543 905 c 2,37,-1
 424 905 l 1,29,-1
EndSplineSet
EndChar

StartChar: degree
Encoding: 176 176 154
Width: 1024
VWidth: 0
Flags: W
LayerCount: 2
Fore
SplineSet
248 1024 m 128,-1,1
 248 1134 248 1134 325 1211 c 128,-1,2
 402 1288 402 1288 512 1288 c 128,-1,3
 622 1288 622 1288 699 1211 c 128,-1,4
 776 1134 776 1134 776 1024 c 128,-1,5
 776 914 776 914 699 837 c 128,-1,6
 622 760 622 760 512 760 c 128,-1,7
 402 760 402 760 325 837 c 128,-1,0
 248 914 248 914 248 1024 c 128,-1,1
512 1152 m 128,-1,9
 459 1152 459 1152 421.5 1114.5 c 128,-1,10
 384 1077 384 1077 384 1024 c 128,-1,11
 384 971 384 971 421.5 933.5 c 128,-1,12
 459 896 459 896 512 896 c 128,-1,13
 565 896 565 896 602.5 933.5 c 128,-1,14
 640 971 640 971 640 1024 c 128,-1,15
 640 1077 640 1077 602.5 1114.5 c 128,-1,8
 565 1152 565 1152 512 1152 c 128,-1,9
EndSplineSet
EndChar

StartChar: plusminus
Encoding: 177 177 155
Width: 1024
VWidth: 0
Flags: W
LayerCount: 2
Fore
SplineSet
434 1213 m 1,0,-1
 590 1213 l 1,1,-1
 590 876 l 1,2,-1
 928 876 l 1,3,-1
 928 719 l 1,4,-1
 590 719 l 1,5,-1
 590 381 l 1,6,-1
 434 381 l 1,7,-1
 434 719 l 1,8,-1
 96 719 l 1,9,-1
 96 876 l 1,10,-1
 434 876 l 1,11,-1
 434 1213 l 1,0,-1
128 256 m 1,12,-1
 896 256 l 1,13,-1
 896 99 l 1,14,-1
 128 99 l 1,15,-1
 128 256 l 1,12,-1
EndSplineSet
EndChar

StartChar: acute
Encoding: 180 180 158
Width: 1024
VWidth: 0
Flags: W
LayerCount: 2
Fore
SplineSet
749 1141 m 1,0,-1
 379 787 l 1,1,-1
 275 891 l 1,2,-1
 629 1261 l 1,3,-1
 749 1141 l 1,0,-1
EndSplineSet
EndChar

StartChar: paragraph
Encoding: 182 182 160
Width: 1024
VWidth: 0
Flags: W
LayerCount: 2
Fore
SplineSet
384 1280 m 2,0,-1
 832 1280 l 1,1,-1
 832 0 l 1,2,-1
 704 0 l 1,3,-1
 704 1152 l 1,4,-1
 512 1152 l 1,5,-1
 512 0 l 1,6,-1
 384 0 l 1,7,-1
 384 640 l 1,8,9
 240 640 240 640 160 725 c 128,-1,10
 80 810 80 810 80 960 c 128,-1,11
 80 1110 80 1110 159 1195 c 128,-1,12
 238 1280 238 1280 384 1280 c 2,0,-1
EndSplineSet
EndChar

StartChar: periodcentered
Encoding: 183 183 161
Width: 1024
VWidth: 0
Flags: W
LayerCount: 2
Fore
SplineSet
658 640 m 128,-1,1
 658 580 658 580 615 537 c 128,-1,2
 572 494 572 494 512 494 c 128,-1,3
 452 494 452 494 409 537 c 128,-1,4
 366 580 366 580 366 640 c 128,-1,5
 366 700 366 700 409 743 c 128,-1,6
 452 786 452 786 512 786 c 128,-1,7
 572 786 572 786 615 743 c 128,-1,0
 658 700 658 700 658 640 c 128,-1,1
EndSplineSet
EndChar

StartChar: ordmasculine
Encoding: 186 186 164
Width: 1024
VWidth: 0
Flags: W
LayerCount: 2
Fore
SplineSet
512 1288 m 128,-1,1
 666 1288 666 1288 745 1199.5 c 128,-1,2
 824 1111 824 1111 824 896 c 128,-1,3
 824 681 824 681 745 592.5 c 128,-1,4
 666 504 666 504 512 504 c 128,-1,5
 358 504 358 504 279 592.5 c 128,-1,6
 200 681 200 681 200 896 c 128,-1,7
 200 1111 200 1111 279 1199.5 c 128,-1,0
 358 1288 358 1288 512 1288 c 128,-1,1
512 1152 m 128,-1,9
 430 1152 430 1152 388 1094.5 c 128,-1,10
 346 1037 346 1037 346 896 c 128,-1,11
 346 755 346 755 388 697.5 c 128,-1,12
 430 640 430 640 512 640 c 128,-1,13
 594 640 594 640 636 697.5 c 128,-1,14
 678 755 678 755 678 896 c 128,-1,15
 678 1037 678 1037 636 1094.5 c 128,-1,8
 594 1152 594 1152 512 1152 c 128,-1,9
224 392 m 1,16,-1
 800 392 l 1,17,-1
 800 256 l 1,18,-1
 224 256 l 1,19,-1
 224 392 l 1,16,-1
EndSplineSet
EndChar

StartChar: guillemotright
Encoding: 187 187 165
Width: 1024
VWidth: 0
Flags: W
LayerCount: 2
Fore
SplineSet
634 1102 m 1,0,-1
 928 640 l 1,1,-1
 634 178 l 1,2,-1
 511 256 l 1,3,-1
 755 640 l 1,4,-1
 511 1024 l 1,5,-1
 634 1102 l 1,0,-1
219 1102 m 1,6,-1
 513 640 l 1,7,-1
 219 178 l 1,8,-1
 96 256 l 1,9,-1
 340 640 l 1,10,-1
 96 1024 l 1,11,-1
 219 1102 l 1,6,-1
EndSplineSet
EndChar

StartChar: onequarter
Encoding: 188 188 166
Width: 1024
VWidth: 0
Flags: W
LayerCount: 2
Fore
SplineSet
208 1280 m 1,0,-1
 344 1280 l 1,1,-1
 344 640 l 1,2,-1
 208 640 l 1,3,-1
 208 1099 l 1,4,-1
 123 1014 l 1,5,-1
 32 1104 l 1,6,-1
 208 1280 l 1,0,-1
803 1280 m 1,7,-1
 960 1280 l 1,8,-1
 221 0 l 1,9,-1
 64 0 l 1,10,-1
 803 1280 l 1,7,-1
734 640 m 1,11,-1
 916 640 l 1,12,-1
 916 256 l 1,13,-1
 992 256 l 1,14,-1
 992 128 l 1,15,-1
 916 128 l 1,16,-1
 916 0 l 1,17,-1
 780 0 l 1,18,-1
 780 128 l 1,19,-1
 512 128 l 1,20,-1
 512 256 l 1,21,-1
 734 640 l 1,11,-1
780 485 m 1,22,-1
 648 256 l 1,23,-1
 780 256 l 1,24,-1
 780 485 l 1,22,-1
EndSplineSet
EndChar

StartChar: onehalf
Encoding: 189 189 167
Width: 1024
VWidth: 0
Flags: W
LayerCount: 2
Fore
SplineSet
208 1280 m 1,0,-1
 344 1280 l 1,1,-1
 344 640 l 1,2,-1
 208 640 l 1,3,-1
 208 1099 l 1,4,-1
 123 1014 l 1,5,-1
 32 1104 l 1,6,-1
 208 1280 l 1,0,-1
803 1280 m 1,7,-1
 960 1280 l 1,8,-1
 221 0 l 1,9,-1
 64 0 l 1,10,-1
 803 1280 l 1,7,-1
784 648 m 128,-1,12
 881 648 881 648 936.5 594.5 c 128,-1,13
 992 541 992 541 992 448 c 0,14,15
 992 419 992 419 988 402.5 c 128,-1,16
 984 386 984 386 957 349 c 128,-1,17
 930 312 930 312 874 256 c 2,18,-1
 746 128 l 1,19,-1
 992 128 l 1,20,-1
 992 0 l 1,21,-1
 576 0 l 1,22,-1
 576 128 l 1,23,-1
 789 341 l 2,24,25
 825 377 825 377 842 398 c 128,-1,26
 859 419 859 419 861.5 427.5 c 128,-1,27
 864 436 864 436 864 448 c 0,28,29
 864 481 864 481 842.5 500.5 c 128,-1,30
 821 520 821 520 784 520 c 128,-1,31
 747 520 747 520 725.5 500.5 c 128,-1,32
 704 481 704 481 704 448 c 1,33,-1
 576 448 l 1,34,35
 576 541 576 541 631.5 594.5 c 128,-1,11
 687 648 687 648 784 648 c 128,-1,12
EndSplineSet
EndChar

StartChar: threequarters
Encoding: 190 190 168
Width: 1024
VWidth: 0
Flags: W
LayerCount: 2
Fore
SplineSet
153 1284 m 0,0,1
 288 1284 288 1284 360 1239 c 128,-1,2
 432 1194 432 1194 432 1092 c 0,3,4
 432 1054 432 1054 402 1025.5 c 128,-1,5
 372 997 372 997 342 987.5 c 2,6,-1
 312 978 l 1,7,8
 318 977 318 977 327 973.5 c 128,-1,9
 336 970 336 970 359.5 958 c 128,-1,10
 383 946 383 946 401 931 c 128,-1,11
 419 916 419 916 433.5 889.5 c 128,-1,12
 448 863 448 863 448 832 c 0,13,14
 448 728 448 728 368.5 682 c 128,-1,15
 289 636 289 636 139 636 c 0,16,17
 110 636 110 636 83 638 c 128,-1,18
 56 640 56 640 44 642 c 2,19,-1
 32 644 l 1,20,-1
 32 760 l 1,21,-1
 139 760 l 2,22,23
 312 760 312 760 312 832 c 128,-1,24
 312 904 312 904 198 904 c 2,25,-1
 128 904 l 1,26,-1
 128 1024 l 1,27,-1
 192 1024 l 2,28,29
 296 1024 296 1024 296 1092 c 128,-1,30
 296 1160 296 1160 153 1160 c 2,31,-1
 64 1160 l 1,32,-1
 64 1276 l 1,33,34
 98 1284 98 1284 153 1284 c 0,0,1
803 1280 m 1,35,-1
 960 1280 l 1,36,-1
 221 0 l 1,37,-1
 64 0 l 1,38,-1
 803 1280 l 1,35,-1
734 640 m 1,39,-1
 916 640 l 1,40,-1
 916 256 l 1,41,-1
 992 256 l 1,42,-1
 992 128 l 1,43,-1
 916 128 l 1,44,-1
 916 0 l 1,45,-1
 780 0 l 1,46,-1
 780 128 l 1,47,-1
 512 128 l 1,48,-1
 512 256 l 1,49,-1
 734 640 l 1,39,-1
780 485 m 1,50,-1
 648 256 l 1,51,-1
 780 256 l 1,52,-1
 780 485 l 1,50,-1
EndSplineSet
EndChar

StartChar: AE
Encoding: 198 198 176
Width: 1024
VWidth: 0
Flags: W
LayerCount: 2
Fore
SplineSet
393 1280 m 1,0,-1
 992 1280 l 1,1,-1
 992 1123 l 1,2,-1
 682 1123 l 1,3,-1
 682 768 l 1,4,-1
 960 768 l 1,5,-1
 960 611 l 1,6,-1
 682 611 l 1,7,-1
 682 157 l 1,8,-1
 992 157 l 1,9,-1
 992 0 l 1,10,-1
 512 0 l 1,11,-1
 512 256 l 1,12,-1
 267 256 l 1,13,-1
 195 0 l 1,14,-1
 32 0 l 1,15,-1
 393 1280 l 1,0,-1
512 1123 m 1,16,-1
 311 413 l 1,17,-1
 512 413 l 1,18,-1
 512 1123 l 1,16,-1
EndSplineSet
EndChar

StartChar: Eth
Encoding: 208 208 186
Width: 1024
VWidth: 0
Flags: W
LayerCount: 2
Fore
SplineSet
128 1280 m 1,0,-1
 384 1280 l 2,1,2
 518 1280 518 1280 618 1247 c 128,-1,3
 718 1214 718 1214 793 1140.5 c 128,-1,4
 868 1067 868 1067 906 942 c 128,-1,5
 944 817 944 817 944 640 c 128,-1,6
 944 463 944 463 906 338 c 128,-1,7
 868 213 868 213 793 139.5 c 128,-1,8
 718 66 718 66 618 33 c 128,-1,9
 518 0 518 0 384 0 c 2,10,-1
 128 0 l 1,11,-1
 128 611 l 1,12,-1
 0 611 l 1,13,-1
 0 768 l 1,14,-1
 128 768 l 1,15,-1
 128 1280 l 1,0,-1
298 1123 m 1,16,-1
 298 768 l 1,17,-1
 512 768 l 1,18,-1
 512 611 l 1,19,-1
 298 611 l 1,20,-1
 298 157 l 1,21,-1
 384 157 l 2,22,23
 476 157 476 157 544 182 c 128,-1,24
 612 207 612 207 663 262.5 c 128,-1,25
 714 318 714 318 740 412.5 c 128,-1,26
 766 507 766 507 766 640 c 128,-1,27
 766 773 766 773 740 867.5 c 128,-1,28
 714 962 714 962 663 1017.5 c 128,-1,29
 612 1073 612 1073 544 1098 c 128,-1,30
 476 1123 476 1123 384 1123 c 2,31,-1
 298 1123 l 1,16,-1
EndSplineSet
EndChar

StartChar: multiply
Encoding: 215 215 193
Width: 1024
VWidth: 0
Flags: W
LayerCount: 2
Fore
SplineSet
96 945 m 1,0,-1
 207 1056 l 1,1,-1
 512 751 l 1,2,-1
 817 1056 l 1,3,-1
 928 945 l 1,4,-1
 623 640 l 1,5,-1
 928 335 l 1,6,-1
 817 224 l 1,7,-1
 512 529 l 1,8,-1
 207 224 l 1,9,-1
 96 335 l 1,10,-1
 401 640 l 1,11,-1
 96 945 l 1,0,-1
EndSplineSet
EndChar

StartChar: Oslash
Encoding: 216 216 194
Width: 1024
VWidth: 0
Flags: W
LayerCount: 2
Fore
SplineSet
817 1408 m 1,0,-1
 960 1408 l 1,1,-1
 832 1147 l 1,2,3
 944 987 944 987 944 640 c 0,4,5
 944 459 944 459 914.5 330.5 c 128,-1,6
 885 202 885 202 827.5 127 c 128,-1,7
 770 52 770 52 693 18 c 128,-1,8
 616 -16 616 -16 512 -16 c 0,9,10
 378 -16 378 -16 289 40 c 1,11,-1
 207 -128 l 1,12,-1
 64 -128 l 1,13,-1
 192 133 l 1,14,15
 80 293 80 293 80 640 c 0,16,17
 80 821 80 821 109.5 949.5 c 128,-1,18
 139 1078 139 1078 196.5 1153 c 128,-1,19
 254 1228 254 1228 331 1262 c 128,-1,20
 408 1296 408 1296 512 1296 c 0,21,22
 646 1296 646 1296 735 1240 c 1,23,-1
 817 1408 l 1,0,-1
512 1139 m 0,24,25
 451 1139 451 1139 405.5 1113 c 128,-1,26
 360 1087 360 1087 326.5 1030 c 128,-1,27
 293 973 293 973 275.5 875.5 c 128,-1,28
 258 778 258 778 258 640 c 0,29,30
 258 448 258 448 291 336 c 1,31,-1
 658 1083 l 1,32,33
 602 1139 602 1139 512 1139 c 0,24,25
733 944 m 1,34,-1
 366 197 l 1,35,36
 422 141 422 141 512 141 c 0,37,38
 573 141 573 141 618.5 167 c 128,-1,39
 664 193 664 193 697.5 250 c 128,-1,40
 731 307 731 307 748.5 404.5 c 128,-1,41
 766 502 766 502 766 640 c 0,42,43
 766 832 766 832 733 944 c 1,34,-1
EndSplineSet
EndChar

StartChar: Thorn
Encoding: 222 222 200
Width: 1024
VWidth: 0
Flags: W
LayerCount: 2
Fore
SplineSet
128 1280 m 1,0,-1
 298 1280 l 1,1,-1
 298 1103 l 1,2,-1
 480 1103 l 2,3,4
 695 1103 695 1103 819.5 979 c 128,-1,5
 944 855 944 855 944 640 c 128,-1,6
 944 425 944 425 819.5 301 c 128,-1,7
 695 177 695 177 480 177 c 2,8,-1
 298 177 l 1,9,-1
 298 0 l 1,10,-1
 128 0 l 1,11,-1
 128 1280 l 1,0,-1
298 946 m 1,12,-1
 298 334 l 1,13,-1
 480 334 l 2,14,15
 616 334 616 334 695 416 c 128,-1,16
 774 498 774 498 774 640 c 128,-1,17
 774 782 774 782 695 864 c 128,-1,18
 616 946 616 946 480 946 c 2,19,-1
 298 946 l 1,12,-1
EndSplineSet
EndChar

StartChar: germandbls
Encoding: 223 223 201
Width: 1024
VWidth: 0
Flags: W
LayerCount: 2
Fore
SplineSet
512 1288 m 0,0,1
 668 1288 668 1288 758 1217.5 c 128,-1,2
 848 1147 848 1147 848 1024 c 0,3,4
 848 968 848 968 827.5 925.5 c 128,-1,5
 807 883 807 883 778 857.5 c 128,-1,6
 749 832 749 832 720 810 c 128,-1,7
 691 788 691 788 670.5 760.5 c 128,-1,8
 650 733 650 733 650 699 c 0,9,10
 650 658 650 658 680.5 623.5 c 128,-1,11
 711 589 711 589 754 560 c 128,-1,12
 797 531 797 531 840 495 c 128,-1,13
 883 459 883 459 913.5 398 c 128,-1,14
 944 337 944 337 944 256 c 0,15,16
 944 134 944 134 854.5 63 c 128,-1,17
 765 -8 765 -8 611 -8 c 0,18,19
 566 -8 566 -8 525.5 -4 c 128,-1,20
 485 -0 485 -0 466.5 4 c 2,21,-1
 448 8 l 1,22,-1
 448 157 l 1,23,-1
 611 157 l 2,24,25
 687 157 687 157 730.5 183.5 c 128,-1,26
 774 210 774 210 774 256 c 0,27,28
 774 308 774 308 752 350.5 c 128,-1,29
 730 393 730 393 697.5 420 c 128,-1,30
 665 447 665 447 627 477 c 128,-1,31
 589 507 589 507 556.5 534.5 c 128,-1,32
 524 562 524 562 502 604.5 c 128,-1,33
 480 647 480 647 480 699 c 0,34,35
 480 745 480 745 495.5 782.5 c 128,-1,36
 511 820 511 820 534.5 842.5 c 128,-1,37
 558 865 558 865 585.5 887.5 c 128,-1,38
 613 910 613 910 636.5 927 c 128,-1,39
 660 944 660 944 675.5 969 c 128,-1,40
 691 994 691 994 691 1024 c 0,41,42
 691 1131 691 1131 512 1131 c 0,43,44
 407 1131 407 1131 352.5 1047 c 128,-1,45
 298 963 298 963 298 768 c 2,46,-1
 298 0 l 1,47,-1
 128 0 l 1,48,-1
 128 768 l 2,49,50
 128 912 128 912 154 1013.5 c 128,-1,51
 180 1115 180 1115 231.5 1174.5 c 128,-1,52
 283 1234 283 1234 351.5 1261 c 128,-1,53
 420 1288 420 1288 512 1288 c 0,0,1
EndSplineSet
EndChar

StartChar: ae
Encoding: 230 230 208
Width: 1024
VWidth: 0
Flags: W
LayerCount: 2
Fore
SplineSet
225 1032 m 0,0,1
 419 1032 419 1032 517 916 c 1,2,3
 589 1032 589 1032 716 1032 c 0,4,5
 844 1032 844 1032 918 931 c 128,-1,6
 992 830 992 830 992 656 c 2,7,-1
 992 585 l 2,8,9
 992 503 992 503 958 471 c 128,-1,10
 924 439 924 439 835 439 c 2,11,-1
 591 439 l 1,12,13
 591 433 591 433 591.5 422.5 c 128,-1,14
 592 412 592 412 596.5 381.5 c 128,-1,15
 601 351 601 351 609 323.5 c 128,-1,16
 617 296 617 296 634 262 c 128,-1,17
 651 228 651 228 674 203.5 c 128,-1,18
 697 179 697 179 734.5 162.5 c 128,-1,19
 772 146 772 146 819 146 c 2,20,-1
 960 146 l 1,21,-1
 960 8 l 1,22,23
 906 -8 906 -8 819 -8 c 0,24,25
 643 -8 643 -8 549 96 c 1,26,27
 495 -8 495 -8 337 -8 c 0,28,29
 192 -8 192 -8 108 82 c 128,-1,30
 24 172 24 172 24 327 c 0,31,32
 24 446 24 446 92 515.5 c 128,-1,33
 160 585 160 585 277 585 c 2,34,-1
 433 585 l 1,35,-1
 433 696 l 2,36,37
 433 780 433 780 377.5 829 c 128,-1,38
 322 878 322 878 225 878 c 2,39,-1
 96 878 l 1,40,-1
 96 1016 l 1,41,42
 138 1032 138 1032 225 1032 c 0,0,1
716 886 m 0,43,44
 681 886 681 886 655.5 855 c 128,-1,45
 630 824 630 824 618 780 c 128,-1,46
 606 736 606 736 599.5 691.5 c 128,-1,47
 593 647 593 647 592 616 c 2,48,-1
 591 585 l 1,49,-1
 835 585 l 1,50,-1
 835 656 l 2,51,52
 835 763 835 763 803 824.5 c 128,-1,53
 771 886 771 886 716 886 c 0,43,44
277 439 m 2,54,55
 233 439 233 439 207 409 c 128,-1,56
 181 379 181 379 181 327 c 0,57,58
 181 239 181 239 223 188.5 c 128,-1,59
 265 138 265 138 337 138 c 0,60,61
 361 138 361 138 377.5 146 c 128,-1,62
 394 154 394 154 404.5 176 c 128,-1,63
 415 198 415 198 421 217.5 c 128,-1,64
 427 237 427 237 429.5 280 c 128,-1,65
 432 323 432 323 432.5 351 c 128,-1,66
 433 379 433 379 433 438.982973197 c 0,67,-1
 277 439 l 2,54,55
EndSplineSet
EndChar

StartChar: eth
Encoding: 240 240 218
Width: 1024
VWidth: 0
Flags: W
LayerCount: 2
Fore
SplineSet
224 1280 m 1,0,-1
 429 1280 l 1,1,2
 508 1225 508 1225 601 1122 c 1,3,-1
 864 1162 l 1,4,-1
 864 1024 l 1,5,-1
 700 999 l 1,6,7
 912 704 912 704 912 380 c 0,8,9
 912 196 912 196 804.5 90 c 128,-1,10
 697 -16 697 -16 512 -16 c 128,-1,11
 327 -16 327 -16 219.5 90 c 128,-1,12
 112 196 112 196 112 380 c 128,-1,13
 112 564 112 564 219.5 670 c 128,-1,14
 327 776 327 776 512 776 c 0,15,16
 554 776 554 776 592.5 768 c 128,-1,17
 631 760 631 760 648.5 752 c 2,18,-1
 666 744 l 1,19,20
 625 842 625 842 559 937 c 1,21,-1
 224 886 l 1,22,-1
 224 1024 l 1,23,-1
 464 1061 l 1,24,25
 409 1124 409 1124 349 1178.5 c 128,-1,26
 289 1233 289 1233 256.5 1256.5 c 2,27,-1
 224 1280 l 1,0,-1
512 619 m 0,28,29
 405 619 405 619 343.5 555 c 128,-1,30
 282 491 282 491 282 380 c 128,-1,31
 282 269 282 269 343.5 205 c 128,-1,32
 405 141 405 141 512 141 c 128,-1,33
 619 141 619 141 680.5 205 c 128,-1,34
 742 269 742 269 742 380 c 0,35,36
 742 429 742 429 737.5 473.5 c 128,-1,37
 733 518 733 518 728.5 538 c 2,38,-1
 724 558 l 1,39,40
 715 565 715 565 698 575 c 128,-1,41
 681 585 681 585 625.5 602 c 128,-1,42
 570 619 570 619 512 619 c 0,28,29
EndSplineSet
EndChar

StartChar: dotlessi
Encoding: 305 305 219
Width: 1024
VWidth: 0
Flags: W
LayerCount: 2
Fore
SplineSet
160 922 m 1,0,-1
 640 922 l 1,1,-1
 640 186 l 1,2,-1
 896 186 l 1,3,-1
 896 0 l 1,4,-1
 128 0 l 1,5,-1
 128 186 l 1,6,-1
 384 186 l 1,7,-1
 384 736 l 1,8,-1
 160 736 l 1,9,-1
 160 922 l 1,0,-1
EndSplineSet
EndChar

StartChar: circumflex
Encoding: 710 710 220
Width: 1024
VWidth: 0
Flags: W
LayerCount: 2
Fore
SplineSet
640 1152 m 1,0,-1
 512 1280 l 1,1,-1
 384 1152 l 1,2,-1
 256 1152 l 1,3,-1
 512 1408 l 1,4,-1
 768 1152 l 1,5,-1
 640 1152 l 1,0,-1
EndSplineSet
EndChar

StartChar: breve
Encoding: 728 728 222
Width: 1024
VWidth: 0
Flags: W
LayerCount: 2
Fore
SplineSet
666 1408 m 1,0,-1
 768 1408 l 1,1,2
 768 1290 768 1290 699 1221 c 128,-1,3
 630 1152 630 1152 512 1152 c 128,-1,4
 394 1152 394 1152 325 1221 c 128,-1,5
 256 1290 256 1290 256 1408 c 1,6,-1
 358 1408 l 1,7,8
 358 1337 358 1337 399.5 1295.5 c 128,-1,9
 441 1254 441 1254 512 1254 c 128,-1,10
 583 1254 583 1254 624.5 1295.5 c 128,-1,11
 666 1337 666 1337 666 1408 c 1,0,-1
EndSplineSet
EndChar

StartChar: dotaccent
Encoding: 729 729 223
Width: 1024
VWidth: 0
Flags: W
LayerCount: 2
Fore
SplineSet
512 1392 m 128,-1,1
 558 1392 558 1392 591 1359 c 128,-1,2
 624 1326 624 1326 624 1280 c 128,-1,3
 624 1234 624 1234 591 1201 c 128,-1,4
 558 1168 558 1168 512 1168 c 128,-1,5
 466 1168 466 1168 433 1201 c 128,-1,6
 400 1234 400 1234 400 1280 c 128,-1,7
 400 1326 400 1326 433 1359 c 128,-1,0
 466 1392 466 1392 512 1392 c 128,-1,1
EndSplineSet
EndChar

StartChar: ring
Encoding: 730 730 224
Width: 1024
VWidth: 0
Flags: W
LayerCount: 2
Fore
SplineSet
512 1408 m 128,-1,1
 599 1408 599 1408 651.5 1371.5 c 128,-1,2
 704 1335 704 1335 704 1280 c 128,-1,3
 704 1225 704 1225 651.5 1188.5 c 128,-1,4
 599 1152 599 1152 512 1152 c 128,-1,5
 425 1152 425 1152 372.5 1188.5 c 128,-1,6
 320 1225 320 1225 320 1280 c 128,-1,7
 320 1335 320 1335 372.5 1371.5 c 128,-1,0
 425 1408 425 1408 512 1408 c 128,-1,1
512 1344 m 128,-1,9
 464 1344 464 1344 434.5 1325.5 c 128,-1,10
 405 1307 405 1307 405 1280 c 128,-1,11
 405 1253 405 1253 434.5 1234.5 c 128,-1,12
 464 1216 464 1216 512 1216 c 128,-1,13
 560 1216 560 1216 589.5 1234.5 c 128,-1,14
 619 1253 619 1253 619 1280 c 128,-1,15
 619 1307 619 1307 589.5 1325.5 c 128,-1,8
 560 1344 560 1344 512 1344 c 128,-1,9
EndSplineSet
EndChar

StartChar: ogonek
Encoding: 731 731 225
Width: 1024
VWidth: 0
Flags: W
LayerCount: 2
Fore
SplineSet
960 -256 m 1,0,-1
 960 -384 l 1,1,-1
 756 -384 l 1,2,-1
 708 -256 l 1,3,-1
 738 -64 l 1,4,-1
 864 -64 l 1,5,-1
 834 -256 l 1,6,-1
 960 -256 l 1,0,-1
EndSplineSet
EndChar

StartChar: tilde
Encoding: 732 732 226
Width: 1024
VWidth: 0
Flags: W
LayerCount: 2
Fore
SplineSet
800 1408 m 1,0,1
 800 1290 800 1290 753 1221 c 128,-1,2
 706 1152 706 1152 625 1152 c 0,3,4
 574 1152 574 1152 540 1168 c 128,-1,5
 506 1184 506 1184 491.5 1206.5 c 128,-1,6
 477 1229 477 1229 467 1251.5 c 128,-1,7
 457 1274 457 1274 443 1290 c 128,-1,8
 429 1306 429 1306 407 1306 c 0,9,10
 370 1306 370 1306 348 1264.5 c 128,-1,11
 326 1223 326 1223 326 1152 c 1,12,-1
 224 1152 l 1,13,14
 224 1270 224 1270 271 1339 c 128,-1,15
 318 1408 318 1408 399 1408 c 0,16,17
 450 1408 450 1408 484 1392 c 128,-1,18
 518 1376 518 1376 532.5 1353.5 c 128,-1,19
 547 1331 547 1331 557 1308.5 c 128,-1,20
 567 1286 567 1286 581 1270 c 128,-1,21
 595 1254 595 1254 617 1254 c 0,22,23
 654 1254 654 1254 676 1295.5 c 128,-1,24
 698 1337 698 1337 698 1408 c 1,25,-1
 800 1408 l 1,0,1
EndSplineSet
EndChar

StartChar: hungarumlaut
Encoding: 733 733 227
Width: 1024
VWidth: 0
Flags: W
LayerCount: 2
Fore
SplineSet
348 1408 m 1,0,-1
 512 1408 l 1,1,-1
 512 1376 l 1,2,-1
 292 1152 l 1,3,-1
 128 1152 l 1,4,-1
 128 1184 l 1,5,-1
 348 1408 l 1,0,-1
732 1408 m 1,6,-1
 896 1408 l 1,7,-1
 896 1376 l 1,8,-1
 676 1152 l 1,9,-1
 512 1152 l 1,10,-1
 512 1184 l 1,11,-1
 732 1408 l 1,6,-1
EndSplineSet
EndChar

StartChar: gravecomb
Encoding: 768 768 228
Width: 1024
VWidth: 0
Flags: W
LayerCount: 2
Fore
SplineSet
288 1408 m 1,0,-1
 458 1408 l 1,1,-1
 682 1184 l 1,2,-1
 682 1152 l 1,3,-1
 512 1152 l 1,4,-1
 288 1376 l 1,5,-1
 288 1408 l 1,0,-1
EndSplineSet
EndChar

StartChar: acutecomb
Encoding: 769 769 229
Width: 1024
VWidth: 0
Flags: W
LayerCount: 2
Fore
SplineSet
736 1408 m 1,0,-1
 736 1376 l 1,1,-1
 512 1152 l 1,2,-1
 342 1152 l 1,3,-1
 342 1184 l 1,4,-1
 566 1408 l 1,5,-1
 736 1408 l 1,0,-1
EndSplineSet
EndChar

StartChar: uni0304
Encoding: 772 772 232
Width: 1024
VWidth: 0
Flags: W
LayerCount: 2
Fore
SplineSet
224 1344 m 1,0,-1
 800 1344 l 1,1,-1
 800 1216 l 1,2,-1
 224 1216 l 1,3,-1
 224 1344 l 1,0,-1
EndSplineSet
EndChar

StartChar: uni0308
Encoding: 776 776 235
Width: 1024
VWidth: 0
Flags: W
LayerCount: 2
Fore
SplineSet
304 1392 m 128,-1,1
 350 1392 350 1392 383 1359 c 128,-1,2
 416 1326 416 1326 416 1280 c 128,-1,3
 416 1234 416 1234 383 1201 c 128,-1,4
 350 1168 350 1168 304 1168 c 128,-1,5
 258 1168 258 1168 225 1201 c 128,-1,6
 192 1234 192 1234 192 1280 c 128,-1,7
 192 1326 192 1326 225 1359 c 128,-1,0
 258 1392 258 1392 304 1392 c 128,-1,1
720 1392 m 128,-1,9
 766 1392 766 1392 799 1359 c 128,-1,10
 832 1326 832 1326 832 1280 c 128,-1,11
 832 1234 832 1234 799 1201 c 128,-1,12
 766 1168 766 1168 720 1168 c 128,-1,13
 674 1168 674 1168 641 1201 c 128,-1,14
 608 1234 608 1234 608 1280 c 128,-1,15
 608 1326 608 1326 641 1359 c 128,-1,8
 674 1392 674 1392 720 1392 c 128,-1,9
EndSplineSet
EndChar

StartChar: hookabovecomb
Encoding: 777 777 236
Width: 1024
VWidth: 0
Flags: W
LayerCount: 2
Fore
SplineSet
320 1306 m 1,0,-1
 320 1408 l 1,1,-1
 429 1408 l 2,2,3
 527 1408 527 1408 583.5 1365 c 128,-1,4
 640 1322 640 1322 640 1247 c 0,5,6
 640 1221 640 1221 627 1197 c 128,-1,7
 614 1173 614 1173 601.5 1162.5 c 2,8,-1
 589 1152 l 1,9,-1
 448 1152 l 2,10,11
 452 1153 452 1153 458 1156 c 128,-1,12
 464 1159 464 1159 479.5 1168.5 c 128,-1,13
 495 1178 495 1178 507 1188 c 128,-1,14
 519 1198 519 1198 528.5 1214 c 128,-1,15
 538 1230 538 1230 538 1247 c 0,16,17
 538 1274 538 1274 508.5 1290 c 128,-1,18
 479 1306 479 1306 429 1306 c 2,19,-1
 320 1306 l 1,0,-1
EndSplineSet
EndChar

StartChar: uni030F
Encoding: 783 783 240
Width: 1024
VWidth: 0
Flags: W
LayerCount: 2
Fore
SplineSet
676 1408 m 1,0,-1
 896 1184 l 1,1,-1
 896 1152 l 1,2,-1
 732 1152 l 1,3,-1
 512 1376 l 1,4,-1
 512 1408 l 1,5,-1
 676 1408 l 1,0,-1
292 1408 m 1,6,-1
 512 1184 l 1,7,-1
 512 1152 l 1,8,-1
 348 1152 l 1,9,-1
 128 1376 l 1,10,-1
 128 1408 l 1,11,-1
 292 1408 l 1,6,-1
EndSplineSet
EndChar

StartChar: uni0313
Encoding: 787 787 243
Width: 1024
VWidth: 0
Flags: W
LayerCount: 2
Fore
SplineSet
494 1408 m 1,0,-1
 640 1408 l 1,1,-1
 640 1376 l 1,2,-1
 512 1152 l 1,3,-1
 384 1152 l 1,4,-1
 384 1184 l 1,5,-1
 494 1408 l 1,0,-1
EndSplineSet
EndChar

StartChar: uni0314
Encoding: 788 788 244
Width: 1024
VWidth: 0
Flags: W
LayerCount: 2
Fore
SplineSet
530 1408 m 1,0,-1
 640 1184 l 1,1,-1
 640 1152 l 1,2,-1
 512 1152 l 1,3,-1
 384 1376 l 1,4,-1
 384 1408 l 1,5,-1
 530 1408 l 1,0,-1
EndSplineSet
EndChar

StartChar: uni0315
Encoding: 789 789 245
Width: 1024
VWidth: 0
Flags: W
LayerCount: 2
Fore
SplineSet
878 1408 m 1,0,-1
 1024 1408 l 1,1,-1
 1024 1376 l 1,2,-1
 896 1152 l 1,3,-1
 768 1152 l 1,4,-1
 768 1184 l 1,5,-1
 878 1408 l 1,0,-1
EndSplineSet
EndChar

StartChar: uni0327
Encoding: 807 807 250
Width: 1024
VWidth: 0
Flags: W
LayerCount: 2
Fore
SplineSet
512 -384 m 1,0,-1
 384 -384 l 1,1,-1
 480 -192 l 1,2,-1
 480 -64 l 1,3,-1
 640 -64 l 1,4,-1
 640 -256 l 1,5,-1
 512 -384 l 1,0,-1
EndSplineSet
EndChar

StartChar: uni2081
Encoding: 8321 8321 258
Width: 1024
VWidth: 0
Flags: W
LayerCount: 2
Fore
SplineSet
512 640 m 1,0,-1
 658 640 l 1,1,-1
 658 -128 l 1,2,-1
 512 -128 l 1,3,-1
 512 448 l 1,4,-1
 384 320 l 1,5,-1
 288 416 l 1,6,-1
 512 640 l 1,0,-1
EndSplineSet
EndChar

StartChar: uni2082
Encoding: 8322 8322 259
Width: 1024
VWidth: 0
Flags: W
LayerCount: 2
Fore
SplineSet
512 648 m 128,-1,1
 623 648 623 648 687.5 585.5 c 128,-1,2
 752 523 752 523 752 416 c 0,3,4
 752 376 752 376 747 353.5 c 128,-1,5
 742 331 742 331 709.5 284 c 128,-1,6
 677 237 677 237 608 168 c 2,7,-1
 448 8 l 1,8,-1
 768 8 l 1,9,-1
 768 -128 l 1,10,-1
 256 -128 l 1,11,-1
 256 8 l 1,12,-1
 512 264 l 2,13,14
 557 311 557 311 578 341 c 128,-1,15
 599 371 599 371 602.5 383.5 c 128,-1,16
 606 396 606 396 606 416 c 0,17,18
 606 460 606 460 580.5 486 c 128,-1,19
 555 512 555 512 512 512 c 0,20,21
 464 512 464 512 436 486 c 128,-1,22
 408 460 408 460 408 416 c 1,23,-1
 272 416 l 1,24,25
 272 523 272 523 336.5 585.5 c 128,-1,0
 401 648 401 648 512 648 c 128,-1,1
EndSplineSet
EndChar

StartChar: uni2083
Encoding: 8323 8323 260
Width: 1024
VWidth: 0
Flags: W
LayerCount: 2
Fore
SplineSet
403 648 m 0,0,1
 566 648 566 648 651 593.5 c 128,-1,2
 736 539 736 539 736 412 c 0,3,4
 736 382 736 382 724.5 356.5 c 128,-1,5
 713 331 713 331 696 316 c 128,-1,6
 679 301 679 301 662 290 c 128,-1,7
 645 279 645 279 633.5 275 c 2,8,-1
 622 271 l 2,9,10
 628 269 628 269 638 265.5 c 128,-1,11
 648 262 648 262 673 247.5 c 128,-1,12
 698 233 698 233 717 215.5 c 128,-1,13
 736 198 736 198 752 167 c 128,-1,14
 768 136 768 136 768 100 c 0,15,16
 768 -27 768 -27 673 -81.5 c 128,-1,17
 578 -136 578 -136 396 -136 c 0,18,19
 357 -136 357 -136 322 -132 c 128,-1,20
 287 -128 287 -128 271.5 -124 c 2,21,-1
 256 -120 l 1,22,-1
 256 8 l 1,23,-1
 396 8 l 2,24,25
 507 8 507 8 564.5 29 c 128,-1,26
 622 50 622 50 622 100 c 0,27,28
 622 192 622 192 455 192 c 2,29,-1
 352 192 l 1,30,-1
 352 320 l 1,31,-1
 443 320 l 2,32,33
 515 320 515 320 552.5 341 c 128,-1,34
 590 362 590 362 590 412 c 128,-1,35
 590 462 590 462 542.5 483 c 128,-1,36
 495 504 495 504 403 504 c 2,37,-1
 288 504 l 1,38,-1
 288 632 l 1,39,40
 332 648 332 648 403 648 c 0,0,1
EndSplineSet
EndChar

StartChar: tonos
Encoding: 900 900 261
Width: 1024
VWidth: 0
Flags: W
LayerCount: 2
Fore
SplineSet
483 1408 m 1,0,-1
 640 1408 l 1,1,-1
 640 1376 l 1,2,-1
 512 1123 l 1,3,-1
 384 1123 l 1,4,-1
 384 1155 l 1,5,-1
 483 1408 l 1,0,-1
EndSplineSet
EndChar

StartChar: dieresistonos
Encoding: 901 901 262
Width: 1024
VWidth: 0
Flags: W
LayerCount: 2
Fore
SplineSet
535 1536 m 1,0,-1
 681 1536 l 1,1,-1
 681 1504 l 1,2,-1
 553 1280 l 1,3,-1
 425 1280 l 1,4,-1
 425 1312 l 1,5,-1
 535 1536 l 1,0,-1
112 1392 m 128,-1,7
 158 1392 158 1392 191 1359 c 128,-1,8
 224 1326 224 1326 224 1280 c 128,-1,9
 224 1234 224 1234 191 1201 c 128,-1,10
 158 1168 158 1168 112 1168 c 128,-1,11
 66 1168 66 1168 33 1201 c 128,-1,12
 0 1234 0 1234 0 1280 c 128,-1,13
 0 1326 0 1326 33 1359 c 128,-1,6
 66 1392 66 1392 112 1392 c 128,-1,7
912 1392 m 128,-1,15
 958 1392 958 1392 991 1359 c 128,-1,16
 1024 1326 1024 1326 1024 1280 c 128,-1,17
 1024 1234 1024 1234 991 1201 c 128,-1,18
 958 1168 958 1168 912 1168 c 128,-1,19
 866 1168 866 1168 833 1201 c 128,-1,20
 800 1234 800 1234 800 1280 c 128,-1,21
 800 1326 800 1326 833 1359 c 128,-1,14
 866 1392 866 1392 912 1392 c 128,-1,15
EndSplineSet
EndChar

StartChar: Lambda
Encoding: 923 923 263
Width: 1024
VWidth: 0
Flags: W
LayerCount: 2
Fore
SplineSet
32 0 m 1,0,-1
 410 1280 l 1,1,-1
 614 1280 l 1,2,-1
 992 0 l 1,3,-1
 815 0 l 1,4,-1
 542 926 l 1,5,-1
 512 1103 l 1,6,-1
 482 926 l 1,7,-1
 209 0 l 1,8,-1
 32 0 l 1,0,-1
EndSplineSet
EndChar

StartChar: Sigma
Encoding: 931 931 264
Width: 1024
VWidth: 0
Flags: W
LayerCount: 2
Fore
SplineSet
96 1280 m 1,0,-1
 928 1280 l 1,1,-1
 928 1123 l 1,2,-1
 314 1123 l 1,3,-1
 729 691 l 1,4,-1
 312 157 l 1,5,-1
 928 157 l 1,6,-1
 928 0 l 1,7,-1
 96 0 l 1,8,-1
 96 157 l 1,9,-1
 512 689 l 1,10,-1
 96 1123 l 1,11,-1
 96 1280 l 1,0,-1
EndSplineSet
EndChar

StartChar: uni03A9
Encoding: 937 937 265
Width: 1024
VWidth: 0
Flags: W
LayerCount: 2
Fore
SplineSet
512 1296 m 128,-1,1
 601 1296 601 1296 671 1277 c 128,-1,2
 741 1258 741 1258 799 1214.5 c 128,-1,3
 857 1171 857 1171 895.5 1102.5 c 128,-1,4
 934 1034 934 1034 955 932.5 c 128,-1,5
 976 831 976 831 976 698 c 0,6,7
 976 604 976 604 949 514 c 128,-1,8
 922 424 922 424 884 362.5 c 128,-1,9
 846 301 846 301 808 252.5 c 128,-1,10
 770 204 770 204 743 180.5 c 2,11,-1
 716 157 l 1,12,-1
 992 157 l 1,13,-1
 992 0 l 1,14,-1
 614 0 l 1,15,-1
 614 256 l 1,16,17
 621 260 621 260 633.5 269.5 c 128,-1,18
 646 279 646 279 678 315.5 c 128,-1,19
 710 352 710 352 734 398 c 128,-1,20
 758 444 758 444 778 524 c 128,-1,21
 798 604 798 604 798 698 c 0,22,23
 798 936 798 936 725.5 1037.5 c 128,-1,24
 653 1139 653 1139 512 1139 c 128,-1,25
 371 1139 371 1139 298.5 1037.5 c 128,-1,26
 226 936 226 936 226 698 c 0,27,28
 226 630 226 630 236 568.5 c 128,-1,29
 246 507 246 507 262.5 464 c 128,-1,30
 279 421 279 421 298.5 384 c 128,-1,31
 318 347 318 347 337.5 324.5 c 128,-1,32
 357 302 357 302 373.5 285.5 c 128,-1,33
 390 269 390 269 400 262.5 c 2,34,-1
 410 256 l 1,35,-1
 410 0 l 1,36,-1
 32 0 l 1,37,-1
 32 157 l 1,38,-1
 308 157 l 1,39,40
 303 161 303 161 293.5 169.5 c 128,-1,41
 284 178 284 178 257 206 c 128,-1,42
 230 234 230 234 205.5 265 c 128,-1,43
 181 296 181 296 151 345 c 128,-1,44
 121 394 121 394 99.5 445 c 128,-1,45
 78 496 78 496 63 563 c 128,-1,46
 48 630 48 630 48 698 c 0,47,48
 48 831 48 831 69 932.5 c 128,-1,49
 90 1034 90 1034 128.5 1102.5 c 128,-1,50
 167 1171 167 1171 225 1214.5 c 128,-1,51
 283 1258 283 1258 353 1277 c 128,-1,0
 423 1296 423 1296 512 1296 c 128,-1,1
EndSplineSet
EndChar

StartChar: delta
Encoding: 948 948 266
Width: 1024
VWidth: 0
Flags: W
LayerCount: 2
Fore
SplineSet
629 1288 m 0,0,1
 685 1288 685 1288 735.5 1284 c 128,-1,2
 786 1280 786 1280 809 1276 c 2,3,-1
 832 1272 l 1,4,-1
 832 1123 l 1,5,-1
 629 1123 l 2,6,7
 426 1123 426 1123 426 1061 c 0,8,9
 426 1028 426 1028 453 995.5 c 128,-1,10
 480 963 480 963 522.5 933.5 c 128,-1,11
 565 904 565 904 617 871.5 c 128,-1,12
 669 839 669 839 721 798.5 c 128,-1,13
 773 758 773 758 815.5 711 c 128,-1,14
 858 664 858 664 885 597.5 c 128,-1,15
 912 531 912 531 912 455 c 0,16,17
 912 237 912 237 804.5 110.5 c 128,-1,18
 697 -16 697 -16 512 -16 c 128,-1,19
 327 -16 327 -16 219.5 110.5 c 128,-1,20
 112 237 112 237 112 455 c 0,21,22
 112 516 112 516 126.5 571.5 c 128,-1,23
 141 627 141 627 164 666 c 128,-1,24
 187 705 187 705 215 738 c 128,-1,25
 243 771 243 771 271 792 c 128,-1,26
 299 813 299 813 322 828 c 128,-1,27
 345 843 345 843 359.5 849 c 2,28,-1
 374 855 l 1,29,30
 369 858 369 858 361 864 c 128,-1,31
 353 870 353 870 333 890.5 c 128,-1,32
 313 911 313 911 297.5 933.5 c 128,-1,33
 282 956 282 956 269 990.5 c 128,-1,34
 256 1025 256 1025 256 1061 c 0,35,36
 256 1172 256 1172 342.5 1230 c 128,-1,37
 429 1288 429 1288 629 1288 c 0,0,1
512 768 m 1,38,39
 503 765 503 765 487.5 759 c 128,-1,40
 472 753 472 753 432 728 c 128,-1,41
 392 703 392 703 362 671 c 128,-1,42
 332 639 332 639 307 581.5 c 128,-1,43
 282 524 282 524 282 455 c 0,44,45
 282 310 282 310 343.5 225.5 c 128,-1,46
 405 141 405 141 512 141 c 128,-1,47
 619 141 619 141 680.5 225.5 c 128,-1,48
 742 310 742 310 742 455 c 0,49,50
 742 514 742 514 724 562 c 128,-1,51
 706 610 706 610 669.5 648 c 128,-1,52
 633 686 633 686 599 711 c 128,-1,53
 565 736 565 736 512 768 c 1,38,39
EndSplineSet
EndChar

StartChar: epsilon
Encoding: 949 949 267
Width: 1024
VWidth: 0
Flags: W
LayerCount: 2
Fore
SplineSet
864 1016 m 1,0,-1
 864 867 l 1,1,-1
 589 867 l 2,2,3
 454 867 454 867 384 835.5 c 128,-1,4
 314 804 314 804 314 729 c 128,-1,5
 314 654 314 654 364.5 622.5 c 128,-1,6
 415 591 415 591 512 591 c 2,7,-1
 768 591 l 1,8,-1
 768 433 l 1,9,-1
 512 433 l 2,10,11
 399 433 399 433 340.5 401.5 c 128,-1,12
 282 370 282 370 282 295 c 128,-1,13
 282 220 282 220 360 188.5 c 128,-1,14
 438 157 438 157 589 157 c 2,15,-1
 896 157 l 1,16,-1
 896 8 l 1,17,18
 779 -8 779 -8 589 -8 c 0,19,20
 355 -8 355 -8 233.5 62 c 128,-1,21
 112 132 112 132 112 295 c 0,22,23
 112 344 112 344 131 384 c 128,-1,24
 150 424 150 424 177.5 447 c 128,-1,25
 205 470 205 470 232.5 485.5 c 128,-1,26
 260 501 260 501 279 506.5 c 2,27,-1
 298 512 l 2,28,29
 292 514 292 514 281.5 518 c 128,-1,30
 271 522 271 522 244.5 538.5 c 128,-1,31
 218 555 218 555 197.5 577 c 128,-1,32
 177 599 177 599 160.5 639.5 c 128,-1,33
 144 680 144 680 144 729 c 0,34,35
 144 892 144 892 257.5 962 c 128,-1,36
 371 1032 371 1032 589 1032 c 0,37,38
 665 1032 665 1032 733.5 1028 c 128,-1,39
 802 1024 802 1024 833 1020 c 2,40,-1
 864 1016 l 1,0,-1
EndSplineSet
EndChar

StartChar: iota
Encoding: 953 953 268
Width: 1024
VWidth: 0
Flags: W
LayerCount: 2
Fore
SplineSet
811 8 m 1,0,1
 767 -8 767 -8 697 -8 c 0,2,3
 523 -8 523 -8 432.5 66 c 128,-1,4
 342 140 342 140 342 314 c 2,5,-1
 342 1024 l 1,6,-1
 512 1024 l 1,7,-1
 512 314 l 2,8,9
 512 229 512 229 559 193 c 128,-1,10
 606 157 606 157 697 157 c 2,11,-1
 811 157 l 1,12,-1
 811 8 l 1,0,1
EndSplineSet
EndChar

StartChar: kappa
Encoding: 954 954 269
Width: 1024
VWidth: 0
Flags: W
LayerCount: 2
Fore
SplineSet
756 1024 m 1,0,-1
 960 1024 l 1,1,-1
 490 531 l 1,2,-1
 960 0 l 1,3,-1
 750 0 l 1,4,-1
 298 512 l 1,5,-1
 298 0 l 1,6,-1
 128 0 l 1,7,-1
 128 1024 l 1,8,-1
 298 1024 l 1,9,-1
 298 544 l 1,10,-1
 756 1024 l 1,0,-1
EndSplineSet
EndChar

StartChar: uni03BC
Encoding: 956 956 270
Width: 1024
VWidth: 0
Flags: W
LayerCount: 2
Fore
SplineSet
128 1024 m 1,0,-1
 298 1024 l 1,1,-1
 298 157 l 1,2,-1
 512 157 l 2,3,4
 549 157 549 157 584.5 179 c 128,-1,5
 620 201 620 201 644.5 232.5 c 128,-1,6
 669 264 669 264 688.5 295 c 128,-1,7
 708 326 708 326 717 348 c 2,8,-1
 726 370 l 1,9,-1
 726 1024 l 1,10,-1
 896 1024 l 1,11,-1
 896 370 l 2,12,13
 896 303 896 303 901 258.5 c 128,-1,14
 906 214 906 214 912 190.5 c 128,-1,15
 918 167 918 167 933 156 c 128,-1,16
 948 145 948 145 958.5 143 c 128,-1,17
 969 141 969 141 992 141 c 1,18,-1
 992 0 l 1,19,20
 957 -8 957 -8 900 -8 c 0,21,22
 866 -8 866 -8 838.5 7.5 c 128,-1,23
 811 23 811 23 795 45 c 128,-1,24
 779 67 779 67 768.5 88.5 c 128,-1,25
 758 110 758 110 754 125.5 c 2,26,-1
 750 141 l 1,27,28
 746 135 746 135 739 125.5 c 128,-1,29
 732 116 732 116 708.5 92 c 128,-1,30
 685 68 685 68 659 49 c 128,-1,31
 633 30 633 30 593 15 c 128,-1,32
 553 0 553 0 512 0 c 2,33,-1
 298 0 l 1,34,-1
 298 -256 l 1,35,-1
 128 -256 l 1,36,-1
 128 1024 l 1,0,-1
EndSplineSet
EndChar

StartChar: phi
Encoding: 966 966 271
Width: 1024
VWidth: 0
Flags: W
LayerCount: 2
Fore
SplineSet
427 1280 m 1,0,-1
 597 1280 l 1,1,-1
 597 1036 l 1,2,3
 976 995 976 995 976 569 c 0,4,5
 976 144 976 144 597 103 c 1,6,-1
 597 -256 l 1,7,-1
 427 -256 l 1,8,-1
 427 103 l 1,9,10
 48 144 48 144 48 569 c 0,11,12
 48 995 48 995 427 1036 c 1,13,-1
 427 1280 l 1,0,-1
448 878 m 1,14,15
 342 862 342 862 280 787.5 c 128,-1,16
 218 713 218 713 218 569 c 0,17,18
 218 296 218 296 448 261 c 1,19,-1
 448 878 l 1,14,15
576 878 m 1,20,-1
 576 261 l 1,21,22
 806 296 806 296 806 569 c 0,23,24
 806 713 806 713 744 787.5 c 128,-1,25
 682 862 682 862 576 878 c 1,20,-1
EndSplineSet
EndChar

StartChar: minute
Encoding: 8242 8242 272
Width: 1024
VWidth: 0
Flags: W
LayerCount: 2
Fore
SplineSet
512 1299 m 1,0,-1
 704 1210 l 1,1,-1
 444 768 l 1,2,-1
 320 823 l 1,3,-1
 512 1299 l 1,0,-1
EndSplineSet
EndChar

StartChar: second
Encoding: 8243 8243 273
Width: 1024
VWidth: 0
Flags: W
LayerCount: 2
Fore
SplineSet
329 1295 m 1,0,-1
 496 1214 l 1,1,-1
 250 768 l 1,2,-1
 128 823 l 1,3,-1
 329 1295 l 1,0,-1
729 1295 m 1,4,-1
 896 1214 l 1,5,-1
 650 768 l 1,6,-1
 528 823 l 1,7,-1
 729 1295 l 1,4,-1
EndSplineSet
EndChar

StartChar: uni2016
Encoding: 8214 8214 274
Width: 1024
VWidth: 0
Flags: W
LayerCount: 2
Fore
SplineSet
256 1437 m 1,0,-1
 426 1437 l 1,1,-1
 426 -256 l 1,2,-1
 256 -256 l 1,3,-1
 256 1437 l 1,0,-1
598 1437 m 1,4,-1
 768 1437 l 1,5,-1
 768 -256 l 1,6,-1
 598 -256 l 1,7,-1
 598 1437 l 1,4,-1
EndSplineSet
EndChar

StartChar: divide
Encoding: 247 247 281
Width: 1024
VWidth: 0
Flags: W
LayerCount: 2
Fore
SplineSet
384 1152 m 1,0,-1
 640 1152 l 1,1,-1
 640 896 l 1,2,-1
 384 896 l 1,3,-1
 384 1152 l 1,0,-1
96 719 m 1,4,-1
 928 719 l 1,5,-1
 928 562 l 1,6,-1
 96 562 l 1,7,-1
 96 719 l 1,4,-1
384 384 m 1,8,-1
 640 384 l 1,9,-1
 640 128 l 1,10,-1
 384 128 l 1,11,-1
 384 384 l 1,8,-1
EndSplineSet
EndChar

StartChar: oslash
Encoding: 248 248 282
Width: 1024
VWidth: 0
Flags: W
LayerCount: 2
Fore
SplineSet
783 1152 m 1,0,-1
 928 1152 l 1,1,-1
 814 939 l 1,2,3
 944 814 944 814 944 512 c 0,4,5
 944 366 944 366 914.5 263 c 128,-1,6
 885 160 885 160 827.5 99.5 c 128,-1,7
 770 39 770 39 693 11.5 c 128,-1,8
 616 -16 616 -16 512 -16 c 0,9,10
 399 -16 399 -16 318 16 c 1,11,-1
 241 -128 l 1,12,-1
 96 -128 l 1,13,-1
 210 85 l 1,14,15
 80 210 80 210 80 512 c 0,16,17
 80 658 80 658 109.5 761 c 128,-1,18
 139 864 139 864 196.5 924.5 c 128,-1,19
 254 985 254 985 331 1012.5 c 128,-1,20
 408 1040 408 1040 512 1040 c 0,21,22
 625 1040 625 1040 706 1008 c 1,23,-1
 783 1152 l 1,0,-1
512 883 m 0,24,25
 384 883 384 883 317 797.5 c 128,-1,26
 250 712 250 712 250 512 c 0,27,28
 250 341 250 341 300 253 c 1,29,-1
 627 862 l 1,30,31
 579 883 579 883 512 883 c 0,24,25
724 771 m 1,32,-1
 397 162 l 1,33,34
 445 141 445 141 512 141 c 0,35,36
 640 141 640 141 707 226.5 c 128,-1,37
 774 312 774 312 774 512 c 0,38,39
 774 683 774 683 724 771 c 1,32,-1
EndSplineSet
EndChar

StartChar: thorn
Encoding: 254 254 288
Width: 1024
VWidth: 0
Flags: W
LayerCount: 2
Fore
SplineSet
128 1280 m 1,0,-1
 298 1280 l 1,1,-1
 298 948.9375 l 1,2,3
 301.46498078 951.987848606 301.46498078 951.987848606 308.009838418 957.050231076 c 128,-1,4
 314.554696056 962.112613546 314.554696056 962.112613546 336.613036582 975.053268924 c 128,-1,5
 358.671377109 987.993924303 358.671377109 987.993924303 382.744854043 997.884231076 c 128,-1,6
 406.818330977 1007.77453785 406.818330977 1007.77453785 444.228755332 1015.88726892 c 128,-1,7
 481.639179688 1024 481.639179688 1024 520 1024 c 0,8,9
 702 1024 702 1024 807 922.5 c 128,-1,10
 912 821 912 821 912 646 c 0,11,12
 912 465 912 465 793 360.5 c 128,-1,13
 674 256 674 256 468 256 c 2,14,-1
 298 256 l 1,15,-1
 298 -256 l 1,16,-1
 128 -256 l 1,17,-1
 128 1280 l 1,0,-1
520 867 m 0,18,19
 482 867 482 867 445 857 c 128,-1,20
 408 847 408 847 382.5 832.5 c 128,-1,21
 357 818 357 818 337 803 c 128,-1,22
 317 788 317 788 307.5 778 c 2,23,-1
 298 768 l 1,24,-1
 298 413 l 1,25,-1
 468 413 l 2,26,27
 595 413 595 413 668.5 475.5 c 128,-1,28
 742 538 742 538 742 646 c 0,29,30
 742 749 742 749 682.5 808 c 128,-1,31
 623 867 623 867 520 867 c 0,18,19
EndSplineSet
EndChar

StartChar: dcaron
Encoding: 271 271 305
Width: 1024
VWidth: 0
Flags: W
LayerCount: 2
Fore
SplineSet
512 1280 m 1,0,-1
 669 1280 l 1,1,-1
 669 157 l 2,2,3
 669 69 669 69 634.5 34.5 c 128,-1,4
 600 0 600 0 512 0 c 2,5,-1
 400 0 l 2,6,7
 237 0 237 0 142.5 130.5 c 128,-1,8
 48 261 48 261 48 488 c 0,9,10
 48 736 48 736 138 880 c 128,-1,11
 228 1024 228 1024 384 1024 c 0,12,13
 449.316796583 1024 449.316796583 1024 512 1006.33398438 c 1,14,-1
 512 1280 l 1,0,-1
878 1280 m 1,15,-1
 1024 1280 l 1,16,-1
 1024 1248 l 1,17,-1
 896 1024 l 1,18,-1
 768 1024 l 1,19,-1
 768 1056 l 1,20,-1
 878 1280 l 1,15,-1
384 867 m 0,21,22
 307 867 307 867 262.5 765.5 c 128,-1,23
 218 664 218 664 218 488 c 0,24,25
 218 334 218 334 267 245.5 c 128,-1,26
 316 157 316 157 400 157 c 2,27,-1
 512 157 l 1,28,-1
 512 846.966796875 l 1,29,30
 449.315886552 867 449.315886552 867 384 867 c 0,21,22
EndSplineSet
EndChar

StartChar: dcroat
Encoding: 273 273 307
Width: 1024
VWidth: 0
Flags: W
LayerCount: 2
Fore
SplineSet
726 1280 m 1,0,-1
 896 1280 l 1,1,-1
 896 1103 l 1,2,-1
 1024 1103 l 1,3,-1
 1024 945 l 1,4,-1
 896 945 l 1,5,-1
 896 256 l 2,6,7
 896 112 896 112 840 56 c 128,-1,8
 784 0 784 0 640 0 c 2,9,-1
 556 0 l 2,10,11
 350 0 350 0 231 101.5 c 128,-1,12
 112 203 112 203 112 378 c 0,13,14
 112 559 112 559 219.5 663.5 c 128,-1,15
 327 768 327 768 512 768 c 0,16,17
 622.244771901 768 622.244771901 768 726 740.482421875 c 1,18,-1
 726 945 l 1,19,-1
 448 945 l 1,20,-1
 448 1103 l 1,21,-1
 726 1103 l 1,22,-1
 726 1280 l 1,0,-1
512 611 m 0,23,24
 405 611 405 611 343.5 548.5 c 128,-1,25
 282 486 282 486 282 378 c 0,26,27
 282 275 282 275 355.5 216 c 128,-1,28
 429 157 429 157 556 157 c 2,29,-1
 640 157 l 2,30,31
 680 157 680 157 703 183.5 c 128,-1,32
 726 210 726 210 726 256 c 2,33,-1
 726 579.79296875 l 1,34,35
 622.241204767 611 622.241204767 611 512 611 c 0,23,24
EndSplineSet
EndChar

StartChar: Hbar
Encoding: 294 294 328
Width: 1024
VWidth: 0
Flags: W
LayerCount: 2
Fore
SplineSet
96 1280 m 1,0,-1
 266 1280 l 1,1,-1
 266 1103 l 1,2,-1
 758 1103 l 1,3,-1
 758 1280 l 1,4,-1
 928 1280 l 1,5,-1
 928 1103 l 1,6,-1
 1024 1103 l 1,7,-1
 1024 945 l 1,8,-1
 928 945 l 1,9,-1
 928 0 l 1,10,-1
 758 0 l 1,11,-1
 758 611 l 1,12,-1
 266 611 l 1,13,-1
 266 0 l 1,14,-1
 96 0 l 1,15,-1
 96 945 l 1,16,-1
 0 945 l 1,17,-1
 0 1103 l 1,18,-1
 96 1103 l 1,19,-1
 96 1280 l 1,0,-1
266 945 m 1,20,-1
 266 768 l 1,21,-1
 758 768 l 1,22,-1
 758 945 l 1,23,-1
 266 945 l 1,20,-1
EndSplineSet
EndChar

StartChar: hbar
Encoding: 295 295 329
Width: 1024
VWidth: 0
Flags: W
LayerCount: 2
Fore
SplineSet
128 1280 m 1,0,-1
 298 1280 l 1,1,-1
 298 1103 l 1,2,-1
 576 1103 l 1,3,-1
 576 945 l 1,4,-1
 298 945 l 1,5,-1
 298 740 l 1,6,7
 404 768 404 768 512 768 c 0,8,9
 700 768 700 768 798 683.5 c 128,-1,10
 896 599 896 599 896 402 c 2,11,-1
 896 0 l 1,12,-1
 726 0 l 1,13,-1
 726 402 l 2,14,15
 723 515 723 515 669.5 563 c 128,-1,16
 616 611 616 611 512 611 c 0,17,18
 401 611 401 611 298 580 c 1,19,-1
 298 0 l 1,20,-1
 128 0 l 1,21,-1
 128 945 l 1,22,-1
 0 945 l 1,23,-1
 0 1103 l 1,24,-1
 128 1103 l 1,25,-1
 128 1280 l 1,0,-1
EndSplineSet
EndChar

StartChar: IJ
Encoding: 306 306 339
Width: 1024
VWidth: 0
Flags: W
LayerCount: 2
Fore
SplineSet
96 1280 m 1,0,-1
 266 1280 l 1,1,-1
 266 0 l 1,2,-1
 96 0 l 1,3,-1
 96 1280 l 1,0,-1
758 1280 m 1,4,-1
 928 1280 l 1,5,-1
 928 526 l 2,6,7
 928 225 928 225 850 108.5 c 128,-1,8
 772 -8 772 -8 570 -8 c 0,9,10
 538 -8 538 -8 509 -4 c 128,-1,11
 480 -0 480 -0 467 4 c 2,12,-1
 454 8 l 1,13,-1
 454 157 l 1,14,-1
 570 157 l 2,15,16
 676 157 676 157 717 237.5 c 128,-1,17
 758 318 758 318 758 526 c 2,18,-1
 758 1280 l 1,4,-1
EndSplineSet
EndChar

StartChar: ij
Encoding: 307 307 340
Width: 1024
VWidth: 0
Flags: W
LayerCount: 2
Fore
SplineSet
128 1280 m 1,0,-1
 298 1280 l 1,1,-1
 298 1110 l 1,2,-1
 128 1110 l 1,3,-1
 128 1280 l 1,0,-1
726 1280 m 1,4,-1
 896 1280 l 1,5,-1
 896 1110 l 1,6,-1
 726 1110 l 1,7,-1
 726 1280 l 1,4,-1
128 925 m 1,8,-1
 298 925 l 1,9,-1
 298 0 l 1,10,-1
 128 0 l 1,11,-1
 128 925 l 1,8,-1
726 925 m 1,12,-1
 896 925 l 1,13,-1
 896 120 l 2,14,15
 896 -87 896 -87 802 -175.5 c 128,-1,16
 708 -264 708 -264 528 -264 c 0,17,18
 494 -264 494 -264 463.5 -260 c 128,-1,19
 433 -256 433 -256 419 -252 c 2,20,-1
 405 -248 l 1,21,-1
 405 -99 l 1,22,-1
 528 -99 l 2,23,24
 625 -99 625 -99 675.5 -48.5 c 128,-1,25
 726 2 726 2 726 120 c 2,26,-1
 726 925 l 1,12,-1
EndSplineSet
EndChar

StartChar: Lslash
Encoding: 321 321 354
Width: 1024
VWidth: 0
Flags: W
LayerCount: 2
Fore
SplineSet
160 1280 m 1,0,-1
 330 1280 l 1,1,-1
 330 852 l 1,2,-1
 640 1024 l 1,3,-1
 640 868 l 1,4,-1
 330 696 l 1,5,-1
 330 157 l 1,6,-1
 896 157 l 1,7,-1
 896 0 l 1,8,-1
 160 0 l 1,9,-1
 160 601 l 1,10,-1
 0 512 l 1,11,-1
 0 668 l 1,12,-1
 160 757 l 1,13,-1
 160 1280 l 1,0,-1
EndSplineSet
EndChar

StartChar: lslash
Encoding: 322 322 355
Width: 1024
VWidth: 0
Flags: W
LayerCount: 2
Fore
SplineSet
160 1280 m 1,0,-1
 597 1280 l 1,1,-1
 597 893 l 1,2,-1
 832 1024 l 1,3,-1
 832 868 l 1,4,-1
 597 737 l 1,5,-1
 597 157 l 1,6,-1
 896 157 l 1,7,-1
 896 0 l 1,8,-1
 128 0 l 1,9,-1
 128 157 l 1,10,-1
 427 157 l 1,11,-1
 427 643 l 1,12,-1
 192 512 l 1,13,-1
 192 668 l 1,14,-1
 427 799 l 1,15,-1
 427 1123 l 1,16,-1
 160 1123 l 1,17,-1
 160 1280 l 1,0,-1
EndSplineSet
EndChar

StartChar: Eng
Encoding: 330 330 363
Width: 1024
VWidth: 0
Flags: W
LayerCount: 2
Fore
SplineSet
512 1296 m 0,0,1
 716 1296 716 1296 822 1208 c 128,-1,2
 928 1120 928 1120 928 914 c 2,3,-1
 928 472 l 2,4,5
 928 297 928 297 891.5 188.5 c 128,-1,6
 855 80 855 80 792 36 c 128,-1,7
 729 -8 729 -8 635 -8 c 0,8,9
 594 -8 594 -8 555 7.5 c 128,-1,10
 516 23 516 23 489 45.5 c 128,-1,11
 462 68 462 68 441 90.5 c 128,-1,12
 420 113 420 113 410 128.5 c 2,13,-1
 400 144 l 1,14,-1
 512 256 l 1,15,16
 514 252 514 252 517.5 245.5 c 128,-1,17
 521 239 521 239 533.5 221.5 c 128,-1,18
 546 204 546 204 559 191 c 128,-1,19
 572 178 572 178 593 167.5 c 128,-1,20
 614 157 614 157 635 157 c 0,21,22
 695 157 695 157 726.5 229.5 c 128,-1,23
 758 302 758 302 758 472 c 2,24,-1
 758 914 l 2,25,26
 758 1035 758 1035 695.5 1087 c 128,-1,27
 633 1139 633 1139 512 1139 c 0,28,29
 444 1139 444 1139 382.5 1128 c 128,-1,30
 321 1117 321 1117 293.5 1106 c 2,31,-1
 266 1095 l 1,32,-1
 266 0 l 1,33,-1
 96 0 l 1,34,-1
 96 1192 l 1,35,36
 102 1196 102 1196 114.5 1203 c 128,-1,37
 127 1210 127 1210 168.5 1228 c 128,-1,38
 210 1246 210 1246 255 1260 c 128,-1,39
 300 1274 300 1274 370 1285 c 128,-1,40
 440 1296 440 1296 512 1296 c 0,0,1
EndSplineSet
EndChar

StartChar: eng
Encoding: 331 331 364
Width: 1024
VWidth: 0
Flags: W
LayerCount: 2
Fore
SplineSet
512 1040 m 0,0,1
 700 1040 700 1040 798 952 c 128,-1,2
 896 864 896 864 896 658 c 2,3,-1
 896 157 l 2,4,5
 896 -70 896 -70 819 -167 c 128,-1,6
 742 -264 742 -264 594 -264 c 0,7,8
 571 -264 571 -264 550.5 -260 c 128,-1,9
 530 -256 530 -256 521 -252 c 2,10,-1
 512 -248 l 1,11,-1
 512 -99 l 1,12,-1
 594 -99 l 2,13,14
 659 -99 659 -99 692.5 -40 c 128,-1,15
 726 19 726 19 726 157 c 2,16,-1
 726 658 l 2,17,18
 726 779 726 779 671.5 831 c 128,-1,19
 617 883 617 883 512 883 c 0,20,21
 453 883 453 883 399.5 872 c 128,-1,22
 346 861 346 861 322 850 c 2,23,-1
 298 839 l 1,24,-1
 298 0 l 1,25,-1
 128 0 l 1,26,-1
 128 936 l 1,27,28
 134 940 134 940 145.5 947 c 128,-1,29
 157 954 157 954 195 972 c 128,-1,30
 233 990 233 990 274.5 1004 c 128,-1,31
 316 1018 316 1018 381 1029 c 128,-1,32
 446 1040 446 1040 512 1040 c 0,0,1
EndSplineSet
EndChar

StartChar: OE
Encoding: 338 338 371
Width: 1024
VWidth: 0
Flags: W
LayerCount: 2
Fore
SplineSet
408 1296 m 0,0,1
 437 1296 437 1296 462 1287 c 128,-1,2
 487 1278 487 1278 502 1265 c 128,-1,3
 517 1252 517 1252 528 1239 c 128,-1,4
 539 1226 539 1226 543 1217 c 2,5,-1
 547 1208 l 1,6,-1
 576 1280 l 1,7,-1
 992 1280 l 1,8,-1
 992 1123 l 1,9,-1
 682 1123 l 1,10,-1
 682 768 l 1,11,-1
 960 768 l 1,12,-1
 960 611 l 1,13,-1
 682 611 l 1,14,-1
 682 157 l 1,15,-1
 992 157 l 1,16,-1
 992 0 l 1,17,-1
 576 0 l 1,18,-1
 547 72 l 2,19,20
 546 68 546 68 543 62.5 c 128,-1,21
 540 57 540 57 528 41.5 c 128,-1,22
 516 26 516 26 502 14.5 c 128,-1,23
 488 3 488 3 462.5 -6.5 c 128,-1,24
 437 -16 437 -16 408 -16 c 0,25,26
 314 -16 314 -16 244 18 c 128,-1,27
 174 52 174 52 121.5 127 c 128,-1,28
 69 202 69 202 42.5 330.5 c 128,-1,29
 16 459 16 459 16 640 c 128,-1,30
 16 821 16 821 42.5 949.5 c 128,-1,31
 69 1078 69 1078 121.5 1153 c 128,-1,32
 174 1228 174 1228 244 1262 c 128,-1,33
 314 1296 314 1296 408 1296 c 0,0,1
512 1139 m 1,34,35
 434 1139 434 1139 376 1113 c 128,-1,36
 318 1087 318 1087 274 1030 c 128,-1,37
 230 973 230 973 208 875.5 c 128,-1,38
 186 778 186 778 186 640 c 128,-1,39
 186 502 186 502 208 404.5 c 128,-1,40
 230 307 230 307 274 250 c 128,-1,41
 318 193 318 193 376 167 c 128,-1,42
 434 141 434 141 512 141 c 1,43,-1
 512 1139 l 1,34,35
EndSplineSet
EndChar

StartChar: oe
Encoding: 339 339 372
Width: 1024
VWidth: 0
Flags: W
LayerCount: 2
Fore
SplineSet
307 1032 m 0,0,1
 443 1032 443 1032 504 894 c 1,2,3
 577 1032 577 1032 716 1032 c 0,4,5
 846 1032 846 1032 919 931.5 c 128,-1,6
 992 831 992 831 992 656 c 2,7,-1
 992 585 l 2,8,9
 992 503 992 503 958 471 c 128,-1,10
 924 439 924 439 835 439 c 2,11,-1
 591 439 l 1,12,13
 591 433 591 433 591.5 422.5 c 128,-1,14
 592 412 592 412 596.5 381.5 c 128,-1,15
 601 351 601 351 609 323.5 c 128,-1,16
 617 296 617 296 634 262 c 128,-1,17
 651 228 651 228 674 203.5 c 128,-1,18
 697 179 697 179 734.5 162.5 c 128,-1,19
 772 146 772 146 819 146 c 2,20,-1
 960 146 l 1,21,-1
 960 8 l 1,22,23
 906 -8 906 -8 819 -8 c 0,24,25
 606 -8 606 -8 512 147 c 1,26,27
 451 -8 451 -8 307 -8 c 0,28,29
 239 -8 239 -8 188.5 19 c 128,-1,30
 138 46 138 46 100 105.5 c 128,-1,31
 62 165 62 165 43 266.5 c 128,-1,32
 24 368 24 368 24 512 c 128,-1,33
 24 656 24 656 43 757.5 c 128,-1,34
 62 859 62 859 100 918.5 c 128,-1,35
 138 978 138 978 188.5 1005 c 128,-1,36
 239 1032 239 1032 307 1032 c 0,0,1
307 886 m 128,-1,38
 245 886 245 886 213 800 c 128,-1,39
 181 714 181 714 181 512 c 128,-1,40
 181 310 181 310 213 224 c 128,-1,41
 245 138 245 138 307 138 c 128,-1,42
 369 138 369 138 401 224 c 128,-1,43
 433 310 433 310 433 512 c 128,-1,44
 433 714 433 714 401 800 c 128,-1,37
 369 886 369 886 307 886 c 128,-1,38
716 886 m 0,45,46
 681 886 681 886 655.5 855 c 128,-1,47
 630 824 630 824 618 780 c 128,-1,48
 606 736 606 736 599.5 691.5 c 128,-1,49
 593 647 593 647 592 616 c 2,50,-1
 591 585 l 1,51,-1
 835 585 l 1,52,-1
 835 656 l 2,53,54
 835 763 835 763 803 824.5 c 128,-1,55
 771 886 771 886 716 886 c 0,45,46
EndSplineSet
EndChar

StartChar: Tbar
Encoding: 358 358 391
Width: 1024
VWidth: 0
Flags: W
LayerCount: 2
Fore
SplineSet
64 1280 m 1,0,-1
 960 1280 l 1,1,-1
 960 1123 l 1,2,-1
 597 1123 l 1,3,-1
 597 768 l 1,4,-1
 832 768 l 1,5,-1
 832 611 l 1,6,-1
 597 611 l 1,7,-1
 597 0 l 1,8,-1
 427 0 l 1,9,-1
 427 611 l 1,10,-1
 192 611 l 1,11,-1
 192 768 l 1,12,-1
 427 768 l 1,13,-1
 427 1123 l 1,14,-1
 64 1123 l 1,15,-1
 64 1280 l 1,0,-1
EndSplineSet
EndChar

StartChar: tbar
Encoding: 359 359 392
Width: 1024
VWidth: 0
Flags: W
LayerCount: 2
Fore
SplineSet
342 1280 m 1,0,-1
 512 1280 l 1,1,-1
 512 925 l 1,2,-1
 928 925 l 1,3,-1
 928 768 l 1,4,-1
 512 768 l 1,5,-1
 512 591 l 1,6,-1
 800 591 l 1,7,-1
 800 433 l 1,8,-1
 512 433 l 1,9,-1
 512 314 l 2,10,11
 512 229 512 229 561 193 c 128,-1,12
 610 157 610 157 704 157 c 2,13,-1
 864 157 l 1,14,-1
 864 8 l 1,15,16
 803 -8 803 -8 704 -8 c 0,17,18
 526 -8 526 -8 434 66 c 128,-1,19
 342 140 342 140 342 314 c 2,20,-1
 342 433 l 1,21,-1
 160 433 l 1,22,-1
 160 591 l 1,23,-1
 342 591 l 1,24,-1
 342 768 l 1,25,-1
 64 768 l 1,26,-1
 64 925 l 1,27,-1
 342 925 l 1,28,-1
 342 1280 l 1,0,-1
EndSplineSet
EndChar

StartChar: longs
Encoding: 383 383 416
Width: 1024
VWidth: 0
Flags: W
LayerCount: 2
Fore
SplineSet
426 0 m 1,0,-1
 256 0 l 1,1,-1
 256 768 l 2,2,3
 256 912 256 912 284.5 1013.5 c 128,-1,4
 313 1115 313 1115 369.5 1174.5 c 128,-1,5
 426 1234 426 1234 501 1261 c 128,-1,6
 576 1288 576 1288 677 1288 c 0,7,8
 730 1288 730 1288 768.5 1284 c 128,-1,9
 807 1280 807 1280 819.5 1276 c 2,10,-1
 832 1272 l 1,11,-1
 832 1123 l 1,12,-1
 677 1123 l 2,13,14
 554 1123 554 1123 490 1041 c 128,-1,15
 426 959 426 959 426 768 c 2,16,-1
 426 0 l 1,0,-1
EndSplineSet
EndChar

StartChar: uni0180
Encoding: 384 384 417
Width: 1024
VWidth: 0
Flags: W
LayerCount: 2
Fore
SplineSet
298 1280 m 1,0,-1
 298 1103 l 1,1,-1
 576 1103 l 1,2,-1
 576 945 l 1,3,-1
 298 945 l 1,4,-1
 298 740 l 1,5,6
 404 768 404 768 512 768 c 0,7,8
 697 768 697 768 804.5 666.5 c 128,-1,9
 912 565 912 565 912 390 c 0,10,11
 912 209 912 209 793 104.5 c 128,-1,12
 674 0 674 0 468 0 c 2,13,-1
 384 0 l 2,14,15
 240 0 240 0 184 56 c 128,-1,16
 128 112 128 112 128 256 c 2,17,-1
 128 945 l 1,18,-1
 0 945 l 1,19,-1
 0 1103 l 1,20,-1
 128 1103 l 1,21,-1
 128 1280 l 1,22,-1
 298 1280 l 1,0,-1
512 611 m 0,23,24
 401 611 401 611 298 580 c 1,25,-1
 298 256 l 2,26,27
 298 210 298 210 321 183.5 c 128,-1,28
 344 157 344 157 384 157 c 2,29,-1
 468 157 l 2,30,31
 595 157 595 157 668.5 219.5 c 128,-1,32
 742 282 742 282 742 390 c 0,33,34
 742 493 742 493 680.5 552 c 128,-1,35
 619 611 619 611 512 611 c 0,23,24
EndSplineSet
EndChar

StartChar: uni0181
Encoding: 385 385 418
Width: 1024
VWidth: 0
Flags: W
LayerCount: 2
Fore
SplineSet
256 1280 m 2,0,-1
 512 1280 l 2,1,2
 706 1280 706 1280 809 1201 c 128,-1,3
 912 1122 912 1122 912 946 c 0,4,5
 912 893 912 893 894.5 849 c 128,-1,6
 877 805 877 805 852 780 c 128,-1,7
 827 755 827 755 802 737.5 c 128,-1,8
 777 720 777 720 759.5 714 c 2,9,-1
 742 708 l 1,10,11
 752 705 752 705 767.5 699 c 128,-1,12
 783 693 783 693 823.5 668 c 128,-1,13
 864 643 864 643 894.5 610 c 128,-1,14
 925 577 925 577 950.5 517 c 128,-1,15
 976 457 976 457 976 384 c 0,16,17
 976 177 976 177 857.5 88.5 c 128,-1,18
 739 0 739 0 512 0 c 2,19,-1
 256 0 l 1,20,-1
 256 1123 l 1,21,22
 225 1123 225 1123 205 1111.5 c 128,-1,23
 185 1100 185 1100 174.5 1085 c 128,-1,24
 164 1070 164 1070 159 1035 c 128,-1,25
 154 1000 154 1000 153 975 c 128,-1,26
 152 950 152 950 152 896 c 1,27,-1
 20 896 l 1,28,29
 12 952 12 952 12 1043 c 0,30,31
 12 1153 12 1153 77.5 1216.5 c 128,-1,32
 143 1280 143 1280 256 1280 c 2,0,-1
426 1123 m 1,33,-1
 426 768 l 1,34,-1
 512 768 l 2,35,36
 618 768 618 768 680 816 c 128,-1,37
 742 864 742 864 742 946 c 128,-1,38
 742 1028 742 1028 680 1075.5 c 128,-1,39
 618 1123 618 1123 512 1123 c 2,40,-1
 426 1123 l 1,33,-1
426 611 m 1,41,-1
 426 157 l 1,42,-1
 512 157 l 2,43,44
 661 157 661 157 733.5 205 c 128,-1,45
 806 253 806 253 806 384 c 128,-1,46
 806 515 806 515 733.5 563 c 128,-1,47
 661 611 661 611 512 611 c 2,48,-1
 426 611 l 1,41,-1
EndSplineSet
EndChar

StartChar: uni0183
Encoding: 387 387 420
Width: 1024
VWidth: 0
Flags: W
LayerCount: 2
Fore
SplineSet
128 1280 m 1,0,-1
 768 1280 l 1,1,-1
 768 1123 l 1,2,-1
 298 1123 l 1,3,-1
 298 880 l 1,4,5
 403 925 403 925 512 925 c 0,6,7
 697 925 697 925 804.5 804 c 128,-1,8
 912 683 912 683 912 475 c 0,9,10
 912 255 912 255 793 127.5 c 128,-1,11
 674 0 674 0 468 0 c 2,12,-1
 384 0 l 2,13,14
 240 0 240 0 184 56 c 128,-1,15
 128 112 128 112 128 256 c 2,16,-1
 128 1280 l 1,0,-1
512 768 m 0,17,18
 402 768 402 768 298 715 c 1,19,-1
 298 256 l 2,20,21
 298 210 298 210 321 183.5 c 128,-1,22
 344 157 344 157 384 157 c 2,23,-1
 468 157 l 2,24,25
 595 157 595 157 668.5 242 c 128,-1,26
 742 327 742 327 742 475 c 0,27,28
 742 610 742 610 680 689 c 128,-1,29
 618 768 618 768 512 768 c 0,17,18
EndSplineSet
EndChar

StartChar: uni0184
Encoding: 388 388 421
Width: 1024
VWidth: 0
Flags: W
LayerCount: 2
Fore
SplineSet
330 1280 m 1,0,-1
 330 768 l 1,1,-1
 512 768 l 2,2,3
 712 768 712 768 828 665 c 128,-1,4
 944 562 944 562 944 384 c 128,-1,5
 944 206 944 206 828 103 c 128,-1,6
 712 0 712 0 512 0 c 2,7,-1
 160 0 l 1,8,-1
 160 1024 l 1,9,-1
 32 1106 l 1,10,-1
 32 1138 l 1,11,-1
 330 1280 l 1,0,-1
330 611 m 1,12,-1
 330 157 l 1,13,-1
 512 157 l 2,14,15
 633 157 633 157 703.5 218 c 128,-1,16
 774 279 774 279 774 384 c 128,-1,17
 774 489 774 489 703.5 550 c 128,-1,18
 633 611 633 611 512 611 c 2,19,-1
 330 611 l 1,12,-1
EndSplineSet
EndChar

StartChar: uni0185
Encoding: 389 389 422
Width: 1024
VWidth: 0
Flags: W
LayerCount: 2
Fore
SplineSet
330 1280 m 1,0,-1
 330 992 l 1,1,2
 419 1024 419 1024 512 1024 c 0,3,4
 697 1024 697 1024 804.5 893 c 128,-1,5
 912 762 912 762 912 536 c 0,6,7
 912 288 912 288 793 144 c 128,-1,8
 674 0 674 0 468 0 c 2,9,-1
 416 0 l 2,10,11
 272 0 272 0 216 56 c 128,-1,12
 160 112 160 112 160 256 c 2,13,-1
 160 1024 l 1,14,-1
 32 1106 l 1,15,-1
 32 1138 l 1,16,-1
 330 1280 l 1,0,-1
512 867 m 0,17,18
 419 867 419 867 330 829 c 1,19,-1
 330 256 l 2,20,21
 330 210 330 210 353 183.5 c 128,-1,22
 376 157 376 157 416 157 c 2,23,-1
 468 157 l 2,24,25
 595 157 595 157 668.5 259 c 128,-1,26
 742 361 742 361 742 536 c 0,27,28
 742 690 742 690 680.5 778.5 c 128,-1,29
 619 867 619 867 512 867 c 0,17,18
EndSplineSet
EndChar

StartChar: uni0187
Encoding: 391 391 424
Width: 1024
VWidth: 0
Flags: W
LayerCount: 2
Fore
SplineSet
665 1288 m 2,0,-1
 760 1288 l 1,1,2
 760 1405 760 1405 803.5 1472.5 c 128,-1,3
 847 1540 847 1540 923 1540 c 0,4,5
 951 1540 951 1540 976 1538 c 128,-1,6
 1001 1536 1001 1536 1012.5 1534 c 2,7,-1
 1024 1532 l 1,8,-1
 1024 1404 l 1,9,10
 999 1404 999 1404 987 1403.5 c 128,-1,11
 975 1403 975 1403 956.5 1399.5 c 128,-1,12
 938 1396 938 1396 930 1388.5 c 128,-1,13
 922 1381 922 1381 912.5 1367.5 c 128,-1,14
 903 1354 903 1354 899.5 1332 c 128,-1,15
 896 1310 896 1310 896 1280 c 2,16,-1
 896 1123 l 1,17,-1
 665 1123 l 2,18,19
 491 1123 491 1123 390.5 993.5 c 128,-1,20
 290 864 290 864 290 640 c 0,21,22
 290 380 290 380 385.5 268.5 c 128,-1,23
 481 157 481 157 665 157 c 2,24,-1
 896 157 l 1,25,-1
 896 8 l 1,26,27
 808 -8 808 -8 665 -8 c 0,28,29
 532 -8 532 -8 433.5 25.5 c 128,-1,30
 335 59 335 59 261 133 c 128,-1,31
 187 207 187 207 149.5 334 c 128,-1,32
 112 461 112 461 112 640 c 0,33,34
 112 940 112 940 260.5 1114 c 128,-1,35
 409 1288 409 1288 665 1288 c 2,0,-1
EndSplineSet
EndChar

StartChar: uni0188
Encoding: 392 392 425
Width: 1024
VWidth: 0
Flags: W
LayerCount: 2
Fore
SplineSet
891 1284 m 0,0,1
 919 1284 919 1284 944 1282 c 128,-1,2
 969 1280 969 1280 980.5 1278 c 2,3,-1
 992 1276 l 1,4,-1
 992 1148 l 1,5,6
 967 1148 967 1148 955 1147.5 c 128,-1,7
 943 1147 943 1147 924.5 1143.5 c 128,-1,8
 906 1140 906 1140 898 1132.5 c 128,-1,9
 890 1125 890 1125 880.5 1111.5 c 128,-1,10
 871 1098 871 1098 867.5 1076 c 128,-1,11
 864 1054 864 1054 864 1024 c 2,12,-1
 864 867 l 1,13,-1
 642 867 l 2,14,15
 475 867 475 867 378.5 771.5 c 128,-1,16
 282 676 282 676 282 512 c 0,17,18
 282 321 282 321 374 239 c 128,-1,19
 466 157 466 157 642 157 c 2,20,-1
 864 157 l 1,21,-1
 864 8 l 1,22,23
 779 -8 779 -8 642 -8 c 0,24,25
 544 -8 544 -8 465 8.5 c 128,-1,26
 386 25 386 25 319 63 c 128,-1,27
 252 101 252 101 207 160.5 c 128,-1,28
 162 220 162 220 137 308.5 c 128,-1,29
 112 397 112 397 112 512 c 0,30,31
 112 751 112 751 257.5 891.5 c 128,-1,32
 403 1032 403 1032 642 1032 c 2,33,-1
 728 1032 l 1,34,35
 728 1149 728 1149 771.5 1216.5 c 128,-1,36
 815 1284 815 1284 891 1284 c 0,0,1
EndSplineSet
EndChar

StartChar: uni018A
Encoding: 394 394 427
Width: 1024
VWidth: 0
Flags: W
LayerCount: 2
Fore
SplineSet
256 1280 m 2,0,-1
 512 1280 l 2,1,2
 623 1280 623 1280 706 1247 c 128,-1,3
 789 1214 789 1214 851 1140.5 c 128,-1,4
 913 1067 913 1067 944.5 942 c 128,-1,5
 976 817 976 817 976 640 c 128,-1,6
 976 463 976 463 944.5 338 c 128,-1,7
 913 213 913 213 851 139.5 c 128,-1,8
 789 66 789 66 706 33 c 128,-1,9
 623 0 623 0 512 0 c 2,10,-1
 256 0 l 1,11,-1
 256 1123 l 1,12,13
 225 1123 225 1123 205 1111.5 c 128,-1,14
 185 1100 185 1100 174.5 1085 c 128,-1,15
 164 1070 164 1070 159 1035 c 128,-1,16
 154 1000 154 1000 153 975 c 128,-1,17
 152 950 152 950 152 896 c 1,18,-1
 20 896 l 1,19,20
 12 952 12 952 12 1043 c 0,21,22
 12 1153 12 1153 77.5 1216.5 c 128,-1,23
 143 1280 143 1280 256 1280 c 2,0,-1
426 1123 m 1,24,-1
 426 157 l 1,25,-1
 512 157 l 2,26,27
 583 157 583 157 635.5 182 c 128,-1,28
 688 207 688 207 727 262.5 c 128,-1,29
 766 318 766 318 786 412.5 c 128,-1,30
 806 507 806 507 806 640 c 128,-1,31
 806 773 806 773 786 867.5 c 128,-1,32
 766 962 766 962 727 1017.5 c 128,-1,33
 688 1073 688 1073 635.5 1098 c 128,-1,34
 583 1123 583 1123 512 1123 c 2,35,-1
 426 1123 l 1,24,-1
EndSplineSet
EndChar

StartChar: uni018B
Encoding: 395 395 428
Width: 1024
VWidth: 0
Flags: W
LayerCount: 2
Fore
SplineSet
896 1280 m 1,0,-1
 896 0 l 1,1,-1
 512 0 l 2,2,3
 312 0 312 0 196 103 c 128,-1,4
 80 206 80 206 80 384 c 128,-1,5
 80 562 80 562 196 665 c 128,-1,6
 312 768 312 768 512 768 c 2,7,-1
 726 768 l 1,8,-1
 726 1123 l 1,9,-1
 160 1123 l 1,10,-1
 160 1280 l 1,11,-1
 896 1280 l 1,0,-1
726 611 m 1,12,-1
 512 611 l 2,13,14
 391 611 391 611 320.5 550 c 128,-1,15
 250 489 250 489 250 384 c 128,-1,16
 250 279 250 279 320.5 218 c 128,-1,17
 391 157 391 157 512 157 c 2,18,-1
 726 157 l 1,19,-1
 726 611 l 1,12,-1
EndSplineSet
EndChar

StartChar: uni018C
Encoding: 396 396 429
Width: 1024
VWidth: 0
Flags: W
LayerCount: 2
Fore
SplineSet
256 1280 m 1,0,-1
 896 1280 l 1,1,-1
 896 256 l 2,2,3
 896 112 896 112 840 56 c 128,-1,4
 784 0 784 0 640 0 c 2,5,-1
 556 0 l 2,6,7
 350 0 350 0 231 121 c 128,-1,8
 112 242 112 242 112 450 c 0,9,10
 112 670 112 670 219.5 797.5 c 128,-1,11
 327 925 327 925 512 925 c 0,12,13
 621 925 621 925 726 880 c 1,14,-1
 726 1123 l 1,15,-1
 256 1123 l 1,16,-1
 256 1280 l 1,0,-1
512 768 m 0,17,18
 405 768 405 768 343.5 683 c 128,-1,19
 282 598 282 598 282 450 c 0,20,21
 282 314 282 314 355.5 235.5 c 128,-1,22
 429 157 429 157 556 157 c 2,23,-1
 640 157 l 2,24,25
 680 157 680 157 703 183.5 c 128,-1,26
 726 210 726 210 726 256 c 2,27,-1
 726 715 l 1,28,29
 622 768 622 768 512 768 c 0,17,18
EndSplineSet
EndChar

StartChar: uni018E
Encoding: 398 398 431
Width: 1024
VWidth: 0
Flags: W
LayerCount: 2
Fore
SplineSet
864 1280 m 1,0,-1
 864 0 l 1,1,-1
 128 0 l 1,2,-1
 128 157 l 1,3,-1
 694 157 l 1,4,-1
 694 611 l 1,5,-1
 192 611 l 1,6,-1
 192 768 l 1,7,-1
 694 768 l 1,8,-1
 694 1123 l 1,9,-1
 128 1123 l 1,10,-1
 128 1280 l 1,11,-1
 864 1280 l 1,0,-1
EndSplineSet
EndChar

StartChar: uni018F
Encoding: 399 399 432
Width: 1024
VWidth: 0
Flags: W
LayerCount: 2
Fore
SplineSet
406 1288 m 0,0,1
 655 1288 655 1288 795.5 1128 c 128,-1,2
 936 968 936 968 936 671 c 0,3,4
 936 340 936 340 823.5 162 c 128,-1,5
 711 -16 711 -16 512 -16 c 0,6,7
 319 -16 319 -16 207.5 122.5 c 128,-1,8
 96 261 96 261 96 500 c 2,9,-1
 96 611 l 2,10,11
 96 700 96 700 133 734 c 128,-1,12
 170 768 170 768 266 768 c 2,13,-1
 758 768 l 1,14,15
 758 775 758 775 757 788 c 128,-1,16
 756 801 756 801 749.5 838 c 128,-1,17
 743 875 743 875 730.5 908.5 c 128,-1,18
 718 942 718 942 692 983 c 128,-1,19
 666 1024 666 1024 630 1053.5 c 128,-1,20
 594 1083 594 1083 536 1103 c 128,-1,21
 478 1123 478 1123 406 1123 c 2,22,-1
 184 1123 l 1,23,-1
 184 1272 l 1,24,25
 269 1288 269 1288 406 1288 c 0,0,1
266 611 m 1,26,-1
 266 500 l 2,27,28
 266 334 266 334 332 237.5 c 128,-1,29
 398 141 398 141 512 141 c 0,30,31
 562 141 562 141 603 167 c 128,-1,32
 644 193 644 193 668.5 234.5 c 128,-1,33
 693 276 693 276 711.5 326 c 128,-1,34
 730 376 730 376 738.5 426 c 128,-1,35
 747 476 747 476 752 517.5 c 128,-1,36
 757 559 757 559 757.5 585 c 2,37,-1
 758 611 l 1,38,-1
 266 611 l 1,26,-1
EndSplineSet
EndChar

StartChar: uni0190
Encoding: 400 400 433
Width: 1024
VWidth: 0
Flags: W
LayerCount: 2
Fore
SplineSet
864 1272 m 1,0,-1
 864 1123 l 1,1,-1
 589 1123 l 1,2,3
 314 1131 314 1131 314 946 c 0,4,5
 314 850 314 850 395.5 809 c 128,-1,6
 477 768 477 768 634 768 c 2,7,-1
 800 768 l 1,8,-1
 800 611 l 1,9,-1
 622 611 l 2,10,11
 456 611 456 611 369 558.5 c 128,-1,12
 282 506 282 506 282 384 c 128,-1,13
 282 262 282 262 360.5 209.5 c 128,-1,14
 439 157 439 157 589 157 c 2,15,-1
 896 157 l 1,16,-1
 896 8 l 1,17,18
 779 -8 779 -8 589 -8 c 0,19,20
 355 -8 355 -8 233.5 82.5 c 128,-1,21
 112 173 112 173 112 384 c 0,22,23
 112 437 112 437 123 483.5 c 128,-1,24
 134 530 134 530 152 562 c 128,-1,25
 170 594 170 594 191.5 620 c 128,-1,26
 213 646 213 646 234.5 662 c 128,-1,27
 256 678 256 678 274 689 c 128,-1,28
 292 700 292 700 303 704 c 2,29,-1
 314 708 l 1,30,31
 307 710 307 710 295.5 714.5 c 128,-1,32
 284 719 284 719 255 737.5 c 128,-1,33
 226 756 226 756 203.5 780.5 c 128,-1,34
 181 805 181 805 162.5 849 c 128,-1,35
 144 893 144 893 144 946 c 0,36,37
 144 1130 144 1130 257.5 1209 c 128,-1,38
 371 1288 371 1288 589 1288 c 0,39,40
 665 1288 665 1288 733.5 1284 c 128,-1,41
 802 1280 802 1280 833 1276 c 2,42,-1
 864 1272 l 1,0,-1
EndSplineSet
EndChar

StartChar: uni0191
Encoding: 401 401 434
Width: 1024
VWidth: 0
Flags: W
LayerCount: 2
Fore
SplineSet
192 1280 m 1,0,-1
 928 1280 l 1,1,-1
 928 1123 l 1,2,-1
 362 1123 l 1,3,-1
 362 768 l 1,4,-1
 896 768 l 1,5,-1
 896 611 l 1,6,-1
 362 611 l 1,7,-1
 362 157 l 2,8,9
 362 -70 362 -70 288.5 -167 c 128,-1,10
 215 -264 215 -264 73 -264 c 0,11,12
 53 -264 53 -264 34.5 -260 c 128,-1,13
 16 -256 16 -256 8 -252 c 2,14,-1
 0 -248 l 1,15,-1
 0 -99 l 1,16,-1
 73 -99 l 2,17,18
 132 -99 132 -99 162 -40 c 128,-1,19
 192 19 192 19 192 157 c 2,20,-1
 192 1280 l 1,0,-1
EndSplineSet
EndChar

StartChar: florin
Encoding: 402 402 435
Width: 1024
VWidth: 0
Flags: W
LayerCount: 2
Fore
SplineSet
779 1445 m 0,0,1
 829 1445 829 1445 874 1441 c 128,-1,2
 919 1437 919 1437 939.5 1433 c 2,3,-1
 960 1429 l 1,4,-1
 960 1280 l 1,5,-1
 779 1280 l 2,6,7
 676 1280 676 1280 636.5 1202.5 c 128,-1,8
 597 1125 597 1125 597 925 c 1,9,-1
 960 925 l 1,10,-1
 960 768 l 1,11,-1
 597 768 l 1,12,-1
 597 157 l 2,13,14
 597 -70 597 -70 517 -167 c 128,-1,15
 437 -264 437 -264 282 -264 c 0,16,17
 257 -264 257 -264 234.5 -260 c 128,-1,18
 212 -256 212 -256 202 -252 c 2,19,-1
 192 -248 l 1,20,-1
 192 -99 l 1,21,-1
 282 -99 l 2,22,23
 353 -99 353 -99 390 -40 c 128,-1,24
 427 19 427 19 427 157 c 2,25,-1
 427 768 l 1,26,-1
 128 768 l 1,27,-1
 128 925 l 1,28,-1
 427 925 l 1,29,30
 427 1218 427 1218 504 1331.5 c 128,-1,31
 581 1445 581 1445 779 1445 c 0,0,1
EndSplineSet
EndChar

StartChar: uni0193
Encoding: 403 403 436
Width: 1024
VWidth: 0
Flags: W
LayerCount: 2
Fore
SplineSet
923 1540 m 0,0,1
 951 1540 951 1540 976 1538 c 128,-1,2
 1001 1536 1001 1536 1012.5 1534 c 2,3,-1
 1024 1532 l 1,4,-1
 1024 1404 l 1,5,6
 999 1404 999 1404 987 1403.5 c 128,-1,7
 975 1403 975 1403 956.5 1399.5 c 128,-1,8
 938 1396 938 1396 930 1388.5 c 128,-1,9
 922 1381 922 1381 912.5 1367.5 c 128,-1,10
 903 1354 903 1354 899.5 1332 c 128,-1,11
 896 1310 896 1310 896 1280 c 2,12,-1
 896 1123 l 1,13,-1
 640 1123 l 2,14,15
 452 1123 452 1123 355 996 c 128,-1,16
 258 869 258 869 258 640 c 0,17,18
 258 505 258 505 279 408.5 c 128,-1,19
 300 312 300 312 341.5 256 c 128,-1,20
 383 200 383 200 438 174.5 c 128,-1,21
 493 149 493 149 567 149 c 0,22,23
 660 149 660 149 709 174 c 128,-1,24
 758 199 758 199 758 256 c 2,25,-1
 758 611 l 1,26,-1
 512 611 l 1,27,-1
 512 768 l 1,28,-1
 928 768 l 1,29,-1
 928 256 l 2,30,31
 928 114 928 114 836 53 c 128,-1,32
 744 -8 744 -8 567 -8 c 0,33,34
 450 -8 450 -8 363 25.5 c 128,-1,35
 276 59 276 59 211 133 c 128,-1,36
 146 207 146 207 113 334 c 128,-1,37
 80 461 80 461 80 640 c 0,38,39
 80 944 80 944 224.5 1116 c 128,-1,40
 369 1288 369 1288 640 1288 c 2,41,-1
 760 1288 l 1,42,43
 760 1405 760 1405 803.5 1472.5 c 128,-1,44
 847 1540 847 1540 923 1540 c 0,0,1
EndSplineSet
EndChar

StartChar: uni0194
Encoding: 404 404 437
Width: 1024
VWidth: 0
Flags: W
LayerCount: 2
Fore
SplineSet
32 1280 m 1,0,-1
 222 1280 l 1,1,-1
 512 702 l 1,2,-1
 802 1280 l 1,3,-1
 992 1280 l 1,4,-1
 607 512 l 1,5,-1
 896 0 l 1,6,-1
 128 0 l 1,7,-1
 417 512 l 1,8,-1
 32 1280 l 1,0,-1
512 382 m 1,9,-1
 379 146 l 1,10,-1
 645 146 l 1,11,-1
 512 382 l 1,9,-1
EndSplineSet
EndChar

StartChar: uni0195
Encoding: 405 405 438
Width: 1024
VWidth: 0
Flags: W
LayerCount: 2
Fore
SplineSet
64 1280 m 1,0,-1
 234 1280 l 1,1,-1
 234 1024 l 1,2,-1
 308 1024 l 2,3,4
 450 1024 450 1024 523.5 934 c 128,-1,5
 597 844 597 844 597 633 c 2,6,-1
 597 391 l 2,7,8
 597 260 597 260 621.5 204.5 c 128,-1,9
 646 149 646 149 694 149 c 0,10,11
 741 149 741 149 765.5 204.5 c 128,-1,12
 790 260 790 260 790 391 c 2,13,-1
 790 1024 l 1,14,-1
 960 1024 l 1,15,-1
 960 391 l 2,16,17
 960 176 960 176 892.5 84 c 128,-1,18
 825 -8 825 -8 694 -8 c 128,-1,19
 563 -8 563 -8 495 84 c 128,-1,20
 427 176 427 176 427 391 c 2,21,-1
 427 633 l 2,22,23
 427 759 427 759 397 813 c 128,-1,24
 367 867 367 867 308 867 c 2,25,-1
 234 867 l 1,26,-1
 234 0 l 1,27,-1
 64 0 l 1,28,-1
 64 1280 l 1,0,-1
EndSplineSet
EndChar

StartChar: uni0196
Encoding: 406 406 439
Width: 1024
VWidth: 0
Flags: W
LayerCount: 2
Fore
SplineSet
896 8 m 1,0,1
 852 -8 852 -8 782 -8 c 0,2,3
 608 -8 608 -8 517.5 67 c 128,-1,4
 427 142 427 142 427 316 c 2,5,-1
 427 1280 l 1,6,-1
 597 1280 l 1,7,-1
 597 316 l 2,8,9
 597 231 597 231 644.5 194 c 128,-1,10
 692 157 692 157 782 157 c 2,11,-1
 896 157 l 1,12,-1
 896 8 l 1,0,1
EndSplineSet
EndChar

StartChar: uni0197
Encoding: 407 407 440
Width: 1024
VWidth: 0
Flags: W
LayerCount: 2
Fore
SplineSet
160 1280 m 1,0,-1
 864 1280 l 1,1,-1
 864 1123 l 1,2,-1
 597 1123 l 1,3,-1
 597 768 l 1,4,-1
 832 768 l 1,5,-1
 832 611 l 1,6,-1
 597 611 l 1,7,-1
 597 157 l 1,8,-1
 864 157 l 1,9,-1
 864 0 l 1,10,-1
 160 0 l 1,11,-1
 160 157 l 1,12,-1
 427 157 l 1,13,-1
 427 611 l 1,14,-1
 192 611 l 1,15,-1
 192 768 l 1,16,-1
 427 768 l 1,17,-1
 427 1123 l 1,18,-1
 160 1123 l 1,19,-1
 160 1280 l 1,0,-1
EndSplineSet
EndChar

StartChar: uni0198
Encoding: 408 408 441
Width: 1024
VWidth: 0
Flags: W
LayerCount: 2
Fore
SplineSet
128 1280 m 1,0,-1
 298 1280 l 1,1,-1
 298 704 l 1,2,-1
 610 1118 l 2,3,4
 648 1168 648 1168 666.5 1190.5 c 128,-1,5
 685 1213 685 1213 713 1240.5 c 128,-1,6
 741 1268 741 1268 767.5 1278 c 128,-1,7
 794 1288 794 1288 826 1288 c 0,8,9
 863 1288 863 1288 896.5 1284 c 128,-1,10
 930 1280 930 1280 945 1276 c 2,11,-1
 960 1272 l 1,12,-1
 960 1123 l 1,13,14
 914 1123 914 1123 895.5 1123 c 128,-1,15
 877 1123 877 1123 851 1118.5 c 128,-1,16
 825 1114 825 1114 818 1111 c 128,-1,17
 811 1108 811 1108 793 1093 c 128,-1,18
 775 1078 775 1078 766.5 1066 c 128,-1,19
 758 1054 758 1054 735 1024 c 2,20,-1
 477 681 l 1,21,-1
 960 0 l 1,22,-1
 752 0 l 1,23,-1
 298 640 l 1,24,-1
 298 0 l 1,25,-1
 128 0 l 1,26,-1
 128 1280 l 1,0,-1
EndSplineSet
EndChar

StartChar: uni0199
Encoding: 409 409 442
Width: 1024
VWidth: 0
Flags: W
LayerCount: 2
Fore
SplineSet
430 1288 m 0,0,1
 453 1288 453 1288 473.5 1284 c 128,-1,2
 494 1280 494 1280 503 1276 c 2,3,-1
 512 1272 l 1,4,-1
 512 1123 l 1,5,-1
 430 1123 l 2,6,7
 365 1123 365 1123 331.5 1064 c 128,-1,8
 298 1005 298 1005 298 867 c 2,9,-1
 298 656 l 1,10,-1
 721 1024 l 1,11,-1
 960 1024 l 1,12,-1
 497 621 l 1,13,-1
 960 0 l 1,14,-1
 764 0 l 1,15,-1
 298 624 l 1,16,-1
 298 0 l 1,17,-1
 128 0 l 1,18,-1
 128 867 l 2,19,20
 128 1094 128 1094 205 1191 c 128,-1,21
 282 1288 282 1288 430 1288 c 0,0,1
EndSplineSet
EndChar

StartChar: uni019A
Encoding: 410 410 443
Width: 1024
VWidth: 0
Flags: W
LayerCount: 2
Fore
SplineSet
160 1280 m 1,0,-1
 597 1280 l 1,1,-1
 597 768 l 1,2,-1
 832 768 l 1,3,-1
 832 611 l 1,4,-1
 597 611 l 1,5,-1
 597 157 l 1,6,-1
 896 157 l 1,7,-1
 896 0 l 1,8,-1
 128 0 l 1,9,-1
 128 157 l 1,10,-1
 427 157 l 1,11,-1
 427 611 l 1,12,-1
 192 611 l 1,13,-1
 192 768 l 1,14,-1
 427 768 l 1,15,-1
 427 1123 l 1,16,-1
 160 1123 l 1,17,-1
 160 1280 l 1,0,-1
EndSplineSet
EndChar

StartChar: uni019B
Encoding: 411 411 444
Width: 1024
VWidth: 0
Flags: W
LayerCount: 2
Fore
SplineSet
253 1288 m 0,0,1
 286 1288 286 1288 312.5 1278 c 128,-1,2
 339 1268 339 1268 356.5 1255.5 c 128,-1,3
 374 1243 374 1243 393.5 1213 c 128,-1,4
 413 1183 413 1183 423.5 1162 c 128,-1,5
 434 1141 434 1141 455 1095 c 2,6,-1
 488 1024 l 1,7,-1
 768 1180 l 1,8,-1
 768 1024 l 1,9,-1
 545 900 l 1,10,-1
 960 0 l 1,11,-1
 773 0 l 1,12,-1
 512 565 l 1,13,-1
 251 0 l 1,14,-1
 64 0 l 1,15,-1
 418 768 l 1,16,-1
 395 817 l 1,17,-1
 128 668 l 1,18,-1
 128 824 l 1,19,-1
 337 940 l 1,20,-1
 300 1019 l 2,21,22
 285 1051 285 1051 279 1063.5 c 128,-1,23
 273 1076 273 1076 260.5 1091.5 c 128,-1,24
 248 1107 248 1107 242.5 1110.5 c 128,-1,25
 237 1114 237 1114 216 1118.5 c 128,-1,26
 195 1123 195 1123 180.5 1123 c 128,-1,27
 166 1123 166 1123 128 1123 c 1,28,-1
 128 1272 l 1,29,30
 176 1288 176 1288 253 1288 c 0,0,1
EndSplineSet
EndChar

StartChar: uni019C
Encoding: 412 412 445
Width: 1024
VWidth: 0
Flags: W
LayerCount: 2
Fore
SplineSet
697 -8 m 0,0,1
 656 -8 656 -8 621.5 -1 c 128,-1,2
 587 6 587 6 566 16 c 128,-1,3
 545 26 545 26 530.5 36.5 c 128,-1,4
 516 47 516 47 510 54 c 2,5,-1
 504 61 l 1,6,7
 501 58 501 58 496 53.5 c 128,-1,8
 491 49 491 49 473.5 37 c 128,-1,9
 456 25 456 25 436.5 16 c 128,-1,10
 417 7 417 7 387.5 -0.5 c 128,-1,11
 358 -8 358 -8 327 -8 c 0,12,13
 204 -8 204 -8 134 61.5 c 128,-1,14
 64 131 64 131 64 256 c 2,15,-1
 64 1280 l 1,16,-1
 221 1280 l 1,17,-1
 221 256 l 2,18,19
 221 197 221 197 249.5 163.5 c 128,-1,20
 278 130 278 130 327 130 c 0,21,22
 356 130 356 130 382.5 142 c 128,-1,23
 409 154 409 154 421 166 c 2,24,-1
 433 178 l 1,25,-1
 433 1280 l 1,26,-1
 591 1280 l 1,27,-1
 591 256 l 2,28,29
 590 198 590 198 618.5 164 c 128,-1,30
 647 130 647 130 697 130 c 0,31,32
 726 130 726 130 752.5 142 c 128,-1,33
 779 154 779 154 791 166 c 2,34,-1
 803 178 l 1,35,-1
 803 1280 l 1,36,-1
 960 1280 l 1,37,-1
 960 88 l 1,38,39
 956 84 956 84 948.5 77.5 c 128,-1,40
 941 71 941 71 914.5 54.5 c 128,-1,41
 888 38 888 38 859.5 25.5 c 128,-1,42
 831 13 831 13 787 2.5 c 128,-1,43
 743 -8 743 -8 697 -8 c 0,0,1
EndSplineSet
EndChar

StartChar: uni019D
Encoding: 413 413 446
Width: 1024
VWidth: 0
Flags: W
LayerCount: 2
Fore
SplineSet
160 1280 m 1,0,-1
 364 1280 l 1,1,-1
 715 512 l 1,2,-1
 826 256 l 1,3,-1
 822 512 l 1,4,-1
 822 1280 l 1,5,-1
 992 1280 l 1,6,-1
 992 0 l 1,7,-1
 787 0 l 1,8,-1
 437 768 l 1,9,-1
 326 1024 l 1,10,-1
 330 768 l 1,11,-1
 330 157 l 2,12,13
 330 -70 330 -70 261.5 -167 c 128,-1,14
 193 -264 193 -264 61 -264 c 0,15,16
 45 -264 45 -264 29.5 -260 c 128,-1,17
 14 -256 14 -256 7 -252 c 2,18,-1
 0 -248 l 1,19,-1
 0 -99 l 1,20,-1
 61 -99 l 2,21,22
 109 -99 109 -99 134.5 -40 c 128,-1,23
 160 19 160 19 160 157 c 2,24,-1
 160 1280 l 1,0,-1
EndSplineSet
EndChar

StartChar: uni019E
Encoding: 414 414 447
Width: 1024
VWidth: 0
Flags: W
LayerCount: 2
Fore
SplineSet
512 1040 m 0,0,1
 700 1040 700 1040 798 952 c 128,-1,2
 896 864 896 864 896 658 c 2,3,-1
 896 -256 l 1,4,-1
 726 -256 l 1,5,-1
 726 658 l 2,6,7
 726 779 726 779 671.5 831 c 128,-1,8
 617 883 617 883 512 883 c 0,9,10
 453 883 453 883 399.5 872 c 128,-1,11
 346 861 346 861 322 850 c 2,12,-1
 298 839 l 1,13,-1
 298 0 l 1,14,-1
 128 0 l 1,15,-1
 128 936 l 1,16,17
 134 940 134 940 145.5 947 c 128,-1,18
 157 954 157 954 195 972 c 128,-1,19
 233 990 233 990 274.5 1004 c 128,-1,20
 316 1018 316 1018 381 1029 c 128,-1,21
 446 1040 446 1040 512 1040 c 0,0,1
EndSplineSet
EndChar

StartChar: uni019F
Encoding: 415 415 448
Width: 1024
VWidth: 0
Flags: W
LayerCount: 2
Fore
SplineSet
512 1296 m 128,-1,1
 623 1296 623 1296 706 1262 c 128,-1,2
 789 1228 789 1228 851 1153 c 128,-1,3
 913 1078 913 1078 944.5 949.5 c 128,-1,4
 976 821 976 821 976 640 c 128,-1,5
 976 459 976 459 944.5 330.5 c 128,-1,6
 913 202 913 202 851 127 c 128,-1,7
 789 52 789 52 706 18 c 128,-1,8
 623 -16 623 -16 512 -16 c 128,-1,9
 401 -16 401 -16 318 18 c 128,-1,10
 235 52 235 52 173 127 c 128,-1,11
 111 202 111 202 79.5 330.5 c 128,-1,12
 48 459 48 459 48 640 c 128,-1,13
 48 821 48 821 79.5 949.5 c 128,-1,14
 111 1078 111 1078 173 1153 c 128,-1,15
 235 1228 235 1228 318 1262 c 128,-1,0
 401 1296 401 1296 512 1296 c 128,-1,1
512 1139 m 128,-1,17
 382 1139 382 1139 310.5 1041.5 c 128,-1,18
 239 944 239 944 228 719 c 1,19,-1
 796 719 l 1,20,21
 785 944 785 944 713.5 1041.5 c 128,-1,16
 642 1139 642 1139 512 1139 c 128,-1,17
228 562 m 1,22,23
 239 336 239 336 310.5 238.5 c 128,-1,24
 382 141 382 141 512 141 c 128,-1,25
 642 141 642 141 713.5 238.5 c 128,-1,26
 785 336 785 336 796 562 c 1,27,-1
 228 562 l 1,22,23
EndSplineSet
EndChar

StartChar: Ohorn
Encoding: 416 416 449
Width: 1024
VWidth: 0
Flags: W
LayerCount: 2
Fore
SplineSet
854 1408 m 1,0,-1
 1024 1408 l 1,1,2
 1024 1171 1024 1171 900 1075 c 1,3,4
 976 920 976 920 976 640 c 0,5,6
 976 459 976 459 944.5 330.5 c 128,-1,7
 913 202 913 202 851 127 c 128,-1,8
 789 52 789 52 706 18 c 128,-1,9
 623 -16 623 -16 512 -16 c 128,-1,10
 401 -16 401 -16 318 18 c 128,-1,11
 235 52 235 52 173 127 c 128,-1,12
 111 202 111 202 79.5 330.5 c 128,-1,13
 48 459 48 459 48 640 c 128,-1,14
 48 821 48 821 79.5 949.5 c 128,-1,15
 111 1078 111 1078 173 1153 c 128,-1,16
 235 1228 235 1228 318 1262 c 128,-1,17
 401 1296 401 1296 512 1296 c 0,18,19
 704 1296 704 1296 813 1194 c 1,20,21
 854 1256 854 1256 854 1408 c 1,0,-1
512 1139 m 128,-1,23
 443 1139 443 1139 392 1113 c 128,-1,24
 341 1087 341 1087 303 1030 c 128,-1,25
 265 973 265 973 245.5 875.5 c 128,-1,26
 226 778 226 778 226 640 c 128,-1,27
 226 502 226 502 245.5 404.5 c 128,-1,28
 265 307 265 307 303 250 c 128,-1,29
 341 193 341 193 392 167 c 128,-1,30
 443 141 443 141 512 141 c 128,-1,31
 581 141 581 141 632 167 c 128,-1,32
 683 193 683 193 721 250 c 128,-1,33
 759 307 759 307 778.5 404.5 c 128,-1,34
 798 502 798 502 798 640 c 128,-1,35
 798 778 798 778 778.5 875.5 c 128,-1,36
 759 973 759 973 721 1030 c 128,-1,37
 683 1087 683 1087 632 1113 c 128,-1,22
 581 1139 581 1139 512 1139 c 128,-1,23
EndSplineSet
EndChar

StartChar: ohorn
Encoding: 417 417 450
Width: 1024
VWidth: 0
Flags: W
LayerCount: 2
Fore
SplineSet
854 1152 m 1,0,-1
 1024 1152 l 1,1,2
 1024 912 1024 912 895 815 c 1,3,4
 944 697 944 697 944 512 c 0,5,6
 944 366 944 366 914.5 263 c 128,-1,7
 885 160 885 160 827.5 99.5 c 128,-1,8
 770 39 770 39 693 11.5 c 128,-1,9
 616 -16 616 -16 512 -16 c 128,-1,10
 408 -16 408 -16 331 11.5 c 128,-1,11
 254 39 254 39 196.5 99.5 c 128,-1,12
 139 160 139 160 109.5 263 c 128,-1,13
 80 366 80 366 80 512 c 128,-1,14
 80 658 80 658 109.5 761 c 128,-1,15
 139 864 139 864 196.5 924.5 c 128,-1,16
 254 985 254 985 331 1012.5 c 128,-1,17
 408 1040 408 1040 512 1040 c 0,18,19
 710 1040 710 1040 814 939 c 1,20,21
 854 1000 854 1000 854 1152 c 1,0,-1
512 883 m 128,-1,23
 384 883 384 883 317 797.5 c 128,-1,24
 250 712 250 712 250 512 c 128,-1,25
 250 312 250 312 317 226.5 c 128,-1,26
 384 141 384 141 512 141 c 128,-1,27
 640 141 640 141 707 226.5 c 128,-1,28
 774 312 774 312 774 512 c 128,-1,29
 774 712 774 712 707 797.5 c 128,-1,22
 640 883 640 883 512 883 c 128,-1,23
EndSplineSet
EndChar

StartChar: uni01A2
Encoding: 418 418 451
Width: 1024
VWidth: 0
Flags: W
LayerCount: 2
Fore
SplineSet
360 1288 m 0,0,1
 509 1288 509 1288 578 1179 c 1,2,-1
 790 1280 l 1,3,-1
 960 1280 l 1,4,-1
 960 0 l 1,5,-1
 790 0 l 1,6,-1
 790 1106 l 1,7,-1
 618 1024 l 1,8,-1
 618 256 l 2,9,10
 618 132 618 132 547 62 c 128,-1,11
 476 -8 476 -8 360 -8 c 0,12,13
 248 -8 248 -8 181 52.5 c 128,-1,14
 114 113 114 113 81 255 c 128,-1,15
 48 397 48 397 48 640 c 128,-1,16
 48 883 48 883 81 1025 c 128,-1,17
 114 1167 114 1167 181 1227.5 c 128,-1,18
 248 1288 248 1288 360 1288 c 0,0,1
360 1131 m 0,19,20
 288 1131 288 1131 253 1019 c 128,-1,21
 218 907 218 907 218 640 c 128,-1,22
 218 373 218 373 253 261 c 128,-1,23
 288 149 288 149 360 149 c 0,24,25
 401 149 401 149 424.5 176.5 c 128,-1,26
 448 204 448 204 448 256 c 2,27,-1
 448 1024 l 2,28,29
 448 1076 448 1076 424.5 1103.5 c 128,-1,30
 401 1131 401 1131 360 1131 c 0,19,20
EndSplineSet
EndChar

StartChar: uni01A3
Encoding: 419 419 452
Width: 1024
VWidth: 0
Flags: W
LayerCount: 2
Fore
SplineSet
372 1032 m 0,0,1
 516 1032 516 1032 580 924 c 1,2,-1
 790 1024 l 1,3,-1
 960 1024 l 1,4,-1
 960 0 l 1,5,-1
 790 0 l 1,6,-1
 790 850 l 1,7,-1
 618 768 l 1,8,-1
 618 256 l 2,9,10
 618 131 618 131 552.5 61.5 c 128,-1,11
 487 -8 487 -8 372 -8 c 0,12,13
 261 -8 261 -8 198.5 41.5 c 128,-1,14
 136 91 136 91 108 202.5 c 128,-1,15
 80 314 80 314 80 512 c 128,-1,16
 80 710 80 710 108 821.5 c 128,-1,17
 136 933 136 933 198.5 982.5 c 128,-1,18
 261 1032 261 1032 372 1032 c 0,0,1
372 875 m 0,19,20
 303 875 303 875 276.5 795.5 c 128,-1,21
 250 716 250 716 250 512 c 128,-1,22
 250 308 250 308 276.5 228.5 c 128,-1,23
 303 149 303 149 372 149 c 0,24,25
 408 149 408 149 428 176.5 c 128,-1,26
 448 204 448 204 448 256 c 2,27,-1
 448 768 l 2,28,29
 448 820 448 820 428 847.5 c 128,-1,30
 408 875 408 875 372 875 c 0,19,20
EndSplineSet
EndChar

StartChar: uni01A4
Encoding: 420 420 453
Width: 1024
VWidth: 0
Flags: W
LayerCount: 2
Fore
SplineSet
256 1280 m 2,0,-1
 641 1280 l 2,1,2
 781 1280 781 1280 862.5 1177 c 128,-1,3
 944 1074 944 1074 944 896 c 128,-1,4
 944 718 944 718 840.5 615 c 128,-1,5
 737 512 737 512 559 512 c 2,6,-1
 426 512 l 1,7,-1
 426 0 l 1,8,-1
 256 0 l 1,9,-1
 256 1123 l 1,10,11
 225 1123 225 1123 205 1111.5 c 128,-1,12
 185 1100 185 1100 174.5 1085 c 128,-1,13
 164 1070 164 1070 159 1035 c 128,-1,14
 154 1000 154 1000 153 975 c 128,-1,15
 152 950 152 950 152 896 c 1,16,-1
 20 896 l 1,17,18
 12 952 12 952 12 1043 c 0,19,20
 12 1153 12 1153 77.5 1216.5 c 128,-1,21
 143 1280 143 1280 256 1280 c 2,0,-1
426 1123 m 1,22,-1
 426 669 l 1,23,-1
 559 669 l 2,24,25
 659 669 659 669 716.5 730 c 128,-1,26
 774 791 774 791 774 896 c 128,-1,27
 774 1001 774 1001 738.5 1062 c 128,-1,28
 703 1123 703 1123 641 1123 c 2,29,-1
 426 1123 l 1,22,-1
EndSplineSet
EndChar

StartChar: uni01A5
Encoding: 421 421 454
Width: 1024
VWidth: 0
Flags: W
LayerCount: 2
Fore
SplineSet
430 1445 m 0,0,1
 453 1445 453 1445 473.5 1441 c 128,-1,2
 494 1437 494 1437 503 1433 c 2,3,-1
 512 1429 l 1,4,-1
 512 1280 l 1,5,-1
 430 1280 l 2,6,7
 365 1280 365 1280 331.5 1221 c 128,-1,8
 298 1162 298 1162 298 1024 c 1,9,-1
 512 1024 l 2,10,11
 697 1024 697 1024 804.5 922.5 c 128,-1,12
 912 821 912 821 912 646 c 0,13,14
 912 465 912 465 793 360.5 c 128,-1,15
 674 256 674 256 468 256 c 2,16,-1
 298 256 l 1,17,-1
 298 -256 l 1,18,-1
 128 -256 l 1,19,-1
 128 1024 l 2,20,21
 128 1251 128 1251 205 1348 c 128,-1,22
 282 1445 282 1445 430 1445 c 0,0,1
298 867 m 1,23,-1
 298 413 l 1,24,-1
 468 413 l 2,25,26
 595 413 595 413 668.5 475.5 c 128,-1,27
 742 538 742 538 742 646 c 0,28,29
 742 749 742 749 680.5 808 c 128,-1,30
 619 867 619 867 512 867 c 2,31,-1
 298 867 l 1,23,-1
EndSplineSet
EndChar

StartChar: uni01A6
Encoding: 422 422 455
Width: 1024
VWidth: 0
Flags: W
LayerCount: 2
Fore
SplineSet
128 1280 m 1,0,-1
 298 1280 l 1,1,-1
 298 1024 l 1,2,-1
 572 1024 l 2,3,4
 739 1024 739 1024 825.5 947 c 128,-1,5
 912 870 912 870 912 690 c 0,6,7
 912 445 912 445 686 380 c 1,8,-1
 960 -256 l 1,9,-1
 775 -256 l 1,10,-1
 512 355 l 1,11,-1
 298 355 l 1,12,-1
 298 0 l 1,13,-1
 128 0 l 1,14,-1
 128 1280 l 1,0,-1
298 867 m 1,15,-1
 298 512 l 1,16,-1
 468 512 l 2,17,18
 602 512 602 512 672 553 c 128,-1,19
 742 594 742 594 742 690 c 0,20,21
 742 785 742 785 698.5 826 c 128,-1,22
 655 867 655 867 572 867 c 2,23,-1
 298 867 l 1,15,-1
EndSplineSet
EndChar

StartChar: uni01A7
Encoding: 423 423 456
Width: 1024
VWidth: 0
Flags: W
LayerCount: 2
Fore
SplineSet
372 1288 m 0,0,1
 637 1288 637 1288 774.5 1207.5 c 128,-1,2
 912 1127 912 1127 912 939 c 0,3,4
 912 871 912 871 889.5 816.5 c 128,-1,5
 867 762 867 762 829.5 725.5 c 128,-1,6
 792 689 792 689 742.5 660.5 c 128,-1,7
 693 632 693 632 639 612 c 128,-1,8
 585 592 585 592 531 573 c 128,-1,9
 477 554 477 554 427.5 533.5 c 128,-1,10
 378 513 378 513 340.5 488 c 128,-1,11
 303 463 303 463 280.5 426 c 128,-1,12
 258 389 258 389 258 341 c 0,13,14
 258 237 258 237 348.5 197 c 128,-1,15
 439 157 439 157 672 157 c 2,16,-1
 928 157 l 1,17,-1
 928 8 l 1,18,19
 830 -8 830 -8 672 -8 c 0,20,21
 446 -8 446 -8 319.5 25 c 128,-1,22
 193 58 193 58 136.5 133 c 128,-1,23
 80 208 80 208 80 341 c 0,24,25
 80 409 80 409 102.5 463.5 c 128,-1,26
 125 518 125 518 162.5 554.5 c 128,-1,27
 200 591 200 591 249.5 619.5 c 128,-1,28
 299 648 299 648 353 668 c 128,-1,29
 407 688 407 688 461 707 c 128,-1,30
 515 726 515 726 564.5 746.5 c 128,-1,31
 614 767 614 767 651.5 792 c 128,-1,32
 689 817 689 817 711.5 854 c 128,-1,33
 734 891 734 891 734 939 c 0,34,35
 734 1038 734 1038 642 1080.5 c 128,-1,36
 550 1123 550 1123 372 1123 c 2,37,-1
 128 1123 l 1,38,-1
 128 1272 l 1,39,40
 221 1288 221 1288 372 1288 c 0,0,1
EndSplineSet
EndChar

StartChar: uni01A8
Encoding: 424 424 457
Width: 1024
VWidth: 0
Flags: W
LayerCount: 2
Fore
SplineSet
390 1032 m 0,0,1
 630 1032 630 1032 755 962.5 c 128,-1,2
 880 893 880 893 880 731 c 0,3,4
 880 669 880 669 855.5 621.5 c 128,-1,5
 831 574 831 574 791.5 546.5 c 128,-1,6
 752 519 752 519 701 497.5 c 128,-1,7
 650 476 650 476 597 464 c 128,-1,8
 544 452 544 452 493 436.5 c 128,-1,9
 442 421 442 421 402.5 405 c 128,-1,10
 363 389 363 389 338.5 360 c 128,-1,11
 314 331 314 331 314 292 c 0,12,13
 314 219 314 219 400.5 188 c 128,-1,14
 487 157 487 157 654 157 c 2,15,-1
 864 157 l 1,16,-1
 864 8 l 1,17,18
 784 -8 784 -8 654 -8 c 0,19,20
 404 -8 404 -8 274 61 c 128,-1,21
 144 130 144 130 144 292 c 0,22,23
 144 363 144 363 175 414 c 128,-1,24
 206 465 206 465 256 493.5 c 128,-1,25
 306 522 306 522 366.5 541.5 c 128,-1,26
 427 561 427 561 487.5 576 c 128,-1,27
 548 591 548 591 598 608.5 c 128,-1,28
 648 626 648 626 679 656.5 c 128,-1,29
 710 687 710 687 710 731 c 0,30,31
 710 804 710 804 628.5 835.5 c 128,-1,32
 547 867 547 867 390 867 c 2,33,-1
 192 867 l 1,34,-1
 192 1016 l 1,35,36
 268 1032 268 1032 390 1032 c 0,0,1
EndSplineSet
EndChar

StartChar: uni01AA
Encoding: 426 426 459
Width: 1024
VWidth: 0
Flags: W
LayerCount: 2
Fore
SplineSet
341 1408 m 128,-1,1
 447 1408 447 1408 522 1333 c 128,-1,2
 597 1258 597 1258 597 1152 c 2,3,-1
 597 157 l 2,4,5
 597 19 597 19 644.5 -40 c 128,-1,6
 692 -99 692 -99 782 -99 c 2,7,-1
 896 -99 l 1,8,-1
 896 -248 l 1,9,10
 852 -264 852 -264 782 -264 c 0,11,12
 608 -264 608 -264 517.5 -167 c 128,-1,13
 427 -70 427 -70 427 157 c 2,14,-1
 427 911 l 1,15,16
 387 896 387 896 341 896 c 0,17,18
 235 896 235 896 160 971 c 128,-1,19
 85 1046 85 1046 85 1152 c 128,-1,20
 85 1258 85 1258 160 1333 c 128,-1,0
 235 1408 235 1408 341 1408 c 128,-1,1
341 1272 m 128,-1,22
 292 1272 292 1272 256.5 1237 c 128,-1,23
 221 1202 221 1202 221 1152 c 128,-1,24
 221 1102 221 1102 256.5 1067 c 128,-1,25
 292 1032 292 1032 341 1032 c 128,-1,26
 390 1032 390 1032 425.5 1067 c 128,-1,27
 461 1102 461 1102 461 1152 c 128,-1,28
 461 1202 461 1202 425.5 1237 c 128,-1,21
 390 1272 390 1272 341 1272 c 128,-1,22
EndSplineSet
EndChar

StartChar: uni01AB
Encoding: 427 427 460
Width: 1024
VWidth: 0
Flags: W
LayerCount: 2
Fore
SplineSet
342 1280 m 1,0,-1
 512 1280 l 1,1,-1
 512 925 l 1,2,-1
 928 925 l 1,3,-1
 928 768 l 1,4,-1
 512 768 l 1,5,-1
 512 314 l 2,6,7
 512 229 512 229 561 193 c 128,-1,8
 610 157 610 157 704 157 c 2,9,-1
 864 157 l 1,10,-1
 864 0 l 2,11,12
 864 -128 864 -128 849.5 -208 c 128,-1,13
 835 -288 835 -288 798.5 -336.5 c 128,-1,14
 762 -385 762 -385 708.5 -403 c 128,-1,15
 655 -421 655 -421 568 -421 c 0,16,17
 547 -421 547 -421 528 -417 c 128,-1,18
 509 -413 509 -413 500.5 -409 c 2,19,-1
 492 -405 l 1,20,-1
 492 -256 l 1,21,-1
 568 -256 l 2,22,23
 638 -256 638 -256 666 -199.5 c 128,-1,24
 694 -143 694 -143 694 0 c 1,25,26
 521 0 521 0 431.5 72.5 c 128,-1,27
 342 145 342 145 342 314 c 2,28,-1
 342 768 l 1,29,-1
 64 768 l 1,30,-1
 64 925 l 1,31,-1
 342 925 l 1,32,-1
 342 1280 l 1,0,-1
EndSplineSet
EndChar

StartChar: uni01AC
Encoding: 428 428 461
Width: 1024
VWidth: 0
Flags: W
LayerCount: 2
Fore
SplineSet
256 1280 m 2,0,-1
 960 1280 l 1,1,-1
 960 1123 l 1,2,-1
 597 1123 l 1,3,-1
 597 0 l 1,4,-1
 427 0 l 1,5,-1
 427 1123 l 1,6,-1
 256 1123 l 2,7,8
 225 1123 225 1123 205 1111.5 c 128,-1,9
 185 1100 185 1100 174.5 1085 c 128,-1,10
 164 1070 164 1070 159 1035 c 128,-1,11
 154 1000 154 1000 153 975 c 128,-1,12
 152 950 152 950 152 896 c 1,13,-1
 20 896 l 1,14,15
 12 952 12 952 12 1043 c 0,16,17
 12 1153 12 1153 77.5 1216.5 c 128,-1,18
 143 1280 143 1280 256 1280 c 2,0,-1
EndSplineSet
EndChar

StartChar: uni01AD
Encoding: 429 429 462
Width: 1024
VWidth: 0
Flags: W
LayerCount: 2
Fore
SplineSet
644 1288 m 0,0,1
 667 1288 667 1288 687.5 1284 c 128,-1,2
 708 1280 708 1280 717 1276 c 2,3,-1
 726 1272 l 1,4,-1
 726 1123 l 1,5,-1
 644 1123 l 2,6,7
 579 1123 579 1123 545.5 1077.5 c 128,-1,8
 512 1032 512 1032 512 925 c 1,9,-1
 928 925 l 1,10,-1
 928 768 l 1,11,-1
 512 768 l 1,12,-1
 512 314 l 2,13,14
 512 229 512 229 561 193 c 128,-1,15
 610 157 610 157 704 157 c 2,16,-1
 864 157 l 1,17,-1
 864 8 l 1,18,19
 803 -8 803 -8 704 -8 c 0,20,21
 526 -8 526 -8 434 66 c 128,-1,22
 342 140 342 140 342 314 c 2,23,-1
 342 768 l 1,24,-1
 64 768 l 1,25,-1
 64 925 l 1,26,-1
 342 925 l 1,27,28
 342 1120 342 1120 419 1204 c 128,-1,29
 496 1288 496 1288 644 1288 c 0,0,1
EndSplineSet
EndChar

StartChar: uni01AE
Encoding: 430 430 463
Width: 1024
VWidth: 0
Flags: W
LayerCount: 2
Fore
SplineSet
64 1280 m 1,0,-1
 960 1280 l 1,1,-1
 960 1123 l 1,2,-1
 597 1123 l 1,3,-1
 597 60 l 2,4,5
 597 -25 597 -25 644.5 -62 c 128,-1,6
 692 -99 692 -99 782 -99 c 2,7,-1
 896 -99 l 1,8,-1
 896 -248 l 1,9,10
 852 -264 852 -264 782 -264 c 0,11,12
 608 -264 608 -264 517.5 -189 c 128,-1,13
 427 -114 427 -114 427 60 c 2,14,-1
 427 1123 l 1,15,-1
 64 1123 l 1,16,-1
 64 1280 l 1,0,-1
EndSplineSet
EndChar

StartChar: Uhorn
Encoding: 431 431 464
Width: 1024
VWidth: 0
Flags: W
LayerCount: 2
Fore
SplineSet
854 1408 m 1,0,-1
 1024 1408 l 1,1,2
 1024 1327 1024 1327 1008.5 1261.5 c 128,-1,3
 993 1196 993 1196 970 1157 c 128,-1,4
 947 1118 947 1118 916 1090 c 128,-1,5
 885 1062 885 1062 860.5 1050 c 128,-1,6
 836 1038 836 1038 810 1031 c 1,7,-1
 810 576 l 2,8,9
 810 413 810 413 782.5 297 c 128,-1,10
 755 181 755 181 701 113 c 128,-1,11
 647 45 647 45 574.5 14.5 c 128,-1,12
 502 -16 502 -16 405 -16 c 128,-1,13
 308 -16 308 -16 235.5 14.5 c 128,-1,14
 163 45 163 45 109 113 c 128,-1,15
 55 181 55 181 27.5 297 c 128,-1,16
 0 413 0 413 0 576 c 2,17,-1
 0 1280 l 1,18,-1
 170 1280 l 1,19,-1
 170 576 l 1,20,21
 150 141 150 141 405 141 c 0,22,23
 520 141 520 141 580 241.5 c 128,-1,24
 640 342 640 342 640 576 c 2,25,-1
 640 1280 l 1,26,-1
 810 1280 l 1,27,-1
 810 1190 l 1,28,29
 854 1251 854 1251 854 1408 c 1,0,-1
EndSplineSet
EndChar

StartChar: uhorn
Encoding: 432 432 465
Width: 1024
VWidth: 0
Flags: W
LayerCount: 2
Fore
SplineSet
854 1152 m 1,0,-1
 1024 1152 l 1,1,2
 1024 1071 1024 1071 1008.5 1005.5 c 128,-1,3
 993 940 993 940 970 901 c 128,-1,4
 947 862 947 862 916 834 c 128,-1,5
 885 806 885 806 860.5 794 c 128,-1,6
 836 782 836 782 810 775 c 1,7,-1
 810 88 l 1,8,9
 804 84 804 84 793 77 c 128,-1,10
 782 70 782 70 745 52 c 128,-1,11
 708 34 708 34 668 20 c 128,-1,12
 628 6 628 6 565 -5 c 128,-1,13
 502 -16 502 -16 437 -16 c 0,14,15
 254 -16 254 -16 159 72 c 128,-1,16
 64 160 64 160 64 366 c 2,17,-1
 64 1024 l 1,18,-1
 234 1024 l 1,19,-1
 234 366 l 2,20,21
 234 245 234 245 286 193 c 128,-1,22
 338 141 338 141 437 141 c 0,23,24
 493 141 493 141 543.5 152 c 128,-1,25
 594 163 594 163 617 174 c 2,26,-1
 640 185 l 1,27,-1
 640 1024 l 1,28,-1
 810 1024 l 1,29,-1
 810 934 l 1,30,31
 854 995 854 995 854 1152 c 1,0,-1
EndSplineSet
EndChar

StartChar: uni01B2
Encoding: 434 434 467
Width: 1024
VWidth: 0
Flags: W
LayerCount: 2
Fore
SplineSet
606 1288 m 0,0,1
 764 1288 764 1288 846 1191 c 128,-1,2
 928 1094 928 1094 928 867 c 2,3,-1
 928 576 l 2,4,5
 928 406 928 406 907 295.5 c 128,-1,6
 886 185 886 185 836.5 114 c 128,-1,7
 787 43 787 43 709 13.5 c 128,-1,8
 631 -16 631 -16 512 -16 c 128,-1,9
 393 -16 393 -16 315 13.5 c 128,-1,10
 237 43 237 43 187.5 114 c 128,-1,11
 138 185 138 185 117 295.5 c 128,-1,12
 96 406 96 406 96 576 c 2,13,-1
 96 1280 l 1,14,-1
 266 1280 l 1,15,-1
 266 576 l 2,16,17
 266 331 266 331 319.5 236 c 128,-1,18
 373 141 373 141 512 141 c 128,-1,19
 651 141 651 141 704.5 236 c 128,-1,20
 758 331 758 331 758 576 c 2,21,-1
 758 867 l 2,22,23
 758 1005 758 1005 719 1064 c 128,-1,24
 680 1123 680 1123 606 1123 c 2,25,-1
 512 1123 l 1,26,-1
 512 1272 l 1,27,28
 548 1288 548 1288 606 1288 c 0,0,1
EndSplineSet
EndChar

StartChar: uni01B3
Encoding: 435 435 468
Width: 1024
VWidth: 0
Flags: W
LayerCount: 2
Fore
SplineSet
32 1280 m 1,0,-1
 223 1280 l 1,1,-1
 512 700 l 1,2,-1
 712 1101 l 2,3,4
 740 1157 740 1157 753.5 1181 c 128,-1,5
 767 1205 767 1205 791.5 1235.5 c 128,-1,6
 816 1266 816 1266 842.5 1277 c 128,-1,7
 869 1288 869 1288 905 1288 c 0,8,9
 938 1288 938 1288 967.5 1284 c 128,-1,10
 997 1280 997 1280 1010.5 1276 c 2,11,-1
 1024 1272 l 1,12,-1
 1024 1123 l 1,13,14
 989 1123 989 1123 975.5 1123 c 128,-1,15
 962 1123 962 1123 943 1118.5 c 128,-1,16
 924 1114 924 1114 918.5 1111 c 128,-1,17
 913 1108 913 1108 900.5 1093 c 128,-1,18
 888 1078 888 1078 882 1066 c 128,-1,19
 876 1054 876 1054 860 1024 c 2,20,-1
 597 512 l 1,21,-1
 597 0 l 1,22,-1
 427 0 l 1,23,-1
 427 512 l 1,24,-1
 32 1280 l 1,0,-1
EndSplineSet
EndChar

StartChar: uni01B4
Encoding: 436 436 469
Width: 1024
VWidth: 0
Flags: W
LayerCount: 2
Fore
SplineSet
951 1284 m 0,0,1
 970 1284 970 1284 988.5 1282 c 128,-1,2
 1007 1280 1007 1280 1015.5 1278 c 2,3,-1
 1024 1276 l 1,4,-1
 1024 1123 l 1,5,-1
 951 1123 l 2,6,7
 892 1123 892 1123 862 1064 c 128,-1,8
 832 1005 832 1005 832 867 c 2,9,-1
 832 120 l 2,10,11
 832 -87 832 -87 709.5 -175.5 c 128,-1,12
 587 -264 587 -264 352 -264 c 0,13,14
 299 -264 299 -264 251 -260 c 128,-1,15
 203 -256 203 -256 181.5 -252 c 2,16,-1
 160 -248 l 1,17,-1
 160 -99 l 1,18,-1
 352 -99 l 2,19,20
 504 -99 504 -99 583 -48.5 c 128,-1,21
 662 2 662 2 662 120 c 2,22,-1
 662 256 l 1,23,-1
 448 256 l 2,24,25
 270 256 270 256 167 339 c 128,-1,26
 64 422 64 422 64 566 c 2,27,-1
 64 1024 l 1,28,-1
 234 1024 l 1,29,-1
 234 566 l 2,30,31
 234 495 234 495 291.5 454 c 128,-1,32
 349 413 349 413 448 413 c 2,33,-1
 662 413 l 1,34,-1
 662 867 l 2,35,36
 662 983 662 983 681.5 1065 c 128,-1,37
 701 1147 701 1147 739.5 1194.5 c 128,-1,38
 778 1242 778 1242 829.5 1263 c 128,-1,39
 881 1284 881 1284 951 1284 c 0,0,1
EndSplineSet
EndChar

StartChar: uni01B5
Encoding: 437 437 470
Width: 1024
VWidth: 0
Flags: W
LayerCount: 2
Fore
SplineSet
128 1280 m 1,0,-1
 896 1280 l 1,1,-1
 896 1123 l 1,2,-1
 671 768 l 1,3,-1
 864 768 l 1,4,-1
 864 611 l 1,5,-1
 571 611 l 1,6,-1
 283 157 l 1,7,-1
 928 157 l 1,8,-1
 928 0 l 1,9,-1
 96 0 l 1,10,-1
 96 157 l 1,11,-1
 384 611 l 1,12,-1
 160 611 l 1,13,-1
 160 768 l 1,14,-1
 484 768 l 1,15,-1
 709 1123 l 1,16,-1
 128 1123 l 1,17,-1
 128 1280 l 1,0,-1
EndSplineSet
EndChar

StartChar: uni01B6
Encoding: 438 438 471
Width: 1024
VWidth: 0
Flags: W
LayerCount: 2
Fore
SplineSet
160 1024 m 1,0,-1
 896 1024 l 1,1,-1
 896 867 l 1,2,-1
 676 591 l 1,3,-1
 864 591 l 1,4,-1
 864 433 l 1,5,-1
 549 433 l 1,6,-1
 329 157 l 1,7,-1
 896 157 l 1,8,-1
 896 0 l 1,9,-1
 128 0 l 1,10,-1
 128 157 l 1,11,-1
 348 433 l 1,12,-1
 160 433 l 1,13,-1
 160 591 l 1,14,-1
 475 591 l 1,15,-1
 695 867 l 1,16,-1
 160 867 l 1,17,-1
 160 1024 l 1,0,-1
EndSplineSet
EndChar

StartChar: uni01B7
Encoding: 439 439 472
Width: 1024
VWidth: 0
Flags: W
LayerCount: 2
Fore
SplineSet
896 1280 m 1,0,-1
 896 1123 l 1,1,-1
 512 768 l 1,2,3
 712 768 712 768 828 679.5 c 128,-1,4
 944 591 944 591 944 438 c 0,5,6
 944 315 944 315 904 227.5 c 128,-1,7
 864 140 864 140 785.5 89 c 128,-1,8
 707 38 707 38 601.5 15 c 128,-1,9
 496 -8 496 -8 355 -8 c 0,10,11
 284 -8 284 -8 219 -4 c 128,-1,12
 154 -0 154 -0 125 4 c 2,13,-1
 96 8 l 1,14,-1
 96 157 l 1,15,-1
 355 157 l 2,16,17
 560 157 560 157 667 221.5 c 128,-1,18
 774 286 774 286 774 438 c 0,19,20
 774 518 774 518 692.5 564.5 c 128,-1,21
 611 611 611 611 469 611 c 2,22,-1
 280 611 l 1,23,-1
 280 768 l 1,24,-1
 664 1123 l 1,25,-1
 128 1123 l 1,26,-1
 128 1280 l 1,27,-1
 896 1280 l 1,0,-1
EndSplineSet
EndChar

StartChar: uni01B8
Encoding: 440 440 473
Width: 1024
VWidth: 0
Flags: W
LayerCount: 2
Fore
SplineSet
128 1280 m 1,0,-1
 896 1280 l 1,1,-1
 896 1123 l 1,2,-1
 360 1123 l 1,3,-1
 744 768 l 1,4,-1
 744 611 l 1,5,-1
 555 611 l 2,6,7
 413 611 413 611 331.5 564.5 c 128,-1,8
 250 518 250 518 250 438 c 0,9,10
 250 286 250 286 357 221.5 c 128,-1,11
 464 157 464 157 669 157 c 2,12,-1
 928 157 l 1,13,-1
 928 8 l 1,14,15
 829 -8 829 -8 669 -8 c 0,16,17
 528 -8 528 -8 422.5 15 c 128,-1,18
 317 38 317 38 238.5 89 c 128,-1,19
 160 140 160 140 120 227.5 c 128,-1,20
 80 315 80 315 80 438 c 0,21,22
 80 591 80 591 196 679.5 c 128,-1,23
 312 768 312 768 512 768 c 1,24,-1
 128 1123 l 1,25,-1
 128 1280 l 1,0,-1
EndSplineSet
EndChar

StartChar: uni01B9
Encoding: 441 441 474
Width: 1024
VWidth: 0
Flags: W
LayerCount: 2
Fore
SplineSet
160 1024 m 1,0,-1
 864 1024 l 1,1,-1
 864 867 l 1,2,-1
 382 867 l 1,3,-1
 734 512 l 1,4,-1
 734 355 l 1,5,-1
 551 355 l 2,6,7
 424 355 424 355 353 294.5 c 128,-1,8
 282 234 282 234 282 128 c 0,9,10
 282 23 282 23 364.5 -38 c 128,-1,11
 447 -99 447 -99 589 -99 c 2,12,-1
 896 -99 l 1,13,-1
 896 -248 l 1,14,15
 779 -264 779 -264 589 -264 c 0,16,17
 368 -264 368 -264 240 -159 c 128,-1,18
 112 -54 112 -54 112 128 c 0,19,20
 112 306 112 306 219.5 409 c 128,-1,21
 327 512 327 512 512 512 c 1,22,-1
 160 867 l 1,23,-1
 160 1024 l 1,0,-1
EndSplineSet
EndChar

StartChar: uni01BA
Encoding: 442 442 475
Width: 1024
VWidth: 0
Flags: W
LayerCount: 2
Fore
SplineSet
160 1024 m 1,0,-1
 864 1024 l 1,1,-1
 864 867 l 1,2,-1
 576 669 l 1,3,4
 732 669 732 669 822 592.5 c 128,-1,5
 912 516 912 516 912 384 c 0,6,7
 912 230 912 230 810 164.5 c 128,-1,8
 708 99 708 99 512 99 c 0,9,10
 406 99 406 99 344 72.5 c 128,-1,11
 282 46 282 46 282 0 c 0,12,13
 282 -56 282 -56 330.5 -77.5 c 128,-1,14
 379 -99 379 -99 504 -99 c 2,15,-1
 864 -99 l 1,16,-1
 864 -256 l 1,17,-1
 504 -256 l 2,18,19
 284 -256 284 -256 198 -200 c 128,-1,20
 112 -144 112 -144 112 0 c 0,21,22
 112 119 112 119 219.5 187.5 c 128,-1,23
 327 256 327 256 512 256 c 0,24,25
 625 256 625 256 683.5 285.5 c 128,-1,26
 742 315 742 315 742 384 c 128,-1,27
 742 453 742 453 675.5 482.5 c 128,-1,28
 609 512 609 512 481 512 c 2,29,-1
 320 512 l 1,30,-1
 320 669 l 1,31,-1
 608 867 l 1,32,-1
 160 867 l 1,33,-1
 160 1024 l 1,0,-1
EndSplineSet
EndChar

StartChar: uni01BB
Encoding: 443 443 476
Width: 1024
VWidth: 0
Flags: W
LayerCount: 2
Fore
SplineSet
512 1296 m 128,-1,1
 682 1296 682 1296 781 1216 c 128,-1,2
 880 1136 880 1136 880 997 c 0,3,4
 880 951 880 951 877.5 926.5 c 128,-1,5
 875 902 875 902 859.5 860 c 128,-1,6
 844 818 844 818 811 768 c 1,7,-1
 896 768 l 1,8,-1
 896 611 l 1,9,-1
 692 611 l 1,10,-1
 329 157 l 1,11,-1
 896 157 l 1,12,-1
 896 0 l 1,13,-1
 128 0 l 1,14,-1
 128 157 l 1,15,-1
 491 611 l 1,16,-1
 192 611 l 1,17,-1
 192 768 l 1,18,-1
 616 768 l 1,19,20
 661 824 661 824 682 866.5 c 128,-1,21
 703 909 703 909 706.5 931.5 c 128,-1,22
 710 954 710 954 710 997 c 0,23,24
 710 1063 710 1063 657 1101 c 128,-1,25
 604 1139 604 1139 512 1139 c 128,-1,26
 420 1139 420 1139 367 1101 c 128,-1,27
 314 1063 314 1063 314 997 c 1,28,-1
 144 1024 l 1,29,30
 144 1150 144 1150 243 1223 c 128,-1,0
 342 1296 342 1296 512 1296 c 128,-1,1
EndSplineSet
EndChar

StartChar: uni01BC
Encoding: 444 444 477
Width: 1024
VWidth: 0
Flags: W
LayerCount: 2
Fore
SplineSet
64 1280 m 1,0,-1
 864 1280 l 1,1,-1
 864 1123 l 1,2,-1
 429 1123 l 1,3,-1
 362 768 l 1,4,-1
 512 768 l 2,5,6
 697 768 697 768 804.5 679.5 c 128,-1,7
 912 591 912 591 912 438 c 0,8,9
 912 229 912 229 765 110.5 c 128,-1,10
 618 -8 618 -8 363 -8 c 0,11,12
 299 -8 299 -8 240 -4 c 128,-1,13
 181 -0 181 -0 154.5 4 c 2,14,-1
 128 8 l 1,15,-1
 128 157 l 1,16,-1
 363 157 l 2,17,18
 543 157 543 157 642.5 227.5 c 128,-1,19
 742 298 742 298 742 438 c 0,20,21
 742 518 742 518 680.5 564.5 c 128,-1,22
 619 611 619 611 512 611 c 2,23,-1
 160 611 l 1,24,-1
 256 1123 l 1,25,-1
 64 1123 l 1,26,-1
 64 1280 l 1,0,-1
EndSplineSet
EndChar

StartChar: uni01BD
Encoding: 445 445 478
Width: 1024
VWidth: 0
Flags: W
LayerCount: 2
Fore
SplineSet
128 1024 m 1,0,-1
 864 1024 l 1,1,-1
 864 867 l 1,2,-1
 449 867 l 1,3,-1
 388 591 l 1,4,-1
 512 591 l 2,5,6
 708 591 708 591 810 522.5 c 128,-1,7
 912 454 912 454 912 295 c 0,8,9
 912 157 912 157 769.5 74.5 c 128,-1,10
 627 -8 627 -8 382 -8 c 0,11,12
 321 -8 321 -8 265.5 -4 c 128,-1,13
 210 -0 210 -0 185 4 c 2,14,-1
 160 8 l 1,15,-1
 160 157 l 1,16,-1
 382 157 l 2,17,18
 548 157 548 157 645 194 c 128,-1,19
 742 231 742 231 742 295 c 0,20,21
 742 370 742 370 683.5 401.5 c 128,-1,22
 625 433 625 433 512 433 c 2,23,-1
 192 433 l 1,24,-1
 288 867 l 1,25,-1
 128 867 l 1,26,-1
 128 1024 l 1,0,-1
EndSplineSet
EndChar

StartChar: uni01BE
Encoding: 446 446 479
Width: 1024
VWidth: 0
Flags: W
LayerCount: 2
Fore
SplineSet
128 1024 m 1,0,-1
 342 1024 l 1,1,-1
 342 1280 l 1,2,-1
 512 1280 l 1,3,-1
 512 1024 l 1,4,-1
 768 1024 l 1,5,-1
 768 867 l 1,6,-1
 512 867 l 1,7,-1
 512 669 l 1,8,9
 708 669 708 669 810 592 c 128,-1,10
 912 515 912 515 912 335 c 0,11,12
 912 176 912 176 786 84 c 128,-1,13
 660 -8 660 -8 442 -8 c 0,14,15
 391 -8 391 -8 344.5 -4 c 128,-1,16
 298 -0 298 -0 277 4 c 2,17,-1
 256 8 l 1,18,-1
 256 157 l 1,19,-1
 442 157 l 2,20,21
 581 157 581 157 661.5 205 c 128,-1,22
 742 253 742 253 742 335 c 0,23,24
 742 430 742 430 683.5 471 c 128,-1,25
 625 512 625 512 512 512 c 2,26,-1
 342 512 l 1,27,-1
 342 867 l 1,28,-1
 128 867 l 1,29,-1
 128 1024 l 1,0,-1
EndSplineSet
EndChar

StartChar: uni01BF
Encoding: 447 447 480
Width: 1024
VWidth: 0
Flags: W
LayerCount: 2
Fore
SplineSet
384 1024 m 2,0,-1
 572 1024 l 2,1,2
 730 1024 730 1024 821 939.5 c 128,-1,3
 912 855 912 855 912 710 c 0,4,5
 912 618 912 618 869 532 c 128,-1,6
 826 446 826 446 763 382.5 c 128,-1,7
 700 319 700 319 612.5 261 c 128,-1,8
 525 203 525 203 451.5 167 c 128,-1,9
 378 131 378 131 298 99 c 1,10,-1
 298 -256 l 1,11,-1
 128 -256 l 1,12,-1
 128 768 l 2,13,14
 128 912 128 912 184 968 c 128,-1,15
 240 1024 240 1024 384 1024 c 2,0,-1
384 867 m 2,16,17
 344 867 344 867 321 840.5 c 128,-1,18
 298 814 298 814 298 768 c 2,19,-1
 298 256 l 1,20,21
 359 283 359 283 414.5 312.5 c 128,-1,22
 470 342 470 342 532 386 c 128,-1,23
 594 430 594 430 638.5 476.5 c 128,-1,24
 683 523 683 523 712.5 584.5 c 128,-1,25
 742 646 742 646 742 710 c 0,26,27
 742 783 742 783 696.5 825 c 128,-1,28
 651 867 651 867 572 867 c 2,29,-1
 384 867 l 2,16,17
EndSplineSet
EndChar

StartChar: uni01C2
Encoding: 450 450 483
Width: 1024
VWidth: 0
Flags: W
LayerCount: 2
Fore
SplineSet
427 1437 m 1,0,-1
 597 1437 l 1,1,-1
 597 925 l 1,2,-1
 832 925 l 1,3,-1
 832 768 l 1,4,-1
 597 768 l 1,5,-1
 597 512 l 1,6,-1
 832 512 l 1,7,-1
 832 355 l 1,8,-1
 597 355 l 1,9,-1
 597 -256 l 1,10,-1
 427 -256 l 1,11,-1
 427 355 l 1,12,-1
 192 355 l 1,13,-1
 192 512 l 1,14,-1
 427 512 l 1,15,-1
 427 768 l 1,16,-1
 192 768 l 1,17,-1
 192 925 l 1,18,-1
 427 925 l 1,19,-1
 427 1437 l 1,0,-1
EndSplineSet
EndChar

